SplineFontDB: 3.0
FontName: Rambla-Italic
FullName: Rambla Italic
FamilyName: Rambla
Weight: Book
Copyright: Copyright (c) 2011-2012, Martin Sommaruga (martin@estudiotrama.com), with Reserved Font Name 'Rambla'
Version: 1.001
ItalicAngle: -12
UnderlinePosition: -50
UnderlineWidth: 50
Ascent: 800
Descent: 200
sfntRevision: 0x00010042
LayerCount: 2
Layer: 0 1 "Back"  1
Layer: 1 1 "Fore"  0
XUID: [1021 1022 1036240465 5464048]
FSType: 0
OS2Version: 3
OS2_WeightWidthSlopeOnly: 0
OS2_UseTypoMetrics: 1
CreationTime: 1320398460
ModificationTime: 1351749400
PfmFamily: 17
TTFWeight: 400
TTFWidth: 5
LineGap: 0
VLineGap: 0
Panose: 2 0 5 3 0 0 0 2 0 4
OS2TypoAscent: 929
OS2TypoAOffset: 0
OS2TypoDescent: -295
OS2TypoDOffset: 0
OS2TypoLinegap: 0
OS2WinAscent: 929
OS2WinAOffset: 0
OS2WinDescent: 295
OS2WinDOffset: 0
HheadAscent: 929
HheadAOffset: 0
HheadDescent: -295
HheadDOffset: 0
OS2SubXSize: 650
OS2SubYSize: 600
OS2SubXOff: -16
OS2SubYOff: 75
OS2SupXSize: 650
OS2SupYSize: 600
OS2SupXOff: 74
OS2SupYOff: 350
OS2StrikeYSize: 50
OS2StrikeYPos: 303
OS2Vendor: 'PYRS'
OS2CodePages: 20000001.00000000
OS2UnicodeRanges: 8000002f.4000004a.00000000.00000000
Lookup: 258 0 0 "'kern' Horizontal Kerning lookup 0"  {"'kern' Horizontal Kerning lookup 0 per glyph data 0"  "'kern' Horizontal Kerning lookup 0 kerning class 1"  } ['kern' ('DFLT' <'dflt' > ) ]
DEI: 91125
KernClass2: 69+ 59 "'kern' Horizontal Kerning lookup 0 kerning class 1" 
 5 space
 29 guillemotright guilsinglright
 4 four
 40 comma period quotesinglbase quotedblbase
 15 colon semicolon
 5 seven
 4 nine
 24 quoteright quotedblright
 22 quoteleft quotedblleft
 5 slash
 9 backslash
 12 questiondown
 28 hyphen uni00AD endash emdash
 8 asterisk
 27 guillemotleft guilsinglleft
 10 registered
 9 ampersand
 20 quotedbl quotesingle
 10 exclamdown
 9 trademark
 50 A Agrave Aacute Acircumflex Atilde Adieresis Aring
 1 F
 43 E AE Egrave Eacute Ecircumflex Edieresis OE
 8 L Lslash
 48 H I N Igrave Iacute Icircumflex Idieresis Ntilde
 1 T

StartChar: exclam
Encoding: 33 33 4
Width: 236
GlyphClass: 2
Flags: W
LayerCount: 2
Fore
SplineSet
231 700 m 1,0,-1
 138 184 l 1,1,-1
 62 184 l 1,2,-1
 133 700 l 1,3,-1
 231 700 l 1,0,-1
90 117 m 128,-1,5
 115 117 115 117 129 101.5 c 128,-1,6
 143 86 143 86 143 74 c 0,7,8
 143 36 143 36 119.5 15 c 128,-1,9
 96 -6 96 -6 71 -6 c 128,-1,10
 46 -6 46 -6 32.5 10 c 128,-1,11
 19 26 19 26 19 39 c 0,12,13
 19 78 19 78 42 97.5 c 128,-1,4
 65 117 65 117 90 117 c 128,-1,5
EndSplineSet
EndChar

StartChar: quotedbl
Encoding: 34 34 5
Width: 350
GlyphClass: 2
Flags: W
LayerCount: 2
Fore
SplineSet
114 700 m 1,0,-1
 201 700 l 1,1,-1
 153 481 l 1,2,-1
 93 481 l 1,3,-1
 114 700 l 1,0,-1
276 700 m 1,4,-1
 363 700 l 1,5,-1
 315 481 l 1,6,-1
 255 481 l 1,7,-1
 276 700 l 1,4,-1
EndSplineSet
EndChar

StartChar: numbersign
Encoding: 35 35 6
Width: 592
GlyphClass: 2
Flags: W
LayerCount: 2
Fore
SplineSet
384 190 m 1,0,-1
 313 -14 l 1,1,-1
 235 -14 l 1,2,-1
 304 190 l 1,3,-1
 190 190 l 1,4,-1
 120 -14 l 1,5,-1
 41 -14 l 1,6,-1
 110 190 l 1,7,-1
 27 190 l 1,8,-1
 39 267 l 1,9,-1
 135 267 l 1,10,-1
 176 389 l 1,11,-1
 62 389 l 1,12,-1
 74 466 l 1,13,-1
 202 466 l 1,14,-1
 270 668 l 1,15,-1
 350 668 l 1,16,-1
 281 466 l 1,17,-1
 396 466 l 1,18,-1
 465 668 l 1,19,-1
 543 668 l 1,20,-1
 475 466 l 1,21,-1
 577 466 l 1,22,-1
 565 389 l 1,23,-1
 450 389 l 1,24,-1
 409 267 l 1,25,-1
 542 267 l 1,26,-1
 530 190 l 1,27,-1
 384 190 l 1,0,-1
370 389 m 1,28,-1
 257 389 l 1,29,-1
 216 267 l 1,30,-1
 330 267 l 1,31,-1
 370 389 l 1,28,-1
EndSplineSet
EndChar

StartChar: dollar
Encoding: 36 36 7
Width: 464
GlyphClass: 2
Flags: W
LayerCount: 2
Fore
SplineSet
28 109 m 1,0,1
 116 71 116 71 181 71 c 128,-1,2
 246 71 246 71 282 99 c 0,3,4
 326 133 326 133 326 184 c 0,5,6
 326 219 326 219 298.5 246.5 c 128,-1,7
 271 274 271 274 204 310 c 0,8,9
 155 336 155 336 145 344.5 c 128,-1,10
 135 353 135 353 124 361.5 c 128,-1,11
 113 370 113 370 108 378 c 128,-1,12
 103 386 103 386 96 396.5 c 128,-1,13
 89 407 89 407 86 418 c 128,-1,14
 83 429 83 429 80 442 c 0,15,16
 74 466 74 466 81 503 c 0,17,18
 92 570 92 570 143 613.5 c 128,-1,19
 194 657 194 657 267 666 c 1,20,-1
 282 774 l 1,21,-1
 352 774 l 1,22,-1
 333 667 l 1,23,24
 396 663 396 663 462 638 c 1,25,-1
 424 559 l 1,26,27
 357 585 357 585 298 585 c 0,28,29
 184 585 184 585 171 499 c 0,30,31
 170 493 170 493 170 487 c 0,32,33
 170 459 170 459 195 435.5 c 128,-1,34
 220 412 220 412 266.5 385.5 c 128,-1,35
 313 359 313 359 335 343 c 0,36,37
 400 296 400 296 414 245 c 0,38,39
 419 226 419 226 419 208 c 0,40,41
 419 115 419 115 353 52 c 0,42,43
 300 2 300 2 222 -9 c 1,44,-1
 207 -118 l 1,45,-1
 137 -118 l 1,46,-1
 156 -12 l 1,47,48
 44 -5 44 -5 -12 25 c 1,49,-1
 28 109 l 1,0,1
EndSplineSet
EndChar

StartChar: uni0025
Encoding: 37 37 8
Width: 722
GlyphClass: 2
Flags: W
LayerCount: 2
Fore
SplineSet
181 0 m 1,0,-1
 89 0 l 1,1,-1
 562 701 l 1,2,-1
 653 701 l 1,3,-1
 181 0 l 1,0,-1
167 307 m 0,4,5
 60 307 60 307 60 425 c 0,6,7
 60 456 60 456 66 497 c 0,8,9
 84 607 84 607 127 649 c 128,-1,10
 170 691 170 691 231 691 c 128,-1,11
 292 691 292 691 321 650 c 0,12,13
 339 624 339 624 339 582 c 128,-1,14
 339 540 339 540 332 498 c 0,15,16
 315 389 315 389 272 348 c 128,-1,17
 229 307 229 307 167 307 c 0,4,5
264 559 m 0,18,19
 264 626 264 626 219 626 c 0,20,21
 160 626 160 626 141 499 c 0,22,23
 136 460 136 460 136 434 c 0,24,25
 136 372 136 372 178 372 c 0,26,27
 239 372 239 372 259 499 c 0,28,29
 264 534 264 534 264 559 c 0,18,19
506 -13 m 0,30,31
 400 -13 400 -13 400 104 c 0,32,33
 400 136 400 136 406 177 c 0,34,35
 423 287 423 287 466 329 c 128,-1,36
 509 371 509 371 570 371 c 128,-1,37
 631 371 631 371 660 330 c 0,38,39
 678 303 678 303 678 261 c 128,-1,40
 678 219 678 219 672 178 c 0,41,42
 655 69 655 69 611.5 28 c 128,-1,43
 568 -13 568 -13 506 -13 c 0,30,31
474 118 m 0,44,45
 474 52 474 52 518 52 c 0,46,47
 547 52 547 52 567 80 c 128,-1,48
 587 108 587 108 595 159.5 c 128,-1,49
 603 211 603 211 603 235 c 0,50,51
 603 306 603 306 558 306 c 0,52,53
 500 306 500 306 480 179 c 0,54,55
 474 143 474 143 474 118 c 0,44,45
EndSplineSet
EndChar

StartChar: ampersand
Encoding: 38 38 9
Width: 669
GlyphClass: 2
Flags: W
LayerCount: 2
Fore
SplineSet
113 161 m 0,0,1
 113 121 113 121 142 92 c 128,-1,2
 171 63 171 63 226 63 c 0,3,4
 313 63 313 63 383 133 c 1,5,-1
 245 330 l 1,6,7
 189 307 189 307 155 267 c 0,8,9
 113 218 113 218 113 161 c 0,0,1
21 144 m 0,10,11
 21 294 21 294 208 393 c 1,12,13
 156 468 156 468 156 532 c 0,14,15
 156 605 156 605 215 647 c 0,16,17
 263 681 263 681 333 681 c 128,-1,18
 403 681 403 681 475 645 c 1,19,-1
 439 576 l 1,20,21
 385 605 385 605 318 605 c 128,-1,22
 251 605 251 605 243 551 c 0,23,24
 242 545 242 545 242 539 c 0,25,26
 242 498 242 498 283 439 c 2,27,-1
 450 199 l 1,28,29
 524 289 524 289 552 410 c 1,30,-1
 631 410 l 1,31,32
 597 248 597 248 495 134 c 1,33,34
 522 105 522 105 559 75.5 c 128,-1,35
 596 46 596 46 622 33 c 1,36,-1
 576 -31 l 1,37,38
 486 12 486 12 429 70 c 1,39,40
 334 -13 334 -13 207 -13 c 0,41,42
 117 -13 117 -13 64 38 c 0,43,44
 21 78 21 78 21 144 c 0,10,11
EndSplineSet
EndChar

StartChar: quotesingle
Encoding: 39 39 10
Width: 190
GlyphClass: 2
Flags: W
LayerCount: 2
Fore
SplineSet
115 700 m 1,0,-1
 202 700 l 1,1,-1
 150 460 l 1,2,-1
 90 460 l 1,3,-1
 115 700 l 1,0,-1
EndSplineSet
EndChar

StartChar: parenleft
Encoding: 40 40 11
Width: 289
GlyphClass: 2
Flags: W
LayerCount: 2
Fore
SplineSet
331 710 m 1,0,1
 130 454 130 454 130 214 c 0,2,3
 130 64 130 64 204 -92 c 1,4,-1
 131 -135 l 1,5,6
 37 40 37 40 37 212 c 0,7,8
 37 478 37 478 272 753 c 1,9,-1
 331 710 l 1,0,1
EndSplineSet
EndChar

StartChar: parenright
Encoding: 41 41 12
Width: 287
GlyphClass: 2
Flags: W
LayerCount: 2
Fore
SplineSet
-36 -92 m 1,0,1
 165 166 165 166 165 405 c 0,2,3
 165 552 165 552 91 710 c 1,4,-1
 164 753 l 1,5,6
 256 579 256 579 256 409 c 0,7,8
 256 359 256 359 248 309 c 0,9,10
 214 89 214 89 23 -135 c 1,11,-1
 -36 -92 l 1,0,1
EndSplineSet
EndChar

StartChar: asterisk
Encoding: 42 42 13
Width: 387
GlyphClass: 2
Flags: W
LayerCount: 2
Fore
SplineSet
283 539 m 1,0,-1
 378 494 l 1,1,-1
 326 428 l 1,2,-1
 254 494 l 1,3,-1
 245 382 l 1,4,-1
 168 382 l 1,5,-1
 195 496 l 1,6,-1
 100 428 l 1,7,-1
 72 495 l 1,8,-1
 181 537 l 1,9,-1
 85 579 l 1,10,-1
 134 648 l 1,11,-1
 209 581 l 1,12,-1
 217 693 l 1,13,-1
 294 693 l 1,14,-1
 269 581 l 1,15,-1
 362 648 l 1,16,-1
 391 579 l 1,17,-1
 283 539 l 1,0,-1
EndSplineSet
EndChar

StartChar: plus
Encoding: 43 43 14
Width: 463
GlyphClass: 2
Flags: W
LayerCount: 2
Fore
SplineSet
238 85 m 1,0,-1
 159 85 l 1,1,-1
 183 239 l 1,2,-1
 31 239 l 1,3,-1
 44 318 l 1,4,-1
 196 318 l 1,5,-1
 220 470 l 1,6,-1
 299 470 l 1,7,-1
 275 318 l 1,8,-1
 428 318 l 1,9,-1
 415 239 l 1,10,-1
 262 239 l 1,11,-1
 238 85 l 1,0,-1
EndSplineSet
EndChar

StartChar: comma
Encoding: 44 44 15
Width: 216
GlyphClass: 2
Flags: W
LayerCount: 2
Fore
SplineSet
-75 -128 m 1,0,1
 35 -20 35 -20 35 68 c 0,2,3
 35 90 35 90 28 116 c 1,4,-1
 123 116 l 1,5,6
 128 100 128 100 128 85.5 c 128,-1,7
 128 71 128 71 126 59 c 0,8,9
 108 -46 108 -46 7 -128 c 1,10,-1
 -75 -128 l 1,0,1
EndSplineSet
EndChar

StartChar: hyphen
Encoding: 45 45 16
Width: 510
GlyphClass: 2
Flags: W
LayerCount: 2
Fore
SplineSet
451 318 m 1,0,-1
 438 239 l 1,1,-1
 55 239 l 1,2,-1
 68 318 l 1,3,-1
 451 318 l 1,0,-1
EndSplineSet
EndChar

StartChar: period
Encoding: 46 46 17
Width: 222
GlyphClass: 2
Flags: W
LayerCount: 2
Fore
SplineSet
84 117 m 128,-1,1
 109 117 109 117 123 101.5 c 128,-1,2
 137 86 137 86 137 74 c 0,3,4
 137 36 137 36 113.5 15 c 128,-1,5
 90 -6 90 -6 65 -6 c 128,-1,6
 40 -6 40 -6 26.5 10 c 128,-1,7
 13 26 13 26 13 39 c 0,8,9
 13 78 13 78 36 97.5 c 128,-1,0
 59 117 59 117 84 117 c 128,-1,1
EndSplineSet
EndChar

StartChar: slash
Encoding: 47 47 18
Width: 435
GlyphClass: 2
Flags: W
LayerCount: 2
Fore
SplineSet
476 684 m 1,0,-1
 40 -64 l 1,1,-1
 -31 -38 l 1,2,-1
 407 710 l 1,3,-1
 476 684 l 1,0,-1
EndSplineSet
EndChar

StartChar: zero
Encoding: 48 48 19
Width: 527
GlyphClass: 2
Flags: W
LayerCount: 2
Fore
SplineSet
212 -13 m 0,0,1
 144 -13 144 -13 105 16.5 c 128,-1,2
 66 46 66 46 50 122 c 0,3,4
 43 154 43 154 43 203.5 c 128,-1,5
 43 253 43 253 57 332 c 1,6,7
 88 524 88 524 155.5 602.5 c 128,-1,8
 223 681 223 681 327 681 c 0,9,10
 378 681 378 681 412 665 c 128,-1,11
 446 649 446 649 470 609 c 1,12,13
 495 565 495 565 495 494 c 128,-1,14
 495 423 495 423 484 336 c 1,15,16
 453 144 453 144 385 65.5 c 128,-1,17
 317 -13 317 -13 212 -13 c 0,0,1
312 596 m 128,-1,19
 251 596 251 596 212.5 538 c 128,-1,20
 174 480 174 480 152 335 c 0,21,22
 140 251 140 251 140 201 c 128,-1,23
 140 151 140 151 148 126 c 0,24,25
 167 72 167 72 228.5 72 c 128,-1,26
 290 72 290 72 328 129.5 c 128,-1,27
 366 187 366 187 390 335 c 1,28,29
 401 414 401 414 401 464.5 c 128,-1,30
 401 515 401 515 392 541 c 0,31,18
 373 596 373 596 312 596 c 128,-1,19
EndSplineSet
EndChar

StartChar: one
Encoding: 49 49 20
Width: 350
GlyphClass: 2
Flags: W
LayerCount: 2
Fore
SplineSet
229 0 m 1,0,-1
 136 0 l 1,1,-1
 228 585 l 1,2,-1
 74 518 l 1,3,-1
 57 585 l 1,4,-1
 255 668 l 1,5,-1
 334 668 l 1,6,-1
 229 0 l 1,0,-1
EndSplineSet
EndChar

StartChar: two
Encoding: 50 50 21
Width: 471
GlyphClass: 2
Flags: W
LayerCount: 2
Fore
SplineSet
336.5 572 m 128,-1,1
 314 596 314 596 255.5 596 c 128,-1,2
 197 596 197 596 131 571 c 1,3,-1
 120 643 l 1,4,5
 208 681 208 681 292 681 c 128,-1,6
 376 681 376 681 418 632 c 0,7,8
 450 595 450 595 450 538 c 0,9,10
 450 429 450 429 331 304 c 0,11,12
 179 146 179 146 109 81 c 1,13,-1
 404 81 l 1,14,-1
 385 0 l 1,15,-1
 -18 0 l 1,16,-1
 -6 81 l 1,17,18
 132 207 132 207 218.5 296 c 128,-1,19
 305 385 305 385 328 416 c 0,20,21
 359 459 359 459 359 503.5 c 128,-1,0
 359 548 359 548 336.5 572 c 128,-1,1
EndSplineSet
EndChar

StartChar: three
Encoding: 51 51 22
Width: 464
GlyphClass: 2
Flags: W
LayerCount: 2
Fore
SplineSet
185 325 m 2,0,-1
 137 325 l 1,1,-1
 148 393 l 1,2,-1
 195 393 l 1,3,4
 255 400 255 400 292.5 433 c 128,-1,5
 330 466 330 466 338 512 c 0,6,7
 339 520 339 520 339 528 c 0,8,9
 339 560 339 560 315.5 578.5 c 128,-1,10
 292 597 292 597 236.5 597 c 128,-1,11
 181 597 181 597 114 572 c 1,12,-1
 103 644 l 1,13,14
 194 681 194 681 275.5 681 c 128,-1,15
 357 681 357 681 398 636 c 1,16,17
 431 602 431 602 431 549 c 0,18,19
 431 485 431 485 398.5 437.5 c 128,-1,20
 366 390 366 390 322 368 c 1,21,22
 408 334 408 334 408 240 c 0,23,24
 408 222 408 222 405 202 c 0,25,26
 391 107 391 107 322.5 47 c 128,-1,27
 254 -13 254 -13 158.5 -13 c 128,-1,28
 63 -13 63 -13 -13 39 c 1,29,-1
 32 114 l 1,30,31
 108 72 108 72 167 72 c 128,-1,32
 226 72 226 72 266 108 c 1,33,34
 316 155 316 155 316 223 c 0,35,36
 316 264 316 264 286 294.5 c 128,-1,37
 256 325 256 325 185 325 c 2,0,-1
EndSplineSet
EndChar

StartChar: four
Encoding: 52 52 23
Width: 538
GlyphClass: 2
Flags: W
LayerCount: 2
Fore
SplineSet
498 190 m 1,0,-1
 385 190 l 1,1,-1
 355 0 l 1,2,-1
 266 0 l 1,3,-1
 296 190 l 1,4,-1
 8 190 l 1,5,-1
 17 248 l 1,6,-1
 357 660 l 1,7,-1
 459 660 l 1,8,-1
 395 256 l 1,9,-1
 508 256 l 1,10,-1
 498 190 l 1,0,-1
306 256 m 1,11,-1
 349 530 l 1,12,-1
 122 256 l 1,13,-1
 306 256 l 1,11,-1
EndSplineSet
EndChar

StartChar: five
Encoding: 53 53 24
Width: 470
GlyphClass: 2
Flags: W
LayerCount: 2
Fore
SplineSet
182 72 m 0,0,1
 241 72 241 72 278 112.5 c 128,-1,2
 315 153 315 153 325 220 c 0,3,4
 328 241 328 241 328 267.5 c 128,-1,5
 328 294 328 294 316 320 c 1,6,7
 296 358 296 358 239 358 c 128,-1,8
 182 358 182 358 131 311 c 1,9,-1
 78 341 l 1,10,-1
 129 668 l 1,11,-1
 459 668 l 1,12,-1
 446 587 l 1,13,-1
 200 587 l 1,14,-1
 173 414 l 1,15,16
 217 440 217 440 276 440 c 0,17,18
 350 440 350 440 392 382 c 0,19,20
 422 341 422 341 422 276 c 0,21,22
 422 252 422 252 418 224 c 0,23,24
 402 121 402 121 339 54 c 128,-1,25
 276 -13 276 -13 175.5 -13 c 128,-1,26
 75 -13 75 -13 -3 40 c 1,27,-1
 38 113 l 1,28,29
 66 97 66 97 109 84.5 c 128,-1,30
 152 72 152 72 182 72 c 0,0,1
EndSplineSet
EndChar

StartChar: six
Encoding: 54 54 25
Width: 492
GlyphClass: 2
Flags: W
LayerCount: 2
Fore
SplineSet
200 -13 m 0,0,1
 38 -13 38 -13 38 182 c 0,2,3
 38 228 38 228 47 285 c 0,4,5
 77 473 77 473 167.5 577 c 128,-1,6
 258 681 258 681 376 681 c 0,7,8
 434 681 434 681 477 660 c 1,9,-1
 444 586 l 1,10,11
 408 596 408 596 372 596 c 0,12,13
 304 596 304 596 252.5 544.5 c 128,-1,14
 201 493 201 493 169 399 c 1,15,16
 229 448 229 448 306.5 448 c 128,-1,17
 384 448 384 448 422 394 c 0,18,19
 447 357 447 357 447 293 c 0,20,21
 447 264 447 264 442 230 c 0,22,23
 425 127 425 127 361.5 57 c 128,-1,24
 298 -13 298 -13 200 -13 c 0,0,1
285 365 m 0,25,26
 207 365 207 365 144 311 c 1,27,28
 132 246 132 246 132 212 c 0,29,30
 132 119 132 119 162 90 c 0,31,32
 181 72 181 72 217 72 c 0,33,34
 269 72 269 72 303.5 114.5 c 128,-1,35
 338 157 338 157 350 230 c 0,36,37
 354 257 354 257 354 279 c 0,38,39
 354 365 354 365 285 365 c 0,25,26
EndSplineSet
EndChar

StartChar: seven
Encoding: 55 55 26
Width: 422
GlyphClass: 2
Flags: W
LayerCount: 2
Fore
SplineSet
456 615 m 1,0,-1
 300 346 l 1,1,2
 242 251 242 251 206 173.5 c 128,-1,3
 170 96 170 96 141 0 c 1,4,-1
 43 0 l 1,5,6
 88 159 88 159 192 332 c 2,7,-1
 344 587 l 1,8,-1
 68 587 l 1,9,-1
 81 668 l 1,10,-1
 464 668 l 1,11,-1
 456 615 l 1,0,-1
EndSplineSet
EndChar

StartChar: eight
Encoding: 56 56 27
Width: 503
GlyphClass: 2
Flags: W
LayerCount: 2
Fore
SplineSet
343 357 m 1,0,1
 444 307 444 307 444 217 c 0,2,3
 444 115 444 115 366 44 c 1,4,5
 305 -13 305 -13 204.5 -13 c 128,-1,6
 104 -13 104 -13 58 38 c 0,7,8
 22 77 22 77 22 136 c 0,9,10
 22 218 22 218 74 280 c 0,11,12
 113 328 113 328 169 356 c 1,13,14
 107 402 107 402 107 478 c 0,15,16
 107 495 107 495 110 513 c 0,17,18
 122 593 122 593 180 636.5 c 128,-1,19
 238 680 238 680 317.5 680 c 128,-1,20
 397 680 397 680 439 638 c 0,21,22
 472 606 472 606 472 555 c 0,23,24
 472 486 472 486 434 435 c 128,-1,25
 396 384 396 384 343 357 c 1,0,1
117 156 m 0,26,27
 117 121 117 121 141.5 96.5 c 128,-1,28
 166 72 166 72 218.5 72 c 128,-1,29
 271 72 271 72 306 102 c 0,30,31
 352 142 352 142 352 204 c 0,32,33
 352 245 352 245 322 270 c 1,34,35
 291 294 291 294 238 317 c 1,36,37
 228 320 228 320 226 322 c 1,38,39
 184 299 184 299 155 261 c 0,40,41
 117 211 117 211 117 156 c 0,26,27
364.5 579.5 m 128,-1,43
 345 597 345 597 305.5 597 c 128,-1,44
 266 597 266 597 234 578 c 0,45,46
 195 555 195 555 195 500 c 0,47,48
 195 468 195 468 214.5 436 c 128,-1,49
 234 404 234 404 274 385 c 1,50,51
 317 407 317 407 348 446 c 1,52,53
 384 494 384 494 384 528 c 128,-1,42
 384 562 384 562 364.5 579.5 c 128,-1,43
EndSplineSet
EndChar

StartChar: nine
Encoding: 57 57 28
Width: 493
GlyphClass: 2
Flags: W
LayerCount: 2
Fore
SplineSet
122 -13 m 0,0,1
 74 -13 74 -13 24 8 c 1,2,-1
 59 88 l 1,3,4
 97 72 97 72 132 72 c 0,5,6
 271 72 271 72 339 263 c 1,7,8
 269 212 269 212 194.5 212 c 128,-1,9
 120 212 120 212 82 266 c 0,10,11
 57 303 57 303 57 365 c 0,12,13
 57 395 57 395 63 430 c 0,14,15
 80 538 80 538 144 609.5 c 128,-1,16
 208 681 208 681 304 681 c 0,17,18
 467 681 467 681 467 481 c 0,19,20
 467 433 467 433 458 374 c 0,21,22
 429 192 429 192 336.5 89.5 c 128,-1,23
 244 -13 244 -13 122 -13 c 0,0,1
375 479 m 0,24,25
 375 596 375 596 290 596 c 0,26,27
 237 596 237 596 202 552 c 128,-1,28
 167 508 167 508 155 430 c 0,29,30
 151 401 151 401 151 379 c 0,31,32
 151 290 151 290 219 290 c 128,-1,33
 287 290 287 290 359 347 c 1,34,35
 375 412 375 412 375 479 c 0,24,25
EndSplineSet
EndChar

StartChar: colon
Encoding: 58 58 29
Width: 248
GlyphClass: 2
Flags: W
LayerCount: 2
Fore
SplineSet
95 117 m 128,-1,1
 120 117 120 117 134 101.5 c 128,-1,2
 148 86 148 86 148 74 c 0,3,4
 148 36 148 36 124.5 15 c 128,-1,5
 101 -6 101 -6 76 -6 c 128,-1,6
 51 -6 51 -6 37.5 10 c 128,-1,7
 24 26 24 26 24 39 c 0,8,9
 24 78 24 78 47 97.5 c 128,-1,0
 70 117 70 117 95 117 c 128,-1,1
143.5 417 m 128,-1,11
 169 417 169 417 182.5 401.5 c 128,-1,12
 196 386 196 386 196 374 c 0,13,14
 196 335 196 335 172.5 314.5 c 128,-1,15
 149 294 149 294 124 294 c 128,-1,16
 99 294 99 294 85.5 310.5 c 128,-1,17
 72 327 72 327 72 339 c 0,18,19
 72 378 72 378 95 397.5 c 128,-1,10
 118 417 118 417 143.5 417 c 128,-1,11
EndSplineSet
EndChar

StartChar: semicolon
Encoding: 59 59 30
Width: 250
GlyphClass: 2
Flags: W
LayerCount: 2
Fore
SplineSet
144 416 m 128,-1,1
 169 416 169 416 183 400.5 c 128,-1,2
 197 385 197 385 197 373 c 0,3,4
 197 335 197 335 173.5 314 c 128,-1,5
 150 293 150 293 125 293 c 128,-1,6
 100 293 100 293 86.5 309 c 128,-1,7
 73 325 73 325 73 338 c 0,8,9
 73 377 73 377 96 396.5 c 128,-1,0
 119 416 119 416 144 416 c 128,-1,1
-58 -128 m 1,10,11
 52 -20 52 -20 52 68 c 0,12,13
 52 90 52 90 45 116 c 1,14,-1
 140 116 l 1,15,16
 145 100 145 100 145 85.5 c 128,-1,17
 145 71 145 71 143 59 c 0,18,19
 125 -46 125 -46 24 -128 c 1,20,-1
 -58 -128 l 1,10,11
EndSplineSet
EndChar

StartChar: less
Encoding: 60 60 31
Width: 433
GlyphClass: 2
Flags: W
LayerCount: 2
Fore
SplineSet
32 275 m 1,0,-1
 43 345 l 1,1,-1
 411 516 l 1,2,-1
 398 431 l 1,3,-1
 139 311 l 1,4,-1
 359 189 l 1,5,-1
 346 105 l 1,6,-1
 32 275 l 1,0,-1
EndSplineSet
EndChar

StartChar: equal
Encoding: 61 61 32
Width: 466
GlyphClass: 2
Flags: W
LayerCount: 2
Fore
SplineSet
424 432 m 1,0,-1
 411 353 l 1,1,-1
 73 353 l 1,2,-1
 86 432 l 1,3,-1
 424 432 l 1,0,-1
394 240 m 1,4,-1
 381 160 l 1,5,-1
 43 160 l 1,6,-1
 56 240 l 1,7,-1
 394 240 l 1,4,-1
EndSplineSet
EndChar

StartChar: greater
Encoding: 62 62 33
Width: 433
GlyphClass: 2
Flags: W
LayerCount: 2
Fore
SplineSet
407 345 m 1,0,-1
 396 275 l 1,1,-1
 28 105 l 1,2,-1
 41 189 l 1,3,-1
 301 311 l 1,4,-1
 80 431 l 1,5,-1
 93 516 l 1,6,-1
 407 345 l 1,0,-1
EndSplineSet
EndChar

StartChar: question
Encoding: 63 63 34
Width: 338
GlyphClass: 2
Flags: W
LayerCount: 2
Fore
SplineSet
258 518 m 0,0,1
 258 553 258 553 226 576 c 0,2,3
 183 606 183 606 97 614 c 1,4,-1
 127 691 l 1,5,6
 241 686 241 686 304 633 c 0,7,8
 349 594 349 594 349 538 c 0,9,10
 349 447 349 447 266 381 c 0,11,12
 240 361 240 361 214 341 c 0,13,14
 153 294 153 294 136 225 c 1,15,-1
 125 166 l 1,16,-1
 48 166 l 1,17,18
 51 217 51 217 57 238 c 1,19,20
 68 285 68 285 98.5 324 c 128,-1,21
 129 363 129 363 160 385 c 0,22,23
 258 456 258 456 258 518 c 0,0,1
37.5 92.5 m 128,-1,25
 58 110 58 110 83.5 110 c 128,-1,26
 109 110 109 110 122 94.5 c 128,-1,27
 135 79 135 79 135 67 c 0,28,29
 135 28 135 28 111.5 7.5 c 128,-1,30
 88 -13 88 -13 63 -13 c 128,-1,31
 38 -13 38 -13 24.5 3.5 c 128,-1,32
 11 20 11 20 11 32.5 c 128,-1,33
 11 45 11 45 12 50 c 0,34,24
 17 75 17 75 37.5 92.5 c 128,-1,25
EndSplineSet
EndChar

StartChar: at
Encoding: 64 64 35
Width: 759
GlyphClass: 2
Flags: W
LayerCount: 2
Fore
SplineSet
528 125 m 0,0,1
 454 125 454 125 441 185 c 1,2,3
 420 157 420 157 388 140.5 c 128,-1,4
 356 124 356 124 322 124 c 0,5,6
 259 124 259 124 226 165 c 0,7,8
 201 195 201 195 201 243 c 0,9,10
 201 260 201 260 204 279 c 0,11,12
 220 381 220 381 288.5 445 c 128,-1,13
 357 509 357 509 445 509 c 0,14,15
 502 509 502 509 569 478 c 1,16,-1
 519 275 l 2,17,18
 518 269 518 269 516 262 c 0,19,20
 512 240 512 240 512 227 c 0,21,22
 512 190 512 190 547 190 c 0,23,24
 625 190 625 190 655 375 c 0,25,26
 660 405 660 405 660 431 c 0,27,28
 660 502 660 502 626 548 c 0,29,30
 581 610 581 610 459.5 610 c 128,-1,31
 338 610 338 610 246 524.5 c 128,-1,32
 154 439 154 439 132 298 c 0,33,34
 126 263 126 263 126 232 c 0,35,36
 126 146 126 146 170 94 c 0,37,38
 229 24 229 24 332.5 24 c 128,-1,39
 436 24 436 24 558 78 c 1,40,-1
 576 15 l 1,41,42
 423 -50 423 -50 316 -50 c 0,43,44
 177 -50 177 -50 98 39 c 0,45,46
 39 106 39 106 39 216 c 0,47,48
 39 252 39 252 45 293 c 0,49,50
 72 463 72 463 192.5 571.5 c 128,-1,51
 313 680 313 680 470.5 680 c 128,-1,52
 628 680 628 680 694 598 c 0,53,54
 743 537 743 537 743 442 c 0,55,56
 743 410 743 410 737 374 c 0,57,58
 697 125 697 125 528 125 c 0,0,1
437 447 m 0,59,60
 384 447 384 447 342 401.5 c 128,-1,61
 300 356 300 356 289 287 c 0,62,63
 286 269 286 269 286 254 c 0,64,65
 286 188 286 188 342 188 c 0,66,67
 375 188 375 188 401 215.5 c 128,-1,68
 427 243 427 243 438 286 c 2,69,-1
 475 441 l 1,70,71
 459 447 459 447 437 447 c 0,59,60
EndSplineSet
EndChar

StartChar: A
Encoding: 65 65 36
Width: 561
GlyphClass: 2
Flags: W
LayerCount: 2
Fore
SplineSet
381 172 m 1,0,-1
 146 172 l 1,1,-1
 62 0 l 1,2,-1
 -36 0 l 1,3,-1
 288 668 l 1,4,-1
 395 668 l 1,5,-1
 509 0 l 1,6,-1
 412 0 l 1,7,-1
 381 172 l 1,0,-1
371 247 m 1,8,-1
 327 577 l 1,9,-1
 180 247 l 1,10,-1
 371 247 l 1,8,-1
EndSplineSet
EndChar

StartChar: B
Encoding: 66 66 37
Width: 546
GlyphClass: 2
Flags: W
LayerCount: 2
Fore
SplineSet
397 365 m 1,0,1
 491 327 491 327 491 246 c 0,2,3
 491 119 491 119 410 52 c 0,4,5
 347 0 347 0 237 0 c 2,6,-1
 34 0 l 1,7,-1
 139 668 l 1,8,-1
 262 668 l 2,9,10
 321 668 321 668 348 667 c 0,11,12
 499 661 499 661 499 539 c 0,13,14
 499 522 499 522 496 502 c 0,15,16
 481 406 481 406 397 365 c 1,0,1
364 426 m 1,17,18
 401 463 401 463 401 531 c 0,19,20
 401 571 401 571 370 584 c 0,21,22
 349 592 349 592 329.5 594 c 128,-1,23
 310 596 310 596 271 596 c 2,24,-1
 224 596 l 1,25,-1
 192 396 l 1,26,-1
 290 396 l 1,27,28
 335 399 335 399 364 426 c 1,17,18
230 81 m 2,29,30
 372 81 372 81 391 199 c 0,31,32
 393 212 393 212 393 224 c 0,33,34
 393 266 393 266 365 290 c 1,35,36
 339 322 339 322 256 322 c 2,37,-1
 180 322 l 1,38,-1
 142 81 l 1,39,-1
 230 81 l 2,29,30
EndSplineSet
EndChar

StartChar: C
Encoding: 67 67 38
Width: 518
GlyphClass: 2
Flags: W
LayerCount: 2
Fore
SplineSet
290 -13 m 0,0,1
 49 -13 49 -13 49 231 c 0,2,3
 49 278 49 278 58 335 c 0,4,5
 86 515 86 515 172.5 598 c 128,-1,6
 259 681 259 681 388 681 c 0,7,8
 456 681 456 681 536 658 c 1,9,-1
 506 583 l 1,10,11
 441 598 441 598 390 598 c 0,12,13
 298 598 298 598 237.5 539 c 128,-1,14
 177 480 177 480 154 339 c 0,15,16
 146 290 146 290 146 251 c 0,17,18
 146 172 146 172 178 130 c 0,19,20
 224 69 224 69 322 69 c 0,21,22
 374 69 374 69 434 81 c 1,23,-1
 435 6 l 1,24,25
 354 -13 354 -13 290 -13 c 0,0,1
EndSplineSet
EndChar

StartChar: D
Encoding: 68 68 39
Width: 609
GlyphClass: 2
Flags: W
LayerCount: 2
Fore
SplineSet
225 81 m 2,0,1
 343 81 343 81 395 142 c 128,-1,2
 447 203 447 203 467 334 c 0,3,4
 475 385 475 385 475 436.5 c 128,-1,5
 475 488 475 488 456 526 c 1,6,7
 423 587 423 587 305 587 c 2,8,-1
 222 587 l 1,9,-1
 142 81 l 1,10,-1
 225 81 l 2,0,1
206 0 m 2,11,-1
 34 0 l 1,12,-1
 139 668 l 1,13,-1
 311 668 l 2,14,15
 439 668 439 668 485 641 c 1,16,17
 574 591 574 591 574 442 c 0,18,19
 574 393 574 393 564 333 c 0,20,21
 526 92 526 92 388 26 c 0,22,23
 335 0 335 0 206 0 c 2,11,-1
EndSplineSet
EndChar

StartChar: E
Encoding: 69 69 40
Width: 511
GlyphClass: 2
Flags: W
LayerCount: 2
Fore
SplineSet
142 81 m 1,0,-1
 426 81 l 1,1,-1
 414 0 l 1,2,-1
 34 0 l 1,3,-1
 139 668 l 1,4,-1
 510 668 l 1,5,-1
 497 587 l 1,6,-1
 222 587 l 1,7,-1
 190 385 l 1,8,-1
 449 385 l 1,9,-1
 437 306 l 1,10,-1
 178 306 l 1,11,-1
 142 81 l 1,0,-1
EndSplineSet
EndChar

StartChar: F
Encoding: 70 70 41
Width: 492
GlyphClass: 2
Flags: W
LayerCount: 2
Fore
SplineSet
498 587 m 1,0,-1
 222 587 l 1,1,-1
 190 384 l 1,2,-1
 448 384 l 1,3,-1
 436 304 l 1,4,-1
 178 304 l 1,5,-1
 130 0 l 1,6,-1
 34 0 l 1,7,-1
 139 668 l 1,8,-1
 511 668 l 1,9,-1
 498 587 l 1,0,-1
EndSplineSet
EndChar

StartChar: G
Encoding: 71 71 42
Width: 568
GlyphClass: 2
Flags: W
LayerCount: 2
Fore
SplineSet
150 253 m 0,0,1
 150 179 150 179 178 137 c 1,2,3
 219 72 219 72 296 72 c 0,4,5
 345 72 345 72 395 94 c 1,6,-1
 421 255 l 1,7,-1
 309 255 l 1,8,-1
 322 335 l 1,9,-1
 524 335 l 1,10,-1
 478 48 l 1,11,12
 372 -13 372 -13 276 -13 c 0,13,14
 163 -13 163 -13 100 66 c 0,15,16
 52 125 52 125 52 237 c 0,17,18
 52 282 52 282 59 336 c 1,19,20
 88 516 88 516 175.5 599 c 128,-1,21
 263 682 263 682 393 682 c 0,22,23
 467 682 467 682 547 659 c 1,24,-1
 515 584 l 1,25,26
 450 599 450 599 394 599 c 0,27,28
 302 599 302 599 241.5 540 c 128,-1,29
 181 481 181 481 158 340 c 0,30,31
 150 292 150 292 150 253 c 0,0,1
EndSplineSet
EndChar

StartChar: H
Encoding: 72 72 43
Width: 617
GlyphClass: 2
Flags: W
LayerCount: 2
Fore
SplineSet
456 384 m 1,0,-1
 501 668 l 1,1,-1
 597 668 l 1,2,-1
 492 0 l 1,3,-1
 396 0 l 1,4,-1
 444 304 l 1,5,-1
 178 304 l 1,6,-1
 130 0 l 1,7,-1
 34 0 l 1,8,-1
 139 668 l 1,9,-1
 235 668 l 1,10,-1
 190 384 l 1,11,-1
 456 384 l 1,0,-1
EndSplineSet
EndChar

StartChar: I
Encoding: 73 73 44
Width: 255
GlyphClass: 2
Flags: W
LayerCount: 2
Fore
SplineSet
235 668 m 1,0,-1
 130 0 l 1,1,-1
 34 0 l 1,2,-1
 139 668 l 1,3,-1
 235 668 l 1,0,-1
EndSplineSet
EndChar

StartChar: J
Encoding: 74 74 45
Width: 254
GlyphClass: 2
Flags: W
LayerCount: 2
Fore
SplineSet
-75 -175 m 1,0,-1
 -104 -108 l 1,1,2
 -24 -66 -24 -66 8 -15 c 128,-1,3
 40 36 40 36 54 125 c 2,4,-1
 140 668 l 1,5,-1
 236 668 l 1,6,-1
 151 127 l 2,7,8
 134 20 134 20 82.5 -55 c 128,-1,9
 31 -130 31 -130 -75 -175 c 1,0,-1
EndSplineSet
EndChar

StartChar: K
Encoding: 75 75 46
Width: 602
GlyphClass: 2
Flags: W
LayerCount: 2
Fore
SplineSet
234 668 m 1,0,-1
 129 0 l 1,1,-1
 34 0 l 1,2,-1
 139 668 l 1,3,-1
 234 668 l 1,0,-1
211 342 m 1,4,-1
 516 668 l 1,5,-1
 635 668 l 1,6,-1
 319 347 l 1,7,-1
 545 0 l 1,8,-1
 420 0 l 1,9,-1
 211 342 l 1,4,-1
EndSplineSet
EndChar

StartChar: L
Encoding: 76 76 47
Width: 441
GlyphClass: 2
Flags: W
LayerCount: 2
Fore
SplineSet
142 81 m 1,0,-1
 392 81 l 1,1,-1
 380 0 l 1,2,-1
 34 0 l 1,3,-1
 139 668 l 1,4,-1
 235 668 l 1,5,-1
 142 81 l 1,0,-1
EndSplineSet
EndChar

StartChar: M
Encoding: 77 77 48
Width: 778
GlyphClass: 2
Flags: W
LayerCount: 2
Fore
SplineSet
266 668 m 1,0,-1
 370 173 l 1,1,-1
 630 668 l 1,2,-1
 741 668 l 1,3,-1
 667 0 l 1,4,-1
 579 0 l 1,5,-1
 638 474 l 1,6,7
 642 516 642 516 651 558 c 1,8,-1
 392 73 l 1,9,-1
 316 73 l 1,10,-1
 211 558 l 1,11,12
 205 515 205 515 198 474 c 2,13,-1
 107 0 l 1,14,-1
 19 0 l 1,15,-1
 155 668 l 1,16,-1
 266 668 l 1,0,-1
EndSplineSet
EndChar

StartChar: N
Encoding: 78 78 49
Width: 660
GlyphClass: 2
Flags: W
LayerCount: 2
Fore
SplineSet
535 0 m 1,0,-1
 437 0 l 1,1,-1
 206 541 l 1,2,3
 205 510 205 510 197 457 c 2,4,-1
 125 0 l 1,5,-1
 34 0 l 1,6,-1
 139 668 l 1,7,-1
 237 668 l 1,8,-1
 468 127 l 1,9,10
 469 158 469 158 477 211 c 2,11,-1
 549 668 l 1,12,-1
 640 668 l 1,13,-1
 535 0 l 1,0,-1
EndSplineSet
EndChar

StartChar: O
Encoding: 79 79 50
Width: 619
GlyphClass: 2
Flags: W
LayerCount: 2
Fore
SplineSet
372 681 m 128,-1,1
 441 681 441 681 488.5 651.5 c 128,-1,2
 536 622 536 622 556 574 c 0,3,4
 585 506 585 506 585 423 c 0,5,6
 585 379 585 379 575 322 c 128,-1,7
 565 265 565 265 541.5 205.5 c 128,-1,8
 518 146 518 146 480.5 95.5 c 128,-1,9
 443 45 443 45 386 16 c 128,-1,10
 329 -13 329 -13 259.5 -13 c 128,-1,11
 190 -13 190 -13 143 16.5 c 128,-1,12
 96 46 96 46 76 94 c 0,13,14
 48 162 48 162 48 245 c 0,15,16
 48 289 48 289 58 346 c 128,-1,17
 68 403 68 403 92 463 c 128,-1,18
 116 523 116 523 153.5 573 c 128,-1,19
 191 623 191 623 247 652 c 128,-1,0
 303 681 303 681 372 681 c 128,-1,1
275 72 m 0,20,21
 358 72 358 72 409 145 c 128,-1,22
 460 218 460 218 478 334 c 0,23,24
 485 383 485 383 485 415 c 128,-1,25
 485 447 485 447 483 466 c 0,26,27
 478 525 478 525 446 560.5 c 128,-1,28
 414 596 414 596 358 596 c 0,29,30
 275 596 275 596 224 523.5 c 128,-1,31
 173 451 173 451 154 334 c 1,32,33
 148 287 148 287 148 255 c 128,-1,34
 148 223 148 223 150 202 c 0,35,36
 155 144 155 144 187 108 c 128,-1,37
 219 72 219 72 275 72 c 0,20,21
EndSplineSet
EndChar

StartChar: P
Encoding: 80 80 51
Width: 526
GlyphClass: 2
Flags: W
LayerCount: 2
Fore
SplineSet
528 508 m 0,0,1
 528 490 528 490 525 470 c 0,2,3
 498 305 498 305 344 270 c 0,4,5
 292 259 292 259 207 259 c 2,6,-1
 171 259 l 1,7,-1
 130 0 l 1,8,-1
 34 0 l 1,9,-1
 139 668 l 1,10,-1
 297 668 l 2,11,12
 374 668 374 668 417 655.5 c 128,-1,13
 460 643 460 643 489 612 c 0,14,15
 528 571 528 571 528 508 c 0,0,1
430 497 m 0,16,17
 430 537 430 537 408 561 c 1,18,19
 379 596 379 596 278 596 c 2,20,-1
 224 596 l 1,21,-1
 183 339 l 1,22,-1
 221 339 l 2,23,24
 331 339 331 339 368 364 c 1,25,26
 416 394 416 394 427 465 c 0,27,28
 430 482 430 482 430 497 c 0,16,17
EndSplineSet
EndChar

StartChar: Q
Encoding: 81 81 52
Width: 619
GlyphClass: 2
Flags: W
LayerCount: 2
Fore
SplineSet
75.5 95 m 128,-1,1
 55 143 55 143 51 184 c 128,-1,2
 47 225 47 225 47 257 c 128,-1,3
 47 289 47 289 57 346 c 128,-1,4
 67 403 67 403 91 463 c 128,-1,5
 115 523 115 523 152.5 573 c 128,-1,6
 190 623 190 623 246 652 c 128,-1,7
 302 681 302 681 371 681 c 128,-1,8
 440 681 440 681 487.5 651.5 c 128,-1,9
 535 622 535 622 556 574 c 1,10,11
 584 506 584 506 584 423 c 0,12,13
 584 379 584 379 575 334 c 1,14,15
 559 230 559 230 513.5 146 c 128,-1,16
 468 62 468 62 393 21 c 1,17,18
 448 15 448 15 507 -6 c 128,-1,19
 566 -27 566 -27 604 -52 c 1,20,-1
 540 -123 l 1,21,22
 530 -115 530 -115 509.5 -102 c 128,-1,23
 489 -89 489 -89 415.5 -59.5 c 128,-1,24
 342 -30 342 -30 258 -12 c 1,25,26
 190 -12 190 -12 143 17.5 c 128,-1,0
 96 47 96 47 75.5 95 c 128,-1,1
273 66 m 0,27,28
 356 66 356 66 407 140 c 128,-1,29
 458 214 458 214 477 334 c 0,30,31
 484 383 484 383 484 415 c 128,-1,32
 484 447 484 447 482 466 c 0,33,34
 477 525 477 525 445 560.5 c 128,-1,35
 413 596 413 596 357 596 c 0,36,37
 274 596 274 596 223 523.5 c 128,-1,38
 172 451 172 451 153 334 c 1,39,40
 146 283 146 283 146 250.5 c 128,-1,41
 146 218 146 218 148 198 c 0,42,43
 153 139 153 139 185 102.5 c 128,-1,44
 217 66 217 66 273 66 c 0,27,28
EndSplineSet
EndChar

StartChar: R
Encoding: 82 82 53
Width: 565
GlyphClass: 2
Flags: W
LayerCount: 2
Fore
SplineSet
528 508 m 0,0,1
 528 490 528 490 525 470 c 0,2,3
 499 309 499 309 354 273 c 1,4,-1
 500 32 l 1,5,-1
 420 -17 l 1,6,-1
 257 260 l 1,7,8
 241 259 241 259 207 259 c 2,9,-1
 171 259 l 1,10,-1
 130 0 l 1,11,-1
 34 0 l 1,12,-1
 139 668 l 1,13,-1
 297 668 l 2,14,15
 374 668 374 668 417 655.5 c 128,-1,16
 460 643 460 643 489 612 c 0,17,18
 528 571 528 571 528 508 c 0,0,1
430 497 m 0,19,20
 430 537 430 537 408 561 c 1,21,22
 379 596 379 596 278 596 c 2,23,-1
 224 596 l 1,24,-1
 183 339 l 1,25,-1
 221 339 l 2,26,27
 331 339 331 339 368 364 c 1,28,29
 416 394 416 394 427 465 c 0,30,31
 430 482 430 482 430 497 c 0,19,20
EndSplineSet
EndChar

StartChar: S
Encoding: 83 83 54
Width: 489
GlyphClass: 2
Flags: W
LayerCount: 2
Fore
SplineSet
191 -13 m 0,0,1
 140 -13 140 -13 84.5 -2 c 128,-1,2
 29 9 29 9 -3 26 c 1,3,-1
 36 111 l 1,4,5
 128 72 128 72 193 72 c 128,-1,6
 258 72 258 72 296 100 c 1,7,8
 341 135 341 135 341 187 c 0,9,10
 341 223 341 223 313 251 c 0,11,12
 281 282 281 282 192 330 c 1,13,14
 162 345 162 345 150.5 355 c 128,-1,15
 139 365 139 365 127.5 375.5 c 128,-1,16
 116 386 116 386 110.5 395 c 128,-1,17
 105 404 105 404 98.5 417.5 c 128,-1,18
 92 431 92 431 90 444.5 c 128,-1,19
 88 458 88 458 88 476 c 0,20,21
 88 578 88 578 167 635 c 0,22,23
 231 681 231 681 314 681 c 128,-1,24
 397 681 397 681 478 649 c 1,25,-1
 440 569 l 1,26,27
 367 596 367 596 309 596 c 128,-1,28
 251 596 251 596 220 572.5 c 128,-1,29
 189 549 189 549 182 508 c 0,30,31
 181 503 181 503 181 497 c 0,32,33
 181 469 181 469 206.5 444.5 c 128,-1,34
 232 420 232 420 279.5 393 c 128,-1,35
 327 366 327 366 350 350 c 0,36,37
 435 287 435 287 435 207 c 0,38,39
 435 192 435 192 433 177 c 0,40,41
 419 93 419 93 352.5 40 c 128,-1,42
 286 -13 286 -13 191 -13 c 0,0,1
EndSplineSet
EndChar

StartChar: T
Encoding: 84 84 55
Width: 474
GlyphClass: 2
Flags: W
LayerCount: 2
Fore
SplineSet
236 583 m 1,0,-1
 62 583 l 1,1,-1
 75 668 l 1,2,-1
 518 668 l 1,3,-1
 505 583 l 1,4,-1
 331 583 l 1,5,-1
 239 0 l 1,6,-1
 144 0 l 1,7,-1
 236 583 l 1,0,-1
EndSplineSet
EndChar

StartChar: U
Encoding: 85 85 56
Width: 608
GlyphClass: 2
Flags: W
LayerCount: 2
Fore
SplineSet
60 171 m 0,0,1
 60 205 60 205 67 245 c 2,2,-1
 134 668 l 1,3,-1
 230 668 l 1,4,-1
 166 259 l 2,5,6
 158 213 158 213 158 176.5 c 128,-1,7
 158 140 158 140 170 120 c 1,8,9
 189 73 189 73 267.5 73 c 128,-1,10
 346 73 346 73 384 120 c 1,11,12
 415 156 415 156 433 259 c 1,13,-1
 497 668 l 1,14,-1
 593 668 l 1,15,-1
 526 245 l 2,16,17
 507 127 507 127 453 64 c 1,18,19
 385 -11 385 -11 257 -12 c 128,-1,20
 129 -13 129 -13 84 64 c 0,21,22
 60 107 60 107 60 171 c 0,0,1
EndSplineSet
EndChar

StartChar: V
Encoding: 86 86 57
Width: 547
GlyphClass: 2
Flags: W
LayerCount: 2
Fore
SplineSet
169 668 m 1,0,-1
 243 110 l 1,1,-1
 493 668 l 1,2,-1
 597 668 l 1,3,-1
 277 0 l 1,4,-1
 175 0 l 1,5,-1
 65 668 l 1,6,-1
 169 668 l 1,0,-1
EndSplineSet
EndChar

StartChar: W
Encoding: 87 87 58
Width: 803
GlyphClass: 2
Flags: W
LayerCount: 2
Fore
SplineSet
400 618 m 1,0,-1
 506 618 l 1,1,-1
 574 110 l 1,2,-1
 734 668 l 1,3,-1
 821 668 l 1,4,-1
 627 0 l 1,5,-1
 508 0 l 1,6,-1
 442 538 l 1,7,-1
 205 0 l 1,8,-1
 85 0 l 1,9,-1
 101 668 l 1,10,-1
 188 668 l 1,11,-1
 172 110 l 1,12,-1
 400 618 l 1,0,-1
EndSplineSet
EndChar

StartChar: X
Encoding: 88 88 59
Width: 571
GlyphClass: 2
Flags: W
LayerCount: 2
Fore
SplineSet
510 0 m 1,0,-1
 394 0 l 1,1,-1
 279 268 l 1,2,-1
 80 0 l 1,3,-1
 -29 0 l 1,4,-1
 235 340 l 1,5,-1
 87 668 l 1,6,-1
 195 668 l 1,7,-1
 303 416 l 1,8,-1
 493 668 l 1,9,-1
 603 668 l 1,10,-1
 349 346 l 1,11,-1
 510 0 l 1,0,-1
EndSplineSet
EndChar

StartChar: Y
Encoding: 89 89 60
Width: 518
GlyphClass: 2
Flags: W
LayerCount: 2
Fore
SplineSet
59 668 m 1,0,-1
 167 668 l 1,1,-1
 267 353 l 1,2,-1
 471 668 l 1,3,-1
 572 668 l 1,4,-1
 303 275 l 1,5,-1
 260 0 l 1,6,-1
 164 0 l 1,7,-1
 207 275 l 1,8,-1
 59 668 l 1,0,-1
EndSplineSet
EndChar

StartChar: Z
Encoding: 90 90 61
Width: 520
GlyphClass: 2
Flags: W
LayerCount: 2
Fore
SplineSet
120 81 m 1,0,-1
 453 81 l 1,1,-1
 441 0 l 1,2,-1
 0 0 l 1,3,-1
 1 65 l 1,4,-1
 397 587 l 1,5,-1
 98 587 l 1,6,-1
 100 668 l 1,7,-1
 517 668 l 1,8,-1
 513 599 l 1,9,-1
 120 81 l 1,0,-1
EndSplineSet
EndChar

StartChar: bracketleft
Encoding: 91 91 62
Width: 301
GlyphClass: 2
Flags: W
LayerCount: 2
Fore
SplineSet
4 -141 m 1,0,-1
 148 766 l 1,1,-1
 347 766 l 1,2,-1
 336 695 l 1,3,-1
 222 689 l 1,4,-1
 102 -64 l 1,5,6
 142 -66 142 -66 214 -71 c 1,7,-1
 203 -141 l 1,8,-1
 4 -141 l 1,0,-1
EndSplineSet
EndChar

StartChar: backslash
Encoding: 92 92 63
Width: 401
GlyphClass: 2
Flags: W
LayerCount: 2
Fore
SplineSet
244 -114 m 1,0,-1
 87 737 l 1,1,-1
 165 758 l 1,2,-1
 324 -93 l 1,3,-1
 244 -114 l 1,0,-1
EndSplineSet
EndChar

StartChar: bracketright
Encoding: 93 93 64
Width: 301
GlyphClass: 2
Flags: W
LayerCount: 2
Fore
SplineSet
304 765 m 1,0,-1
 160 -141 l 1,1,-1
 -38 -141 l 1,2,-1
 -27 -70 l 1,3,-1
 86 -64 l 1,4,-1
 205 688 l 1,5,6
 164 690 164 690 94 695 c 1,7,-1
 105 765 l 1,8,-1
 304 765 l 1,0,-1
EndSplineSet
EndChar

StartChar: asciicircum
Encoding: 94 94 65
Width: 492
GlyphClass: 2
Flags: W
LayerCount: 2
Fore
SplineSet
312 641 m 1,0,-1
 382 641 l 1,1,-1
 498 297 l 1,2,-1
 412 297 l 1,3,-1
 331 543 l 1,4,-1
 173 297 l 1,5,-1
 87 297 l 1,6,-1
 312 641 l 1,0,-1
EndSplineSet
EndChar

StartChar: underscore
Encoding: 95 95 66
Width: 549
GlyphClass: 2
Flags: W
LayerCount: 2
Fore
SplineSet
455 74 m 1,0,-1
 444 0 l 1,1,-1
 18 0 l 1,2,-1
 29 74 l 1,3,-1
 455 74 l 1,0,-1
EndSplineSet
EndChar

StartChar: grave
Encoding: 96 96 67
Width: 356
GlyphClass: 2
Flags: W
LayerCount: 2
Fore
SplineSet
345 577 m 1,0,-1
 189 681 l 1,1,-1
 249 754 l 1,2,-1
 390 632 l 1,3,-1
 345 577 l 1,0,-1
EndSplineSet
EndChar

StartChar: a
Encoding: 97 97 68
Width: 485
GlyphClass: 2
Flags: W
LayerCount: 2
Fore
SplineSet
126 -13 m 0,0,1
 61 -13 61 -13 29 25 c 0,2,3
 5 54 5 54 5 98 c 0,4,5
 5 157 5 157 32 192 c 128,-1,6
 59 227 59 227 90 241 c 0,7,8
 145 266 145 266 202 266 c 128,-1,9
 259 266 259 266 308 261 c 1,10,-1
 320 339 l 2,11,12
 323 360 323 360 323 382.5 c 128,-1,13
 323 405 323 405 313 418 c 0,14,15
 297 440 297 440 242.5 440 c 128,-1,16
 188 440 188 440 107 413 c 1,17,-1
 96 476 l 1,18,19
 128 494 128 494 177 505 c 128,-1,20
 226 516 226 516 261 516 c 0,21,22
 358 516 358 516 392 474 c 0,23,24
 414 446 414 446 414 391 c 0,25,26
 414 365 414 365 409 333 c 2,27,-1
 371 90 l 2,28,29
 369 82 369 82 369 76 c 0,30,31
 369 55 369 55 389 55 c 0,32,33
 405 55 405 55 435 64 c 1,34,-1
 441 8 l 1,35,36
 403 -14 403 -14 355 -14 c 0,37,38
 295 -14 295 -14 279 37 c 1,39,40
 254 16 254 16 212 1.5 c 128,-1,41
 170 -13 170 -13 126 -13 c 0,0,1
90 116 m 0,42,43
 90 58 90 58 155 58 c 128,-1,44
 220 58 220 58 281 94 c 1,45,-1
 300 210 l 1,46,47
 276 214 276 214 222 214 c 0,48,49
 105 214 105 214 92 136 c 0,50,51
 90 125 90 125 90 116 c 0,42,43
EndSplineSet
EndChar

StartChar: b
Encoding: 98 98 69
Width: 515
GlyphClass: 2
Flags: W
LayerCount: 2
Fore
SplineSet
301 440 m 0,0,1
 239 440 239 440 173 398 c 1,2,-1
 122 79 l 1,3,4
 157 63 157 63 214 63 c 0,5,6
 340 63 340 63 372 259 c 0,7,8
 378 299 378 299 378 330 c 0,9,10
 378 440 378 440 301 440 c 0,0,1
328 516 m 0,11,12
 404 516 404 516 446 454 c 1,13,14
 474 410 474 410 474 342 c 0,15,16
 474 312 474 312 469 278 c 0,17,18
 423 -13 423 -13 201 -13 c 0,19,20
 96 -13 96 -13 25 35 c 1,21,-1
 130 700 l 1,22,-1
 220 700 l 1,23,-1
 184 469 l 1,24,25
 205 484 205 484 247 500 c 128,-1,26
 289 516 289 516 328 516 c 0,11,12
EndSplineSet
EndChar

StartChar: c
Encoding: 99 99 70
Width: 431
GlyphClass: 2
Flags: W
LayerCount: 2
Fore
SplineSet
354 9 m 1,0,1
 287 -15 287 -15 233.5 -15 c 128,-1,2
 180 -15 180 -15 142 0 c 0,3,4
 57 34 57 34 37 131 c 0,5,6
 32 157 32 157 32 187 c 128,-1,7
 32 217 32 217 37 251 c 0,8,9
 58 383 58 383 134.5 449.5 c 128,-1,10
 211 516 211 516 307 516 c 0,11,12
 375 516 375 516 427 487 c 1,13,-1
 389 423 l 1,14,15
 340 440 340 440 297 440 c 0,16,17
 238 440 238 440 191.5 395 c 128,-1,18
 145 350 145 350 129 251 c 0,19,20
 124 220 124 220 124 195 c 0,21,22
 124 62 124 62 254 62 c 0,23,24
 299 62 299 62 349 75 c 1,25,-1
 354 9 l 1,0,1
EndSplineSet
EndChar

StartChar: d
Encoding: 100 100 71
Width: 517
GlyphClass: 2
Flags: W
LayerCount: 2
Fore
SplineSet
299 516 m 0,0,1
 353 516 353 516 392 493 c 1,2,-1
 424 700 l 1,3,-1
 515 700 l 1,4,-1
 403 -8 l 1,5,-1
 332 -8 l 1,6,-1
 327 41 l 1,7,8
 256 -9 256 -9 172.5 -9 c 128,-1,9
 89 -9 89 -9 54 59 c 1,10,11
 30 103 30 103 30 153 c 128,-1,12
 30 203 30 203 37 243 c 0,13,14
 80 516 80 516 299 516 c 0,0,1
286 441 m 0,15,16
 161 441 161 441 130 244 c 0,17,18
 124 205 124 205 124 174 c 0,19,20
 124 63 124 63 203 63 c 0,21,22
 277 63 277 63 330 107 c 1,23,-1
 380 423 l 1,24,25
 341 441 341 441 286 441 c 0,15,16
EndSplineSet
EndChar

StartChar: e
Encoding: 101 101 72
Width: 473
GlyphClass: 2
Flags: W
LayerCount: 2
Fore
SplineSet
417 468 m 0,0,1
 445 433 445 433 445 380.5 c 128,-1,2
 445 328 445 328 413 253 c 1,3,-1
 119 253 l 1,4,5
 115 227 115 227 115 189 c 128,-1,6
 115 151 115 151 134 115 c 1,7,8
 160 62 160 62 230 62 c 128,-1,9
 300 62 300 62 366 90 c 1,10,-1
 379 28 l 1,11,12
 301 -13 301 -13 215 -13 c 0,13,14
 103 -13 103 -13 61 64 c 0,15,16
 32 116 32 116 32 191 c 0,17,18
 32 347 32 347 125 444 c 0,19,20
 195 516 195 516 287.5 516 c 128,-1,21
 380 516 380 516 417 468 c 0,0,1
356 318 m 1,22,23
 360 351 360 351 360 362 c 0,24,25
 360 442 360 442 288 442 c 0,26,27
 221 442 221 442 182 394 c 0,28,29
 151 356 151 356 139 320 c 1,30,-1
 356 318 l 1,22,23
EndSplineSet
EndChar

StartChar: f
Encoding: 102 102 73
Width: 353
GlyphClass: 2
Flags: W
LayerCount: 2
Fore
SplineSet
366 722 m 0,0,1
 423 722 423 722 483 704 c 1,2,-1
 452 633 l 1,3,4
 413 643 413 643 354 643 c 128,-1,5
 295 643 295 643 273.5 622 c 128,-1,6
 252 601 252 601 244 546 c 2,7,-1
 238 506 l 1,8,-1
 375 506 l 1,9,-1
 353 435 l 1,10,-1
 226 435 l 1,11,-1
 128 -186 l 1,12,-1
 38 -177 l 1,13,-1
 135 435 l 1,14,-1
 43 440 l 1,15,-1
 62 499 l 1,16,-1
 147 506 l 1,17,-1
 153 543 l 2,18,19
 168 638 168 638 215.5 680 c 128,-1,20
 263 722 263 722 366 722 c 0,0,1
EndSplineSet
EndChar

StartChar: g
Encoding: 103 103 74
Width: 481
GlyphClass: 2
Flags: W
LayerCount: 2
Fore
SplineSet
261 516 m 1,0,-1
 344 511 l 1,1,2
 419 511 419 511 502 525 c 1,3,-1
 504 469 l 1,4,5
 462 461 462 461 396 452 c 1,6,7
 418 418 418 418 418 372 c 0,8,9
 418 354 418 354 415 334 c 0,10,11
 402 254 402 254 348.5 203.5 c 128,-1,12
 295 153 295 153 208 152 c 0,13,14
 182 152 182 152 157 157 c 1,15,16
 137 122 137 122 132 99 c 1,17,18
 130 81 130 81 141 73 c 128,-1,19
 152 65 152 65 180 65 c 2,20,-1
 272 65 l 2,21,22
 344 65 344 65 375 36 c 128,-1,23
 406 7 406 7 406 -33 c 0,24,25
 406 -44 406 -44 404 -57 c 0,26,27
 392 -137 392 -137 319.5 -186.5 c 128,-1,28
 247 -236 247 -236 147.5 -236 c 128,-1,29
 48 -236 48 -236 5.5 -205 c 128,-1,30
 -37 -174 -37 -174 -37 -127 c 0,31,32
 -37 -35 -37 -35 77 20 c 1,33,34
 58 37 58 37 58 65 c 0,35,36
 58 115 58 115 114 173 c 1,37,38
 51 211 51 211 51 298 c 0,39,40
 51 316 51 316 54 334 c 0,41,42
 68 415 68 415 120.5 465.5 c 128,-1,43
 173 516 173 516 261 516 c 1,0,-1
253 447 m 0,44,45
 156 447 156 447 138 335 c 0,46,47
 135 317 135 317 135 302 c 0,48,49
 135 223 135 223 218 223 c 0,50,51
 315 223 315 223 332 334 c 0,52,53
 335 353 335 353 335 377 c 128,-1,54
 335 401 335 401 323 420 c 0,55,56
 305 447 305 447 253 447 c 0,44,45
240 -13 m 2,57,-1
 117 -13 l 1,58,59
 58 -37 58 -37 49 -94 c 0,60,61
 48 -100 48 -100 48 -105 c 0,62,63
 48 -132 48 -132 77 -148 c 128,-1,64
 106 -164 106 -164 168.5 -164 c 128,-1,65
 231 -164 231 -164 272 -137.5 c 128,-1,66
 313 -111 313 -111 320 -65 c 0,67,68
 321 -59 321 -59 321 -54 c 0,69,70
 321 -35 321 -35 305.5 -24 c 128,-1,71
 290 -13 290 -13 240 -13 c 2,57,-1
EndSplineSet
EndChar

StartChar: h
Encoding: 104 104 75
Width: 515
GlyphClass: 2
Flags: W
LayerCount: 2
Fore
SplineSet
374 379 m 0,0,1
 374 440 374 440 326 440 c 0,2,3
 288 440 288 440 244 421 c 128,-1,4
 200 402 200 402 171 373 c 1,5,-1
 112 0 l 1,6,-1
 21 0 l 1,7,-1
 131 699 l 1,8,-1
 223 707 l 1,9,-1
 182 448 l 1,10,11
 216 475 216 475 263.5 495.5 c 128,-1,12
 311 516 311 516 353 516 c 0,13,14
 428 516 428 516 450 471 c 0,15,16
 465 442 465 442 465 409 c 128,-1,17
 465 376 465 376 460 347 c 2,18,-1
 406 0 l 1,19,-1
 316 0 l 1,20,-1
 370 342 l 2,21,22
 374 362 374 362 374 379 c 0,0,1
EndSplineSet
EndChar

StartChar: i
Encoding: 105 105 76
Width: 224
GlyphClass: 2
Flags: W
LayerCount: 2
Fore
SplineSet
192 511 m 1,0,-1
 112 0 l 1,1,-1
 21 0 l 1,2,-1
 100 502 l 1,3,-1
 192 511 l 1,0,-1
177 715 m 128,-1,5
 202 715 202 715 215 699.5 c 128,-1,6
 228 684 228 684 228 672 c 0,7,8
 228 636 228 636 205 614.5 c 128,-1,9
 182 593 182 593 157 593 c 128,-1,10
 132 593 132 593 118.5 609.5 c 128,-1,11
 105 626 105 626 105 638 c 0,12,13
 105 676 105 676 128.5 695.5 c 128,-1,4
 152 715 152 715 177 715 c 128,-1,5
EndSplineSet
EndChar

StartChar: j
Encoding: 106 106 77
Width: 224
GlyphClass: 2
Flags: W
LayerCount: 2
Fore
SplineSet
192 511 m 1,0,-1
 119 46 l 2,1,2
 99 -77 99 -77 33.5 -138.5 c 128,-1,3
 -32 -200 -32 -200 -141 -210 c 1,4,-1
 -140 -138 l 1,5,6
 -62 -126 -62 -126 -23.5 -82 c 128,-1,7
 15 -38 15 -38 30 56 c 2,8,-1
 101 502 l 1,9,-1
 192 511 l 1,0,-1
179 715 m 128,-1,11
 204 715 204 715 217 699.5 c 128,-1,12
 230 684 230 684 230 672 c 0,13,14
 230 636 230 636 207 614.5 c 128,-1,15
 184 593 184 593 159 593 c 128,-1,16
 134 593 134 593 120.5 609.5 c 128,-1,17
 107 626 107 626 107 638 c 0,18,19
 107 676 107 676 130.5 695.5 c 128,-1,10
 154 715 154 715 179 715 c 128,-1,11
EndSplineSet
EndChar

StartChar: k
Encoding: 107 107 78
Width: 496
GlyphClass: 2
Flags: W
LayerCount: 2
Fore
SplineSet
224 708 m 1,0,-1
 156 281 l 1,1,-1
 381 502 l 1,2,-1
 493 502 l 1,3,-1
 252 279 l 1,4,5
 282 233 282 233 348.5 136 c 128,-1,6
 415 39 415 39 441 0 c 1,7,-1
 331 0 l 1,8,-1
 155 272 l 1,9,-1
 112 0 l 1,10,-1
 21 0 l 1,11,-1
 131 700 l 1,12,-1
 224 708 l 1,0,-1
EndSplineSet
EndChar

StartChar: l
Encoding: 108 108 79
Width: 262
GlyphClass: 2
Flags: W
LayerCount: 2
Fore
SplineSet
130 90 m 0,0,1
 130 63 130 63 159 63 c 128,-1,2
 188 63 188 63 221 73 c 1,3,-1
 226 7 l 1,4,5
 181 -13 181 -13 121 -13 c 0,6,7
 37 -13 37 -13 37 71 c 0,8,9
 37 85 37 85 39 101 c 2,10,-1
 134 700 l 1,11,-1
 225 700 l 1,12,-1
 131 102 l 2,13,14
 130 96 130 96 130 90 c 0,0,1
EndSplineSet
EndChar

StartChar: m
Encoding: 109 109 80
Width: 798
GlyphClass: 2
Flags: W
LayerCount: 2
Fore
SplineSet
658 379 m 0,0,1
 658 440 658 440 609 440 c 0,2,3
 574 440 574 440 532.5 421 c 128,-1,4
 491 402 491 402 459 377 c 1,5,6
 459 360 459 360 456 343 c 2,7,-1
 402 0 l 1,8,-1
 312 0 l 1,9,-1
 366 342 l 2,10,11
 370 362 370 362 370 379 c 0,12,13
 370 440 370 440 322 440 c 0,14,15
 284 440 284 440 241.5 421 c 128,-1,16
 199 402 199 402 170 373 c 1,17,-1
 111 0 l 1,18,-1
 21 0 l 1,19,-1
 101 506 l 1,20,-1
 176 506 l 1,21,-1
 176 445 l 1,22,23
 209 472 209 472 257.5 494 c 128,-1,24
 306 516 306 516 349 516 c 0,25,26
 441 516 441 516 457 442 c 1,27,28
 491 470 491 470 542.5 493 c 128,-1,29
 594 516 594 516 636 516 c 0,30,31
 748 516 748 516 748 399 c 0,32,33
 748 375 748 375 743 347 c 2,34,-1
 689 0 l 1,35,-1
 599 0 l 1,36,-1
 653 342 l 1,37,38
 658 362 658 362 658 379 c 0,0,1
EndSplineSet
EndChar

StartChar: n
Encoding: 110 110 81
Width: 516
GlyphClass: 2
Flags: W
LayerCount: 2
Fore
SplineSet
376 379 m 0,0,1
 376 440 376 440 327 440 c 0,2,3
 289 440 289 440 243.5 420.5 c 128,-1,4
 198 401 198 401 170 373 c 1,5,-1
 111 0 l 1,6,-1
 21 0 l 1,7,-1
 101 506 l 1,8,-1
 176 506 l 1,9,-1
 176 445 l 1,10,11
 209 472 209 472 259.5 494 c 128,-1,12
 310 516 310 516 354 516 c 0,13,14
 429 516 429 516 452 471 c 0,15,16
 466 442 466 442 466 409 c 128,-1,17
 466 376 466 376 461 347 c 2,18,-1
 407 0 l 1,19,-1
 317 0 l 1,20,-1
 371 342 l 1,21,22
 376 362 376 362 376 379 c 0,0,1
EndSplineSet
EndChar

StartChar: o
Encoding: 111 111 82
Width: 505
GlyphClass: 2
Flags: W
LayerCount: 2
Fore
SplineSet
202 -13 m 128,-1,1
 108 -13 108 -13 62 50 c 0,2,3
 31 93 31 93 31 170 c 0,4,5
 31 206 31 206 38 251 c 0,6,7
 60 388 60 388 128.5 452 c 128,-1,8
 197 516 197 516 291 516 c 128,-1,9
 385 516 385 516 430 453 c 0,10,11
 461 411 461 411 461 334 c 0,12,13
 461 297 461 297 454 252 c 0,14,15
 433 115 433 115 364.5 51 c 128,-1,0
 296 -13 296 -13 202 -13 c 128,-1,1
278 442 m 0,16,17
 160 442 160 442 130 251 c 0,18,19
 124 212 124 212 124 181 c 0,20,21
 124 61 124 61 216 61 c 0,22,23
 264 61 264 61 305 106 c 128,-1,24
 346 151 346 151 362 251 c 0,25,26
 369 298 369 298 369 338 c 0,27,28
 369 442 369 442 278 442 c 0,16,17
EndSplineSet
EndChar

StartChar: p
Encoding: 112 112 83
Width: 515
GlyphClass: 2
Flags: W
LayerCount: 2
Fore
SplineSet
216 63 m 0,0,1
 342 63 342 63 373 262 c 0,2,3
 379 301 379 301 379 332 c 0,4,5
 379 440 379 440 300 440 c 0,6,7
 244 440 244 440 173 396 c 1,8,-1
 123 77 l 1,9,10
 171 63 171 63 216 63 c 0,0,1
326 516 m 0,11,12
 416 516 416 516 451 448 c 0,13,14
 474 404 474 404 474 354 c 128,-1,15
 474 304 474 304 466 254.5 c 128,-1,16
 458 205 458 205 439.5 158 c 128,-1,17
 421 111 421 111 391 71 c 0,18,19
 328 -13 328 -13 203 -13 c 0,20,21
 152 -13 152 -13 112 7 c 1,22,-1
 77 -214 l 1,23,-1
 -15 -224 l 1,24,-1
 101 507 l 1,25,-1
 177 507 l 1,26,-1
 177 465 l 1,27,28
 250 516 250 516 326 516 c 0,11,12
EndSplineSet
EndChar

StartChar: q
Encoding: 113 113 84
Width: 514
GlyphClass: 2
Flags: W
LayerCount: 2
Fore
SplineSet
289 432 m 0,0,1
 162 432 162 432 131 246 c 0,2,3
 125 206 125 206 125 175 c 0,4,5
 125 63 125 63 204 63 c 0,6,7
 267 63 267 63 328 101 c 1,8,-1
 379 422 l 1,9,10
 346 432 346 432 289 432 c 0,0,1
317 29 m 1,11,12
 255 -13 255 -13 172 -13 c 128,-1,13
 89 -13 89 -13 54 57 c 0,14,15
 30 103 30 103 30 154 c 128,-1,16
 30 205 30 205 37 246 c 0,17,18
 80 508 80 508 301 508 c 0,19,20
 405 508 405 508 478 476 c 1,21,-1
 367 -221 l 1,22,-1
 279 -212 l 1,23,-1
 317 29 l 1,11,12
EndSplineSet
EndChar

StartChar: r
Encoding: 114 114 85
Width: 360
GlyphClass: 2
Flags: W
LayerCount: 2
Fore
SplineSet
341 516 m 0,0,1
 370 516 370 516 384 511 c 1,2,-1
 355 439 l 1,3,4
 346 440 346 440 329 440 c 0,5,6
 221 440 221 440 168 361 c 1,7,-1
 111 0 l 1,8,-1
 21 0 l 1,9,-1
 101 506 l 1,10,-1
 176 506 l 1,11,-1
 174 431 l 1,12,13
 197 461 197 461 242.5 488.5 c 128,-1,14
 288 516 288 516 341 516 c 0,0,1
EndSplineSet
EndChar

StartChar: s
Encoding: 115 115 86
Width: 410
GlyphClass: 2
Flags: W
LayerCount: 2
Fore
SplineSet
28 92 m 1,0,1
 90 63 90 63 145 63 c 128,-1,2
 200 63 200 63 228 84 c 1,3,4
 263 108 263 108 263 145 c 0,5,6
 263 192 263 192 191 220 c 0,7,8
 158 232 158 232 125 246 c 128,-1,9
 92 260 92 260 75 286.5 c 128,-1,10
 58 313 58 313 58 334 c 0,11,12
 58 425 58 425 125 476 c 0,13,14
 179 516 179 516 261 516 c 128,-1,15
 343 516 343 516 389 487 c 1,16,-1
 357 420 l 1,17,18
 303 440 303 440 253.5 440 c 128,-1,19
 204 440 204 440 178 422 c 0,20,21
 145 400 145 400 145 363 c 0,22,23
 145 317 145 317 218 291 c 0,24,25
 251 279 251 279 284 264.5 c 128,-1,26
 317 250 317 250 334.5 224 c 128,-1,27
 352 198 352 198 352 177 c 0,28,29
 352 90 352 90 284 34 c 0,30,31
 227 -13 227 -13 136 -13 c 0,32,33
 94 -13 94 -13 53.5 -2 c 128,-1,34
 13 9 13 9 -6 24 c 1,35,-1
 28 92 l 1,0,1
EndSplineSet
EndChar

StartChar: t
Encoding: 116 116 87
Width: 366
GlyphClass: 2
Flags: W
LayerCount: 2
Fore
SplineSet
193 -13 m 0,0,1
 115 -13 115 -13 96 19 c 0,2,3
 83 39 83 39 83 70 c 128,-1,4
 83 101 83 101 88 131 c 2,5,-1
 136 435 l 1,6,-1
 38 440 l 1,7,-1
 57 499 l 1,8,-1
 150 506 l 1,9,-1
 178 626 l 1,10,-1
 261 641 l 1,11,-1
 240 506 l 1,12,-1
 388 506 l 1,13,-1
 367 435 l 1,14,-1
 227 435 l 1,15,-1
 178 122 l 1,16,17
 174 107 174 107 174 97 c 128,-1,18
 174 87 174 87 176 80 c 0,19,20
 182 63 182 63 209 63 c 0,21,22
 255 63 255 63 288 74 c 1,23,-1
 295 7 l 1,24,25
 244 -13 244 -13 193 -13 c 0,0,1
EndSplineSet
EndChar

StartChar: u
Encoding: 117 117 88
Width: 514
GlyphClass: 2
Flags: W
LayerCount: 2
Fore
SplineSet
326 45 m 1,0,1
 245 -13 245 -13 162.5 -13 c 128,-1,2
 80 -13 80 -13 55 32 c 0,3,4
 39 61 39 61 39 96 c 128,-1,5
 39 131 39 131 43 159 c 2,6,-1
 98 506 l 1,7,-1
 188 506 l 1,8,-1
 133 161 l 2,9,10
 129 139 129 139 129 120 c 128,-1,11
 129 101 129 101 134 88 c 0,12,13
 144 64 144 64 188 64 c 0,14,15
 271 64 271 64 329 111 c 1,16,-1
 391 503 l 1,17,-1
 481 503 l 1,18,-1
 400 -9 l 1,19,-1
 327 -9 l 1,20,-1
 326 45 l 1,0,1
EndSplineSet
EndChar

StartChar: v
Encoding: 118 118 89
Width: 458
GlyphClass: 2
Flags: W
LayerCount: 2
Fore
SplineSet
380 505 m 1,0,-1
 473 505 l 1,1,-1
 232 0 l 1,2,-1
 131 0 l 1,3,-1
 50 506 l 1,4,-1
 147 506 l 1,5,-1
 196 90 l 1,6,-1
 380 505 l 1,0,-1
EndSplineSet
EndChar

StartChar: w
Encoding: 119 119 90
Width: 685
GlyphClass: 2
Flags: W
LayerCount: 2
Fore
SplineSet
356 395 m 1,0,-1
 197 0 l 1,1,-1
 105 0 l 1,2,-1
 54 506 l 1,3,-1
 144 506 l 1,4,-1
 169 101 l 1,5,-1
 332 501 l 1,6,-1
 415 506 l 1,7,-1
 450 101 l 1,8,-1
 605 506 l 1,9,-1
 695 506 l 1,10,-1
 484 0 l 1,11,-1
 392 0 l 1,12,-1
 356 395 l 1,0,-1
EndSplineSet
EndChar

StartChar: x
Encoding: 120 120 91
Width: 479
GlyphClass: 2
Flags: W
LayerCount: 2
Fore
SplineSet
483 506 m 1,0,-1
 285 267 l 1,1,-1
 418 0 l 1,2,-1
 315 0 l 1,3,-1
 226 202 l 1,4,-1
 74 0 l 1,5,-1
 -31 0 l 1,6,-1
 191 268 l 1,7,-1
 68 506 l 1,8,-1
 173 506 l 1,9,-1
 249 333 l 1,10,-1
 383 506 l 1,11,-1
 483 506 l 1,0,-1
EndSplineSet
EndChar

StartChar: y
Encoding: 121 121 92
Width: 472
GlyphClass: 2
Flags: W
LayerCount: 2
Fore
SplineSet
-20 -143 m 0,0,1
 35 -143 35 -143 74 -112 c 128,-1,2
 113 -81 113 -81 152 -2 c 1,3,-1
 47 500 l 1,4,-1
 143 506 l 1,5,-1
 209 95 l 1,6,-1
 392 506 l 1,7,-1
 486 506 l 1,8,-1
 241 10 l 1,9,10
 184 -108 184 -108 124 -159.5 c 128,-1,11
 64 -211 64 -211 -18 -211 c 0,12,13
 -50 -211 -50 -211 -84 -204 c 1,14,-1
 -63 -140 l 1,15,16
 -47 -143 -47 -143 -20 -143 c 0,0,1
EndSplineSet
EndChar

StartChar: z
Encoding: 122 122 93
Width: 436
GlyphClass: 2
Flags: W
LayerCount: 2
Fore
SplineSet
-7 0 m 1,0,-1
 -7 58 l 1,1,-1
 306 432 l 1,2,-1
 80 432 l 1,3,-1
 82 506 l 1,4,-1
 415 506 l 1,5,-1
 415 444 l 1,6,-1
 101 74 l 1,7,-1
 362 74 l 1,8,-1
 361 0 l 1,9,-1
 -7 0 l 1,0,-1
EndSplineSet
EndChar

StartChar: braceleft
Encoding: 123 123 94
Width: 349
GlyphClass: 2
Flags: W
LayerCount: 2
Fore
SplineSet
82 233 m 0,0,1
 82 275 82 275 59 276 c 1,2,-1
 29 276 l 1,3,-1
 40 346 l 1,4,-1
 69 346 l 1,5,6
 103 350 103 350 116 434 c 1,7,-1
 147 591 l 2,8,9
 162 665 162 665 212 709.5 c 128,-1,10
 262 754 262 754 323 754 c 2,11,-1
 396 754 l 1,12,-1
 384 680 l 1,13,-1
 304 680 l 1,14,15
 273 677 273 677 252.5 647 c 128,-1,16
 232 617 232 617 228 590 c 2,17,-1
 205 456 l 1,18,19
 184 347 184 347 144 310 c 1,20,21
 164 291 164 291 164 245.5 c 128,-1,22
 164 200 164 200 156.5 152 c 128,-1,23
 149 104 149 104 148 90 c 1,24,25
 142 59 142 59 140 39 c 128,-1,26
 138 19 138 19 138 5 c 128,-1,27
 138 -9 138 -9 146 -31 c 0,28,29
 156 -61 156 -61 187 -62 c 1,30,-1
 262 -62 l 1,31,-1
 250 -134 l 1,32,-1
 182 -134 l 2,33,34
 116 -134 116 -134 82 -91 c 0,35,36
 55 -57 55 -57 55 -4 c 0,37,38
 55 15 55 15 76 179 c 1,39,40
 82 211 82 211 82 233 c 0,0,1
EndSplineSet
EndChar

StartChar: bar
Encoding: 124 124 95
Width: 233
GlyphClass: 2
Flags: W
LayerCount: 2
Fore
SplineSet
22 -42 m 1,0,-1
 138 694 l 1,1,-1
 223 694 l 1,2,-1
 107 -42 l 1,3,-1
 22 -42 l 1,0,-1
EndSplineSet
EndChar

StartChar: braceright
Encoding: 125 125 96
Width: 349
GlyphClass: 2
Flags: W
LayerCount: 2
Fore
SplineSet
32 -134 m 2,0,-1
 -35 -134 l 1,1,-1
 -23 -62 l 1,2,-1
 51 -62 l 1,3,4
 82 -61 82 -61 102.5 -31 c 128,-1,5
 123 -1 123 -1 129 37 c 0,6,7
 139 99 139 99 150 154 c 1,8,9
 173 284 173 284 213 310 c 1,10,11
 192 332 192 332 192 388 c 0,12,13
 192 417 192 417 197 447 c 0,14,15
 217 583 217 583 217 604.5 c 128,-1,16
 217 626 217 626 210 648 c 1,17,18
 199 677 199 677 168 680 c 1,19,-1
 88 680 l 1,20,-1
 100 754 l 1,21,-1
 173 754 l 2,22,23
 234 754 234 754 266 714 c 128,-1,24
 298 674 298 674 298 618 c 0,25,26
 298 598 298 598 286 504 c 128,-1,27
 274 410 274 410 274 392 c 0,28,29
 274 349 274 349 297 346 c 1,30,-1
 326 346 l 1,31,-1
 315 276 l 1,32,-1
 284 276 l 1,33,34
 252 272 252 272 238 179 c 0,35,36
 231 136 231 136 225.5 113 c 128,-1,37
 220 90 220 90 218 76 c 0,38,39
 211 40 211 40 207 25 c 1,40,41
 194 -48 194 -48 146 -91 c 128,-1,42
 98 -134 98 -134 32 -134 c 2,0,-1
EndSplineSet
EndChar

StartChar: asciitilde
Encoding: 126 126 97
Width: 580
GlyphClass: 2
Flags: W
LayerCount: 2
Fore
SplineSet
314 325 m 1,0,1
 380 294 380 294 409 294 c 128,-1,2
 438 294 438 294 486 351 c 1,3,-1
 535 306 l 1,4,5
 463 209 463 209 387 209 c 0,6,7
 339 209 339 209 275 242.5 c 128,-1,8
 211 276 211 276 171 276 c 0,9,10
 141 276 141 276 93 219 c 1,11,-1
 44 264 l 1,12,13
 116 361 116 361 192 361 c 0,14,15
 244 361 244 361 314 325 c 1,0,1
EndSplineSet
EndChar

StartChar: exclamdown
Encoding: 161 161 100
Width: 228
GlyphClass: 2
Flags: W
LayerCount: 2
Fore
SplineSet
159 338 m 1,0,-1
 89 -178 l 1,1,-1
 -9 -178 l 1,2,-1
 83 338 l 1,3,-1
 159 338 l 1,0,-1
133 405 m 128,-1,5
 108 405 108 405 94 420.5 c 128,-1,6
 80 436 80 436 80 448 c 0,7,8
 80 486 80 486 103.5 507 c 128,-1,9
 127 528 127 528 152 528 c 128,-1,10
 177 528 177 528 190.5 512 c 128,-1,11
 204 496 204 496 204 483 c 0,12,13
 204 444 204 444 181 424.5 c 128,-1,4
 158 405 158 405 133 405 c 128,-1,5
EndSplineSet
EndChar

StartChar: cent
Encoding: 162 162 101
Width: 441
GlyphClass: 2
Flags: W
LayerCount: 2
Fore
SplineSet
405 501 m 1,0,1
 350 526 350 526 297 526 c 128,-1,2
 244 526 244 526 197 481 c 128,-1,3
 150 436 150 436 135 337 c 0,4,5
 130 306 130 306 130 281 c 0,6,7
 130 226 130 226 152 194 c 1,8,9
 185 149 185 149 239.5 149 c 128,-1,10
 294 149 294 149 365 182 c 1,11,-1
 381 120 l 1,12,13
 322 85 322 85 261 75 c 1,14,-1
 249 -32 l 1,15,-1
 179 -32 l 1,16,-1
 201 74 l 1,17,18
 116 84 116 84 70 150 c 0,19,20
 37 197 37 197 37 271 c 0,21,22
 37 302 37 302 43 337 c 0,23,24
 62 459 62 459 129.5 525 c 128,-1,25
 197 591 197 591 285 600 c 1,26,-1
 297 709 l 1,27,-1
 367 709 l 1,28,-1
 345 600 l 1,29,30
 400 592 400 592 442 567 c 1,31,-1
 405 501 l 1,0,1
EndSplineSet
EndChar

StartChar: sterling
Encoding: 163 163 102
Width: 488
GlyphClass: 2
Flags: W
LayerCount: 2
Fore
SplineSet
117 384 m 1,0,1
 113 409 113 409 113 437 c 0,2,3
 113 569 113 569 192 632 c 0,4,5
 252 681 252 681 334.5 681 c 128,-1,6
 417 681 417 681 494 647 c 1,7,-1
 455 574 l 1,8,9
 394 604 394 604 338.5 604 c 128,-1,10
 283 604 283 604 251 576 c 0,11,12
 207 539 207 539 207 454 c 0,13,14
 207 422 207 422 213 384 c 1,15,-1
 339 384 l 1,16,-1
 337 312 l 1,17,-1
 225 312 l 1,18,19
 226 297 226 297 226 274 c 0,20,21
 226 176 226 176 155 81 c 1,22,-1
 423 81 l 1,23,-1
 411 0 l 1,24,-1
 21 0 l 1,25,-1
 32 74 l 1,26,27
 71 94 71 94 97.5 138.5 c 128,-1,28
 124 183 124 183 129.5 217.5 c 128,-1,29
 135 252 135 252 135 271.5 c 128,-1,30
 135 291 135 291 132 312 c 1,31,-1
 42 312 l 1,32,-1
 53 384 l 1,33,-1
 117 384 l 1,0,1
EndSplineSet
EndChar

StartChar: currency
Encoding: 164 164 103
Width: 526
GlyphClass: 2
Flags: W
LayerCount: 2
Fore
SplineSet
423 388 m 1,0,1
 460 344 460 344 460 278 c 0,2,3
 460 264 460 264 458 250 c 0,4,5
 445 172 445 172 383 116 c 1,6,7
 437 29 437 29 441 23 c 1,8,-1
 382 -18 l 1,9,-1
 325 78 l 1,10,11
 283 57 283 57 230 57 c 128,-1,12
 177 57 177 57 137 81 c 1,13,14
 120 64 120 64 44 -18 c 1,15,-1
 -3 23 l 1,16,-1
 91 122 l 1,17,18
 62 161 62 161 62 215 c 0,19,20
 62 312 62 312 137 383 c 1,21,22
 131 393 131 393 77 477 c 1,23,-1
 137 518 l 1,24,-1
 195 423 l 1,25,26
 244 444 244 444 290.5 444 c 128,-1,27
 337 444 337 444 373 425 c 1,28,29
 416 473 416 473 461 518 c 1,30,-1
 506 477 l 1,31,-1
 423 388 l 1,0,1
137 228 m 0,32,33
 137 189 137 189 162.5 157.5 c 128,-1,34
 188 126 188 126 241.5 126 c 128,-1,35
 295 126 295 126 336 162 c 0,36,37
 386 206 386 206 386 272 c 0,38,39
 386 311 386 311 360.5 343.5 c 128,-1,40
 335 376 335 376 282 376 c 128,-1,41
 229 376 229 376 188 340 c 0,42,43
 137 294 137 294 137 228 c 0,32,33
EndSplineSet
EndChar

StartChar: yen
Encoding: 165 165 104
Width: 566
GlyphClass: 2
Flags: W
LayerCount: 2
Fore
SplineSet
45 125 m 1,0,-1
 55 189 l 1,1,-1
 216 189 l 1,2,-1
 226 248 l 1,3,-1
 65 248 l 1,4,-1
 75 312 l 1,5,-1
 216 312 l 1,6,-1
 82 668 l 1,7,-1
 190 668 l 1,8,-1
 290 353 l 1,9,-1
 494 668 l 1,10,-1
 595 668 l 1,11,-1
 351 312 l 1,12,-1
 505 312 l 1,13,-1
 495 248 l 1,14,-1
 322 248 l 1,15,-1
 312 189 l 1,16,-1
 485 189 l 1,17,-1
 475 125 l 1,18,-1
 302 125 l 1,19,-1
 283 0 l 1,20,-1
 187 0 l 1,21,-1
 206 125 l 1,22,-1
 45 125 l 1,0,-1
EndSplineSet
EndChar

StartChar: brokenbar
Encoding: 166 166 105
Width: 236
GlyphClass: 2
Flags: W
LayerCount: 2
Fore
SplineSet
94 410 m 1,0,-1
 139 694 l 1,1,-1
 224 694 l 1,2,-1
 179 410 l 1,3,-1
 94 410 l 1,0,-1
22 -45 m 1,4,-1
 68 243 l 1,5,-1
 153 243 l 1,6,-1
 107 -45 l 1,7,-1
 22 -45 l 1,4,-1
EndSplineSet
EndChar

StartChar: section
Encoding: 167 167 106
Width: 364
GlyphClass: 2
Flags: W
LayerCount: 2
Fore
SplineSet
210 34 m 1,0,1
 221 9 221 9 221 -16 c 0,2,3
 221 -120 221 -120 140 -178 c 0,4,5
 85 -218 85 -218 21 -228 c 1,6,-1
 15 -159 l 1,7,-1
 50 -149 l 1,8,9
 100 -133 100 -133 122 -98 c 0,10,11
 136 -75 136 -75 136 -55.5 c 128,-1,12
 136 -36 136 -36 127.5 -6 c 128,-1,13
 119 24 119 24 78.5 101.5 c 128,-1,14
 38 179 38 179 25 219 c 1,15,16
 20 241 20 241 20 262 c 0,17,18
 20 316 20 316 49.5 360 c 128,-1,19
 79 404 79 404 136 432 c 1,20,-1
 130 453 l 1,21,22
 127 475 127 475 127 491.5 c 128,-1,23
 127 508 127 508 129 519 c 0,24,25
 147 638 147 638 278 682 c 0,26,27
 299 689 299 689 325 695 c 1,28,-1
 330 625 l 1,29,-1
 296 615 l 1,30,31
 209 586 209 586 209 518 c 0,32,33
 209 476 209 476 258.5 382.5 c 128,-1,34
 308 289 308 289 321 248 c 0,35,36
 327 226 327 226 327 204 c 0,37,38
 327 152 327 152 294 103 c 0,39,40
 266 62 266 62 210 34 c 1,0,1
185 91 m 1,41,42
 243 118 243 118 243 182 c 0,43,44
 243 196 243 196 239 210 c 0,45,46
 227 256 227 256 161 375 c 1,47,48
 104 346 104 346 104 282 c 0,49,50
 104 234 104 234 164 130 c 0,51,52
 179 103 179 103 185 91 c 1,41,42
EndSplineSet
EndChar

StartChar: dieresis
Encoding: 168 168 107
Width: 325
GlyphClass: 2
Flags: W
LayerCount: 2
Fore
SplineSet
190.5 707 m 128,-1,1
 213 707 213 707 225.5 693 c 128,-1,2
 238 679 238 679 238 668 c 0,3,4
 238 634 238 634 217 615 c 128,-1,5
 196 596 196 596 173 596 c 128,-1,6
 150 596 150 596 138 611 c 128,-1,7
 126 626 126 626 126 637 c 0,8,9
 126 672 126 672 147 689.5 c 128,-1,0
 168 707 168 707 190.5 707 c 128,-1,1
355 707 m 128,-1,11
 378 707 378 707 390.5 693 c 128,-1,12
 403 679 403 679 403 668 c 0,13,14
 403 634 403 634 382 615 c 128,-1,15
 361 596 361 596 338 596 c 128,-1,16
 315 596 315 596 303 611 c 128,-1,17
 291 626 291 626 291 637 c 0,18,19
 291 672 291 672 311.5 689.5 c 128,-1,10
 332 707 332 707 355 707 c 128,-1,11
EndSplineSet
EndChar

StartChar: copyright
Encoding: 169 169 108
Width: 730
GlyphClass: 2
Flags: W
LayerCount: 2
Fore
SplineSet
479 414 m 1,0,1
 445 438 445 438 400.5 438 c 128,-1,2
 356 438 356 438 320.5 404 c 128,-1,3
 285 370 285 370 274 298 c 0,4,5
 270 274 270 274 270 244.5 c 128,-1,6
 270 215 270 215 286 192 c 0,7,8
 311 157 311 157 355 157 c 128,-1,9
 399 157 399 157 450 184 c 1,10,-1
 464 135 l 1,11,12
 405 98 405 98 338.5 98 c 128,-1,13
 272 98 272 98 230 148 c 0,14,15
 200 185 200 185 200 247 c 0,16,17
 200 271 200 271 204 298 c 0,18,19
 219 397 219 397 277 447.5 c 128,-1,20
 335 498 335 498 401.5 498 c 128,-1,21
 468 498 468 498 511 466 c 1,22,-1
 479 414 l 1,0,1
317 -18 m 128,-1,24
 183 -18 183 -18 104 75 c 0,25,26
 43 148 43 148 43 247 c 0,27,28
 43 274 43 274 47 302 c 0,29,30
 69 436 69 436 176.5 529 c 128,-1,31
 284 622 284 622 418 622 c 128,-1,32
 552 622 552 622 630 529 c 0,33,34
 692 456 692 456 692 359 c 0,35,36
 692 331 692 331 687 302 c 0,37,38
 666 168 666 168 558.5 75 c 128,-1,23
 451 -18 451 -18 317 -18 c 128,-1,24
616 352 m 0,39,40
 616 429 616 429 572 484 c 1,41,42
 513 555 513 555 407 555 c 128,-1,43
 301 555 301 555 219.5 482.5 c 128,-1,44
 138 410 138 410 121 300 c 0,45,46
 117 275 117 275 117 252 c 0,47,48
 117 174 117 174 162 118 c 0,49,50
 221 45 221 45 327 45 c 128,-1,51
 433 45 433 45 514 118.5 c 128,-1,52
 595 192 595 192 612 302 c 0,53,54
 616 328 616 328 616 352 c 0,39,40
EndSplineSet
EndChar

StartChar: ordfeminine
Encoding: 170 170 109
Width: 340
GlyphClass: 2
Flags: W
LayerCount: 2
Fore
SplineSet
228 433 m 1,0,1
 193 404 193 404 148.5 404 c 128,-1,2
 104 404 104 404 88 423 c 128,-1,3
 72 442 72 442 72 467 c 0,4,5
 72 475 72 475 73 484 c 0,6,7
 81 529 81 529 114.5 546.5 c 128,-1,8
 148 564 148 564 180.5 564 c 128,-1,9
 213 564 213 564 240 560 c 1,10,-1
 247 601 l 2,11,12
 249 612 249 612 249 624.5 c 128,-1,13
 249 637 249 637 241.5 646.5 c 128,-1,14
 234 656 234 656 205.5 656 c 128,-1,15
 177 656 177 656 129 640 c 1,16,-1
 122 678 l 1,17,18
 161 702 161 702 216.5 702 c 128,-1,19
 272 702 272 702 291 678 c 0,20,21
 304 662 304 662 304 639 c 128,-1,22
 304 616 304 616 301 598 c 2,23,-1
 280 463 l 2,24,25
 278 446 278 446 288 446 c 0,26,27
 292 446 292 446 314 452 c 1,28,-1
 320 417 l 1,29,30
 299 404 299 404 265 404 c 128,-1,31
 231 404 231 404 225 433 c 1,32,-1
 228 433 l 1,0,1
196 531 m 0,33,34
 123 531 123 531 123 478 c 0,35,36
 123 448 123 448 158 448 c 128,-1,37
 193 448 193 448 225 467 c 1,38,-1
 235 529 l 1,39,40
 227 531 227 531 196 531 c 0,33,34
EndSplineSet
EndChar

StartChar: guillemotleft
Encoding: 171 171 110
Width: 530
GlyphClass: 2
Flags: W
LayerCount: 2
Fore
SplineSet
512 462 m 1,0,-1
 339 308 l 1,1,-1
 463 155 l 1,2,-1
 397 104 l 1,3,-1
 254 284 l 1,4,-1
 262 332 l 1,5,-1
 462 512 l 1,6,-1
 512 462 l 1,0,-1
302 462 m 1,7,-1
 128 308 l 1,8,-1
 253 155 l 1,9,-1
 187 104 l 1,10,-1
 44 284 l 1,11,-1
 52 332 l 1,12,-1
 252 512 l 1,13,-1
 302 462 l 1,7,-1
EndSplineSet
EndChar

StartChar: logicalnot
Encoding: 172 172 111
Width: 505
GlyphClass: 2
Flags: W
LayerCount: 2
Fore
SplineSet
74 432 m 1,0,-1
 462 432 l 1,1,-1
 431 236 l 1,2,-1
 352 236 l 1,3,-1
 370 353 l 1,4,-1
 61 353 l 1,5,-1
 74 432 l 1,0,-1
EndSplineSet
EndChar

StartChar: uni00AD
Encoding: 173 173 112
Width: 430
GlyphClass: 2
Flags: W
LayerCount: 2
Fore
SplineSet
371 318 m 1,0,-1
 358 239 l 1,1,-1
 55 239 l 1,2,-1
 68 318 l 1,3,-1
 371 318 l 1,0,-1
EndSplineSet
EndChar

StartChar: registered
Encoding: 174 174 113
Width: 730
GlyphClass: 2
Flags: W
LayerCount: 2
Fore
SplineSet
317 -18 m 128,-1,1
 183 -18 183 -18 104 75 c 0,2,3
 43 148 43 148 43 247 c 0,4,5
 43 274 43 274 47 302 c 0,6,7
 69 436 69 436 176.5 529 c 128,-1,8
 284 622 284 622 418 622 c 128,-1,9
 552 622 552 622 630 529 c 0,10,11
 692 456 692 456 692 359 c 0,12,13
 692 331 692 331 687 302 c 0,14,15
 666 168 666 168 558.5 75 c 128,-1,0
 451 -18 451 -18 317 -18 c 128,-1,1
616 352 m 0,16,17
 616 429 616 429 572 484 c 1,18,19
 513 555 513 555 407 555 c 128,-1,20
 301 555 301 555 219.5 482.5 c 128,-1,21
 138 410 138 410 121 300 c 0,22,23
 117 275 117 275 117 252 c 0,24,25
 117 174 117 174 162 118 c 0,26,27
 221 45 221 45 327 45 c 128,-1,28
 433 45 433 45 514 118.5 c 128,-1,29
 595 192 595 192 612 302 c 0,30,31
 616 328 616 328 616 352 c 0,16,17
371 497 m 2,32,33
 506 497 506 497 506 404 c 0,34,35
 506 393 506 393 504 381 c 0,36,37
 494 319 494 319 452 289 c 0,38,39
 435 276 435 276 416 270 c 1,40,41
 418 264 418 264 449.5 212 c 128,-1,42
 481 160 481 160 498 136 c 1,43,-1
 451 105 l 1,44,45
 400 172 400 172 357 260 c 1,46,47
 331 258 331 258 317 258 c 2,48,-1
 296 258 l 1,49,-1
 273 111 l 1,50,-1
 214 111 l 1,51,-1
 275 497 l 1,52,-1
 371 497 l 2,32,33
443 396 m 0,53,54
 443 424 443 424 424 438 c 128,-1,55
 405 452 405 452 356 452 c 2,56,-1
 327 452 l 1,57,-1
 304 305 l 1,58,-1
 324 305 l 2,59,60
 387 305 387 305 408 321 c 1,61,62
 435 338 435 338 442 379 c 0,63,64
 443 388 443 388 443 396 c 0,53,54
EndSplineSet
EndChar

StartChar: macron
Encoding: 175 175 114
Width: 577
GlyphClass: 2
Flags: W
LayerCount: 2
Fore
SplineSet
620 670 m 1,0,-1
 607 591 l 1,1,-1
 156 591 l 1,2,-1
 169 670 l 1,3,-1
 620 670 l 1,0,-1
EndSplineSet
EndChar

StartChar: degree
Encoding: 176 176 115
Width: 325
GlyphClass: 2
Flags: W
LayerCount: 2
Fore
SplineSet
193 510 m 128,-1,1
 134 510 134 510 110 544 c 0,2,3
 91 571 91 571 91 607 c 0,4,5
 91 671 91 671 133 711 c 128,-1,6
 175 751 175 751 234 751 c 128,-1,7
 293 751 293 751 315.5 720.5 c 128,-1,8
 338 690 338 690 338 654 c 0,9,10
 338 591 338 591 295 550.5 c 128,-1,0
 252 510 252 510 193 510 c 128,-1,1
158 615 m 0,11,12
 158 570 158 570 203 570 c 0,13,14
 232 570 232 570 249 588 c 0,15,16
 271 613 271 613 271 645 c 0,17,18
 271 661 271 661 262 675.5 c 128,-1,19
 253 690 253 690 224.5 690 c 128,-1,20
 196 690 196 690 180 672 c 1,21,22
 158 650 158 650 158 615 c 0,11,12
EndSplineSet
EndChar

StartChar: plusminus
Encoding: 177 177 116
Width: 493
GlyphClass: 2
Flags: W
LayerCount: 2
Fore
SplineSet
263 142 m 1,0,-1
 183 142 l 1,1,-1
 207 295 l 1,2,-1
 55 295 l 1,3,-1
 68 376 l 1,4,-1
 220 376 l 1,5,-1
 244 526 l 1,6,-1
 324 526 l 1,7,-1
 300 376 l 1,8,-1
 452 376 l 1,9,-1
 439 295 l 1,10,-1
 287 295 l 1,11,-1
 263 142 l 1,0,-1
405 80 m 1,12,-1
 393 0 l 1,13,-1
 9 0 l 1,14,-1
 21 80 l 1,15,-1
 405 80 l 1,12,-1
EndSplineSet
EndChar

StartChar: twosuperior
Encoding: 178 178 117
Width: 334
GlyphClass: 2
Flags: W
LayerCount: 2
Fore
SplineSet
241.5 558 m 128,-1,1
 247 569 247 569 248 577.5 c 128,-1,2
 249 586 249 586 249 599.5 c 128,-1,3
 249 613 249 613 237.5 625.5 c 128,-1,4
 226 638 226 638 191.5 638 c 128,-1,5
 157 638 157 638 121 620 c 1,6,-1
 109 671 l 1,7,8
 172 700 172 700 226.5 700 c 128,-1,9
 281 700 281 700 306 669 c 1,10,11
 323 646 323 646 323 612 c 0,12,13
 323 599 323 599 321 585 c 0,14,15
 313 534 313 534 250 463 c 1,16,17
 168 374 168 374 141 348 c 1,18,-1
 300 348 l 1,19,-1
 290 286 l 1,20,-1
 33 286 l 1,21,-1
 42 342 l 1,22,23
 94 390 94 390 128 425.5 c 128,-1,24
 162 461 162 461 177 476.5 c 128,-1,25
 192 492 192 492 197 498 c 128,-1,26
 202 504 202 504 214 517.5 c 128,-1,27
 226 531 226 531 231 539 c 128,-1,0
 236 547 236 547 241.5 558 c 128,-1,1
EndSplineSet
EndChar

StartChar: threesuperior
Encoding: 179 179 118
Width: 313
GlyphClass: 2
Flags: W
LayerCount: 2
Fore
SplineSet
310 619 m 0,0,1
 310 547 310 547 247 513 c 1,2,3
 296 491 296 491 296 437 c 0,4,5
 296 365 296 365 242 318 c 0,6,7
 200 281 200 281 141 281 c 128,-1,8
 82 281 82 281 31 316 c 1,9,-1
 64 368 l 1,10,11
 105 342 105 342 141.5 342 c 128,-1,12
 178 342 178 342 198 362 c 1,13,14
 225 387 225 387 225 425 c 0,15,16
 225 446 225 446 208.5 462.5 c 128,-1,17
 192 479 192 479 155 479 c 2,18,-1
 123 479 l 1,19,-1
 132 534 l 1,20,-1
 163 534 l 1,21,22
 194 535 194 535 214 553 c 0,23,24
 238 575 238 575 238 606 c 0,25,26
 238 642 238 642 194 642 c 128,-1,27
 150 642 150 642 109 624 c 1,28,-1
 100 674 l 1,29,30
 161 702 161 702 212 702 c 128,-1,31
 263 702 263 702 286.5 677 c 128,-1,32
 310 652 310 652 310 619 c 0,0,1
EndSplineSet
EndChar

StartChar: acute
Encoding: 180 180 119
Width: 356
GlyphClass: 2
Flags: W
LayerCount: 2
Fore
SplineSet
386 681 m 1,0,-1
 198 577 l 1,1,-1
 171 632 l 1,2,-1
 350 754 l 1,3,-1
 386 681 l 1,0,-1
EndSplineSet
EndChar

StartChar: mu
Encoding: 181 181 120
Width: 559
GlyphClass: 2
Flags: W
LayerCount: 2
Fore
SplineSet
140 161 m 2,0,1
 136 139 136 139 136 120 c 128,-1,2
 136 101 136 101 142 88 c 1,3,4
 151 64 151 64 195 64 c 0,5,6
 278 64 278 64 336 111 c 1,7,-1
 399 506 l 1,8,-1
 489 506 l 1,9,-1
 423 90 l 2,10,11
 421 82 421 82 421 76 c 0,12,13
 421 55 421 55 441 55 c 0,14,15
 457 55 457 55 487 64 c 1,16,-1
 493 8 l 1,17,18
 455 -14 455 -14 407 -14 c 0,19,20
 342 -14 342 -14 333 49 c 1,21,22
 301 23 301 23 256 5 c 128,-1,23
 211 -13 211 -13 173 -13 c 128,-1,24
 135 -13 135 -13 114 -3 c 1,25,-1
 82 -207 l 1,26,-1
 -8 -207 l 1,27,-1
 104 499 l 1,28,-1
 195 508 l 1,29,-1
 140 161 l 2,0,1
EndSplineSet
EndChar

StartChar: paragraph
Encoding: 182 182 121
Width: 511
GlyphClass: 2
Flags: W
LayerCount: 2
Fore
SplineSet
56 484 m 0,0,1
 56 566 56 566 122 622 c 0,2,3
 176 668 176 668 242 668 c 2,4,-1
 540 668 l 1,5,-1
 530 604 l 1,6,-1
 458 604 l 1,7,-1
 337 -162 l 1,8,-1
 263 -162 l 1,9,-1
 384 604 l 1,10,-1
 310 604 l 1,11,-1
 189 -162 l 1,12,-1
 111 -162 l 1,13,-1
 192 351 l 1,14,15
 126 351 126 351 87 398 c 0,16,17
 56 435 56 435 56 484 c 0,0,1
EndSplineSet
EndChar

StartChar: periodcentered
Encoding: 183 183 122
Width: 250
GlyphClass: 2
Flags: W
LayerCount: 2
Fore
SplineSet
131 333 m 128,-1,1
 160 333 160 333 176 314.5 c 128,-1,2
 192 296 192 296 192 276 c 0,3,4
 192 240 192 240 165 215 c 128,-1,5
 138 190 138 190 109 190 c 128,-1,6
 80 190 80 190 64 209.5 c 128,-1,7
 48 229 48 229 48 251 c 0,8,9
 48 287 48 287 75 310 c 128,-1,0
 102 333 102 333 131 333 c 128,-1,1
EndSplineSet
EndChar

StartChar: cedilla
Encoding: 184 184 123
Width: 284
GlyphClass: 2
Flags: W
LayerCount: 2
Fore
SplineSet
42 -207 m 1,0,1
 128 -153 128 -153 128 -95 c 0,2,3
 128 -75 128 -75 119 -49 c 1,4,-1
 198 -49 l 1,5,6
 205 -74 205 -74 205 -89.5 c 128,-1,7
 205 -105 205 -105 204 -113 c 0,8,9
 190 -193 190 -193 75 -255 c 1,10,-1
 42 -207 l 1,0,1
EndSplineSet
EndChar

StartChar: onesuperior
Encoding: 185 185 124
Width: 239
GlyphClass: 2
Flags: W
LayerCount: 2
Fore
SplineSet
176 259 m 1,0,-1
 102 259 l 1,1,-1
 156 601 l 1,2,-1
 69 560 l 1,3,-1
 56 617 l 1,4,-1
 182 668 l 1,5,-1
 240 668 l 1,6,-1
 176 259 l 1,0,-1
EndSplineSet
EndChar

StartChar: ordmasculine
Encoding: 186 186 125
Width: 330
GlyphClass: 2
Flags: W
LayerCount: 2
Fore
SplineSet
180 404 m 128,-1,1
 127 404 127 404 101 440 c 0,2,3
 83 464 83 464 83 496 c 0,4,5
 83 615 83 615 138 666 c 0,6,7
 177 702 177 702 230 702 c 0,8,9
 327 702 327 702 327 599 c 0,10,11
 327 578 327 578 323 553 c 0,12,13
 311 476 311 476 272 440 c 128,-1,0
 233 404 233 404 180 404 c 128,-1,1
271 599 m 0,14,15
 271 657 271 657 222 657 c 0,16,17
 159 657 159 657 142 553 c 0,18,19
 138 531 138 531 138 514 c 0,20,21
 138 449 138 449 189 449 c 0,22,23
 214 449 214 449 236 473.5 c 128,-1,24
 258 498 258 498 264.5 539 c 128,-1,25
 271 580 271 580 271 599 c 0,14,15
EndSplineSet
EndChar

StartChar: guillemotright
Encoding: 187 187 126
Width: 527
GlyphClass: 2
Flags: W
LayerCount: 2
Fore
SplineSet
194 308 m 1,0,-1
 71 462 l 1,1,-1
 137 512 l 1,2,-1
 279 332 l 1,3,-1
 271 284 l 1,4,-1
 72 104 l 1,5,-1
 22 155 l 1,6,-1
 194 308 l 1,0,-1
405 308 m 1,7,-1
 281 462 l 1,8,-1
 347 512 l 1,9,-1
 489 332 l 1,10,-1
 481 284 l 1,11,-1
 282 104 l 1,12,-1
 232 155 l 1,13,-1
 405 308 l 1,7,-1
EndSplineSet
EndChar

StartChar: onequarter
Encoding: 188 188 127
Width: 714
GlyphClass: 2
Flags: W
LayerCount: 2
Fore
SplineSet
658 111 m 1,0,-1
 590 111 l 1,1,-1
 573 0 l 1,2,-1
 508 0 l 1,3,-1
 525 111 l 1,4,-1
 361 111 l 1,5,-1
 368 153 l 1,6,-1
 539 400 l 1,7,-1
 636 400 l 1,8,-1
 599 166 l 1,9,-1
 667 166 l 1,10,-1
 658 111 l 1,0,-1
534 166 m 1,11,-1
 561 334 l 1,12,-1
 448 166 l 1,13,-1
 534 166 l 1,11,-1
196 291 m 1,14,-1
 122 291 l 1,15,-1
 176 633 l 1,16,-1
 89 592 l 1,17,-1
 76 649 l 1,18,-1
 202 700 l 1,19,-1
 260 700 l 1,20,-1
 196 291 l 1,14,-1
599 703 m 1,21,-1
 163 -45 l 1,22,-1
 92 -19 l 1,23,-1
 530 729 l 1,24,-1
 599 703 l 1,21,-1
EndSplineSet
EndChar

StartChar: onehalf
Encoding: 189 189 128
Width: 736
GlyphClass: 2
Flags: W
LayerCount: 2
Fore
SplineSet
610.5 272 m 128,-1,1
 616 283 616 283 617 291.5 c 128,-1,2
 618 300 618 300 618 313.5 c 128,-1,3
 618 327 618 327 606 339.5 c 128,-1,4
 594 352 594 352 560 352 c 128,-1,5
 526 352 526 352 489 334 c 1,6,-1
 477 385 l 1,7,8
 540 414 540 414 588 414 c 0,9,10
 692 414 692 414 692 326 c 0,11,12
 692 313 692 313 690 299 c 0,13,14
 682 248 682 248 619 177 c 1,15,16
 539 90 539 90 509 62 c 1,17,-1
 668 62 l 1,18,-1
 659 0 l 1,19,-1
 402 0 l 1,20,-1
 410 56 l 1,21,22
 462 102 462 102 496.5 138.5 c 128,-1,23
 531 175 531 175 546 190.5 c 128,-1,24
 561 206 561 206 566 212 c 128,-1,25
 571 218 571 218 583 231.5 c 128,-1,26
 595 245 595 245 600 253 c 128,-1,0
 605 261 605 261 610.5 272 c 128,-1,1
196 291 m 1,27,-1
 122 291 l 1,28,-1
 176 633 l 1,29,-1
 89 592 l 1,30,-1
 76 649 l 1,31,-1
 202 700 l 1,32,-1
 260 700 l 1,33,-1
 196 291 l 1,27,-1
592 703 m 1,34,-1
 156 -45 l 1,35,-1
 85 -19 l 1,36,-1
 523 729 l 1,37,-1
 592 703 l 1,34,-1
EndSplineSet
EndChar

StartChar: threequarters
Encoding: 190 190 129
Width: 769
GlyphClass: 2
Flags: W
LayerCount: 2
Fore
SplineSet
308 616 m 0,0,1
 308 546 308 546 244 511 c 1,2,3
 294 488 294 488 294 435 c 0,4,5
 294 424 294 424 292 412 c 0,6,7
 282 353 282 353 239.5 316 c 128,-1,8
 197 279 197 279 138.5 279 c 128,-1,9
 80 279 80 279 28 314 c 1,10,-1
 61 366 l 1,11,12
 103 340 103 340 139 340 c 128,-1,13
 175 340 175 340 196 360 c 0,14,15
 223 385 223 385 223 423 c 0,16,17
 223 444 223 444 206.5 460.5 c 128,-1,18
 190 477 190 477 153 477 c 2,19,-1
 121 477 l 1,20,-1
 130 532 l 1,21,-1
 161 532 l 1,22,23
 192 533 192 533 212 551 c 0,24,25
 236 573 236 573 236 604 c 0,26,27
 236 640 236 640 191.5 640 c 128,-1,28
 147 640 147 640 107 622 c 1,29,-1
 98 672 l 1,30,31
 159 700 159 700 209.5 700 c 128,-1,32
 260 700 260 700 284 675 c 128,-1,33
 308 650 308 650 308 616 c 0,0,1
718 111 m 1,34,-1
 650 111 l 1,35,-1
 633 0 l 1,36,-1
 568 0 l 1,37,-1
 585 111 l 1,38,-1
 421 111 l 1,39,-1
 428 153 l 1,40,-1
 599 400 l 1,41,-1
 696 400 l 1,42,-1
 659 166 l 1,43,-1
 727 166 l 1,44,-1
 718 111 l 1,34,-1
594 166 m 1,45,-1
 621 334 l 1,46,-1
 508 166 l 1,47,-1
 594 166 l 1,45,-1
651 692 m 1,48,-1
 216 -56 l 1,49,-1
 145 -30 l 1,50,-1
 582 718 l 1,51,-1
 651 692 l 1,48,-1
EndSplineSet
EndChar

StartChar: questiondown
Encoding: 191 191 130
Width: 332
GlyphClass: 2
Flags: W
LayerCount: 2
Fore
SplineSet
64 -17 m 0,0,1
 64 -52 64 -52 96 -74 c 0,2,3
 139 -105 139 -105 226 -113 c 1,4,-1
 195 -190 l 1,5,6
 81 -185 81 -185 19 -132 c 0,7,8
 -26 -94 -26 -94 -26 -38 c 0,9,10
 -26 54 -26 54 58 120 c 0,11,12
 83 140 83 140 108 160 c 0,13,14
 169 208 169 208 186 276 c 1,15,-1
 198 335 l 1,16,-1
 275 335 l 1,17,18
 267 270 267 270 265 263 c 0,19,20
 254 216 254 216 223.5 177 c 128,-1,21
 193 138 193 138 162 116 c 0,22,23
 64 45 64 45 64 -17 c 0,0,1
239.5 391 m 128,-1,25
 214 391 214 391 200.5 406.5 c 128,-1,26
 187 422 187 422 187 434 c 0,27,28
 187 473 187 473 210.5 493.5 c 128,-1,29
 234 514 234 514 259 514 c 128,-1,30
 284 514 284 514 297.5 497.5 c 128,-1,31
 311 481 311 481 311 469 c 0,32,33
 311 430 311 430 288 410.5 c 128,-1,24
 265 391 265 391 239.5 391 c 128,-1,25
EndSplineSet
EndChar

StartChar: Agrave
Encoding: 192 192 131
Width: 561
GlyphClass: 2
Flags: W
LayerCount: 2
Fore
SplineSet
381 172 m 1,0,-1
 146 172 l 1,1,-1
 62 0 l 1,2,-1
 -36 0 l 1,3,-1
 288 668 l 1,4,-1
 395 668 l 1,5,-1
 509 0 l 1,6,-1
 412 0 l 1,7,-1
 381 172 l 1,0,-1
371 247 m 1,8,-1
 327 577 l 1,9,-1
 180 247 l 1,10,-1
 371 247 l 1,8,-1
403 726 m 1,11,-1
 248 830 l 1,12,-1
 308 903 l 1,13,-1
 448 781 l 1,14,-1
 403 726 l 1,11,-1
EndSplineSet
EndChar

StartChar: Aacute
Encoding: 193 193 132
Width: 561
GlyphClass: 2
Flags: W
LayerCount: 2
Fore
SplineSet
381 172 m 1,0,-1
 146 172 l 1,1,-1
 62 0 l 1,2,-1
 -36 0 l 1,3,-1
 288 668 l 1,4,-1
 395 668 l 1,5,-1
 509 0 l 1,6,-1
 412 0 l 1,7,-1
 381 172 l 1,0,-1
371 247 m 1,8,-1
 327 577 l 1,9,-1
 180 247 l 1,10,-1
 371 247 l 1,8,-1
495 832 m 1,11,-1
 307 728 l 1,12,-1
 280 783 l 1,13,-1
 459 905 l 1,14,-1
 495 832 l 1,11,-1
EndSplineSet
EndChar

StartChar: Acircumflex
Encoding: 194 194 133
Width: 561
GlyphClass: 2
Flags: W
LayerCount: 2
Fore
SplineSet
381 172 m 1,0,-1
 146 172 l 1,1,-1
 62 0 l 1,2,-1
 -36 0 l 1,3,-1
 288 668 l 1,4,-1
 395 668 l 1,5,-1
 509 0 l 1,6,-1
 412 0 l 1,7,-1
 381 172 l 1,0,-1
371 247 m 1,8,-1
 327 577 l 1,9,-1
 180 247 l 1,10,-1
 371 247 l 1,8,-1
362 800 m 1,11,-1
 264 714 l 1,12,-1
 221 750 l 1,13,-1
 338 860 l 1,14,-1
 403 860 l 1,15,-1
 485 750 l 1,16,-1
 429 714 l 1,17,-1
 362 800 l 1,11,-1
EndSplineSet
EndChar

StartChar: Atilde
Encoding: 195 195 134
Width: 561
GlyphClass: 2
Flags: W
LayerCount: 2
Fore
SplineSet
381 172 m 1,0,-1
 146 172 l 1,1,-1
 62 0 l 1,2,-1
 -36 0 l 1,3,-1
 288 668 l 1,4,-1
 395 668 l 1,5,-1
 509 0 l 1,6,-1
 412 0 l 1,7,-1
 381 172 l 1,0,-1
371 247 m 1,8,-1
 327 577 l 1,9,-1
 180 247 l 1,10,-1
 371 247 l 1,8,-1
300 844 m 0,11,12
 322 844 322 844 365 822.5 c 128,-1,13
 408 801 408 801 427.5 801 c 128,-1,14
 447 801 447 801 491 843 c 1,15,-1
 528 807 l 1,16,17
 502 773 502 773 469 751.5 c 128,-1,18
 436 730 436 730 411 730 c 128,-1,19
 386 730 386 730 345.5 751.5 c 128,-1,20
 305 773 305 773 286 773 c 128,-1,21
 267 773 267 773 230 736 c 1,22,-1
 192 773 l 1,23,24
 248 844 248 844 300 844 c 0,11,12
EndSplineSet
EndChar

StartChar: Adieresis
Encoding: 196 196 135
Width: 561
GlyphClass: 2
Flags: W
LayerCount: 2
Fore
SplineSet
381 172 m 1,0,-1
 146 172 l 1,1,-1
 62 0 l 1,2,-1
 -36 0 l 1,3,-1
 288 668 l 1,4,-1
 395 668 l 1,5,-1
 509 0 l 1,6,-1
 412 0 l 1,7,-1
 381 172 l 1,0,-1
371 247 m 1,8,-1
 327 577 l 1,9,-1
 180 247 l 1,10,-1
 371 247 l 1,8,-1
287 839 m 128,-1,12
 310 839 310 839 322.5 825 c 128,-1,13
 335 811 335 811 335 800 c 0,14,15
 335 766 335 766 314 747 c 128,-1,16
 293 728 293 728 270 728 c 128,-1,17
 247 728 247 728 235 743 c 128,-1,18
 223 758 223 758 223 769 c 0,19,20
 223 804 223 804 243.5 821.5 c 128,-1,11
 264 839 264 839 287 839 c 128,-1,12
452.5 839 m 128,-1,22
 475 839 475 839 487.5 825 c 128,-1,23
 500 811 500 811 500 800 c 0,24,25
 500 766 500 766 479 747 c 128,-1,26
 458 728 458 728 435 728 c 128,-1,27
 412 728 412 728 400 743 c 128,-1,28
 388 758 388 758 388 769 c 0,29,30
 388 804 388 804 409 821.5 c 128,-1,21
 430 839 430 839 452.5 839 c 128,-1,22
EndSplineSet
EndChar

StartChar: Aring
Encoding: 197 197 136
Width: 561
GlyphClass: 2
Flags: W
LayerCount: 2
Fore
SplineSet
348 724 m 128,-1,1
 298 724 298 724 279 750.5 c 128,-1,2
 260 777 260 777 260 807 c 0,3,4
 260 862 260 862 296 895.5 c 128,-1,5
 332 929 332 929 382 929 c 128,-1,6
 432 929 432 929 451 903 c 128,-1,7
 470 877 470 877 470 846 c 0,8,9
 470 793 470 793 434 758.5 c 128,-1,0
 398 724 398 724 348 724 c 128,-1,1
411 839 m 0,10,11
 411 875 411 875 373 875 c 0,12,13
 351 875 351 875 338 861 c 0,14,15
 320 843 320 843 320 816 c 0,16,17
 320 778 320 778 357 778 c 0,18,19
 401 778 401 778 410 828 c 0,20,21
 411 834 411 834 411 839 c 0,10,11
381 172 m 1,22,-1
 146 172 l 1,23,-1
 62 0 l 1,24,-1
 -36 0 l 1,25,-1
 288 668 l 1,26,-1
 395 668 l 1,27,-1
 509 0 l 1,28,-1
 412 0 l 1,29,-1
 381 172 l 1,22,-1
371 247 m 1,30,-1
 327 577 l 1,31,-1
 180 247 l 1,32,-1
 371 247 l 1,30,-1
EndSplineSet
EndChar

StartChar: AE
Encoding: 198 198 137
Width: 777
GlyphClass: 2
Flags: W
LayerCount: 2
Fore
SplineSet
356 668 m 1,0,-1
 780 668 l 1,1,-1
 758 587 l 1,2,-1
 492 587 l 1,3,-1
 460 385 l 1,4,-1
 719 385 l 1,5,-1
 707 305 l 1,6,-1
 448 305 l 1,7,-1
 412 81 l 1,8,-1
 687 81 l 1,9,-1
 685 0 l 1,10,-1
 306 0 l 1,11,-1
 333 172 l 1,12,-1
 162 172 l 1,13,-1
 60 0 l 1,14,-1
 -40 0 l 1,15,-1
 356 668 l 1,0,-1
400 594 m 1,16,-1
 205 247 l 1,17,-1
 345 247 l 1,18,-1
 400 594 l 1,16,-1
EndSplineSet
EndChar

StartChar: Ccedilla
Encoding: 199 199 138
Width: 518
GlyphClass: 2
Flags: W
LayerCount: 2
Fore
SplineSet
290 -13 m 0,0,1
 49 -13 49 -13 49 231 c 0,2,3
 49 278 49 278 58 335 c 0,4,5
 86 515 86 515 172.5 598 c 128,-1,6
 259 681 259 681 388 681 c 0,7,8
 456 681 456 681 536 658 c 1,9,-1
 506 583 l 1,10,11
 441 598 441 598 390 598 c 0,12,13
 298 598 298 598 237.5 539 c 128,-1,14
 177 480 177 480 154 339 c 0,15,16
 146 290 146 290 146 251 c 0,17,18
 146 172 146 172 178 130 c 0,19,20
 224 69 224 69 322 69 c 0,21,22
 374 69 374 69 434 81 c 1,23,-1
 435 6 l 1,24,25
 354 -13 354 -13 290 -13 c 0,0,1
158 -207 m 1,26,27
 244 -153 244 -153 244 -95 c 0,28,29
 244 -75 244 -75 235 -49 c 1,30,-1
 314 -49 l 1,31,32
 321 -74 321 -74 321 -89.5 c 128,-1,33
 321 -105 321 -105 320 -113 c 0,34,35
 306 -193 306 -193 191 -255 c 1,36,-1
 158 -207 l 1,26,27
EndSplineSet
EndChar

StartChar: Egrave
Encoding: 200 200 139
Width: 511
GlyphClass: 2
Flags: W
LayerCount: 2
Fore
SplineSet
142 81 m 1,0,-1
 426 81 l 1,1,-1
 414 0 l 1,2,-1
 34 0 l 1,3,-1
 139 668 l 1,4,-1
 510 668 l 1,5,-1
 497 587 l 1,6,-1
 222 587 l 1,7,-1
 190 385 l 1,8,-1
 449 385 l 1,9,-1
 437 306 l 1,10,-1
 178 306 l 1,11,-1
 142 81 l 1,0,-1
385 726 m 1,12,-1
 230 830 l 1,13,-1
 290 903 l 1,14,-1
 430 781 l 1,15,-1
 385 726 l 1,12,-1
EndSplineSet
EndChar

StartChar: Eacute
Encoding: 201 201 140
Width: 511
GlyphClass: 2
Flags: W
LayerCount: 2
Fore
SplineSet
142 81 m 1,0,-1
 426 81 l 1,1,-1
 414 0 l 1,2,-1
 34 0 l 1,3,-1
 139 668 l 1,4,-1
 510 668 l 1,5,-1
 497 587 l 1,6,-1
 222 587 l 1,7,-1
 190 385 l 1,8,-1
 449 385 l 1,9,-1
 437 306 l 1,10,-1
 178 306 l 1,11,-1
 142 81 l 1,0,-1
465 832 m 1,12,-1
 277 728 l 1,13,-1
 250 783 l 1,14,-1
 429 905 l 1,15,-1
 465 832 l 1,12,-1
EndSplineSet
EndChar

StartChar: Ecircumflex
Encoding: 202 202 141
Width: 511
GlyphClass: 2
Flags: W
LayerCount: 2
Fore
SplineSet
142 81 m 1,0,-1
 426 81 l 1,1,-1
 414 0 l 1,2,-1
 34 0 l 1,3,-1
 139 668 l 1,4,-1
 510 668 l 1,5,-1
 497 587 l 1,6,-1
 222 587 l 1,7,-1
 190 385 l 1,8,-1
 449 385 l 1,9,-1
 437 306 l 1,10,-1
 178 306 l 1,11,-1
 142 81 l 1,0,-1
349 800 m 1,12,-1
 251 714 l 1,13,-1
 208 750 l 1,14,-1
 325 860 l 1,15,-1
 390 860 l 1,16,-1
 472 750 l 1,17,-1
 416 714 l 1,18,-1
 349 800 l 1,12,-1
EndSplineSet
EndChar

StartChar: Edieresis
Encoding: 203 203 142
Width: 511
GlyphClass: 2
Flags: W
LayerCount: 2
Fore
SplineSet
142 81 m 1,0,-1
 426 81 l 1,1,-1
 414 0 l 1,2,-1
 34 0 l 1,3,-1
 139 668 l 1,4,-1
 510 668 l 1,5,-1
 497 587 l 1,6,-1
 222 587 l 1,7,-1
 190 385 l 1,8,-1
 449 385 l 1,9,-1
 437 306 l 1,10,-1
 178 306 l 1,11,-1
 142 81 l 1,0,-1
273 839 m 128,-1,13
 296 839 296 839 308.5 825 c 128,-1,14
 321 811 321 811 321 800 c 0,15,16
 321 766 321 766 300 747 c 128,-1,17
 279 728 279 728 256 728 c 128,-1,18
 233 728 233 728 221 743 c 128,-1,19
 209 758 209 758 209 769 c 0,20,21
 209 804 209 804 229.5 821.5 c 128,-1,12
 250 839 250 839 273 839 c 128,-1,13
438.5 839 m 128,-1,23
 461 839 461 839 473.5 825 c 128,-1,24
 486 811 486 811 486 800 c 0,25,26
 486 766 486 766 465 747 c 128,-1,27
 444 728 444 728 421 728 c 128,-1,28
 398 728 398 728 386 743 c 128,-1,29
 374 758 374 758 374 769 c 0,30,31
 374 804 374 804 395 821.5 c 128,-1,22
 416 839 416 839 438.5 839 c 128,-1,23
EndSplineSet
EndChar

StartChar: Igrave
Encoding: 204 204 143
Width: 255
GlyphClass: 2
Flags: W
LayerCount: 2
Fore
SplineSet
235 668 m 1,0,-1
 130 0 l 1,1,-1
 34 0 l 1,2,-1
 139 668 l 1,3,-1
 235 668 l 1,0,-1
234 726 m 1,4,-1
 79 830 l 1,5,-1
 139 903 l 1,6,-1
 279 781 l 1,7,-1
 234 726 l 1,4,-1
EndSplineSet
EndChar

StartChar: Iacute
Encoding: 205 205 144
Width: 255
GlyphClass: 2
Flags: W
LayerCount: 2
Fore
SplineSet
235 668 m 1,0,-1
 130 0 l 1,1,-1
 34 0 l 1,2,-1
 139 668 l 1,3,-1
 235 668 l 1,0,-1
341 832 m 1,4,-1
 153 728 l 1,5,-1
 126 783 l 1,6,-1
 305 905 l 1,7,-1
 341 832 l 1,4,-1
EndSplineSet
EndChar

StartChar: Icircumflex
Encoding: 206 206 145
Width: 255
GlyphClass: 2
Flags: W
LayerCount: 2
Fore
SplineSet
235 668 m 1,0,-1
 130 0 l 1,1,-1
 34 0 l 1,2,-1
 139 668 l 1,3,-1
 235 668 l 1,0,-1
198 800 m 1,4,-1
 100 714 l 1,5,-1
 57 750 l 1,6,-1
 174 860 l 1,7,-1
 239 860 l 1,8,-1
 321 750 l 1,9,-1
 265 714 l 1,10,-1
 198 800 l 1,4,-1
EndSplineSet
EndChar

StartChar: Idieresis
Encoding: 207 207 146
Width: 255
GlyphClass: 2
Flags: W
LayerCount: 2
Fore
SplineSet
235 668 m 1,0,-1
 130 0 l 1,1,-1
 34 0 l 1,2,-1
 139 668 l 1,3,-1
 235 668 l 1,0,-1
122.5 839 m 128,-1,5
 145 839 145 839 157.5 825 c 128,-1,6
 170 811 170 811 170 800 c 0,7,8
 170 766 170 766 149 747 c 128,-1,9
 128 728 128 728 105 728 c 128,-1,10
 82 728 82 728 70 743 c 128,-1,11
 58 758 58 758 58 769 c 0,12,13
 58 804 58 804 79 821.5 c 128,-1,4
 100 839 100 839 122.5 839 c 128,-1,5
287 839 m 128,-1,15
 310 839 310 839 322.5 825 c 128,-1,16
 335 811 335 811 335 800 c 0,17,18
 335 766 335 766 314 747 c 128,-1,19
 293 728 293 728 270 728 c 128,-1,20
 247 728 247 728 235 743 c 128,-1,21
 223 758 223 758 223 769 c 0,22,23
 223 804 223 804 243.5 821.5 c 128,-1,14
 264 839 264 839 287 839 c 128,-1,15
EndSplineSet
EndChar

StartChar: Eth
Encoding: 208 208 147
Width: 624
GlyphClass: 2
Flags: W
LayerCount: 2
Fore
SplineSet
326 668 m 2,0,1
 450 668 450 668 499 640 c 1,2,3
 588 586 588 586 588 425 c 0,4,5
 588 381 588 381 580 333 c 0,6,7
 563 229 563 229 517.5 146.5 c 128,-1,8
 472 64 472 64 402 27 c 1,9,10
 346 0 346 0 221 0 c 2,11,-1
 50 0 l 1,12,-1
 98 305 l 1,13,-1
 14 305 l 1,14,-1
 26 384 l 1,15,-1
 110 384 l 1,16,-1
 155 668 l 1,17,-1
 326 668 l 2,0,1
241 81 m 2,18,19
 359 81 359 81 411 142 c 128,-1,20
 463 203 463 203 483 334 c 0,21,22
 491 385 491 385 491 436.5 c 128,-1,23
 491 488 491 488 472 526 c 1,24,25
 439 587 439 587 321 587 c 2,26,-1
 238 587 l 1,27,-1
 206 384 l 1,28,-1
 363 385 l 1,29,-1
 351 306 l 1,30,-1
 194 305 l 1,31,-1
 158 81 l 1,32,-1
 241 81 l 2,18,19
EndSplineSet
EndChar

StartChar: Ntilde
Encoding: 209 209 148
Width: 660
GlyphClass: 2
Flags: W
LayerCount: 2
Fore
SplineSet
535 0 m 1,0,-1
 437 0 l 1,1,-1
 206 541 l 1,2,3
 205 510 205 510 197 457 c 2,4,-1
 125 0 l 1,5,-1
 34 0 l 1,6,-1
 139 668 l 1,7,-1
 237 668 l 1,8,-1
 468 127 l 1,9,10
 469 158 469 158 477 211 c 2,11,-1
 549 668 l 1,12,-1
 640 668 l 1,13,-1
 535 0 l 1,0,-1
328 844 m 0,14,15
 350 844 350 844 393 822.5 c 128,-1,16
 436 801 436 801 455.5 801 c 128,-1,17
 475 801 475 801 519 843 c 1,18,-1
 556 807 l 1,19,20
 530 773 530 773 497 751.5 c 128,-1,21
 464 730 464 730 439 730 c 128,-1,22
 414 730 414 730 373.5 751.5 c 128,-1,23
 333 773 333 773 314 773 c 128,-1,24
 295 773 295 773 258 736 c 1,25,-1
 220 773 l 1,26,27
 276 844 276 844 328 844 c 0,14,15
EndSplineSet
EndChar

StartChar: Ograve
Encoding: 210 210 149
Width: 619
GlyphClass: 2
Flags: W
LayerCount: 2
Fore
SplineSet
372 681 m 128,-1,1
 441 681 441 681 488.5 651.5 c 128,-1,2
 536 622 536 622 556 574 c 0,3,4
 585 506 585 506 585 423 c 0,5,6
 585 379 585 379 575 322 c 128,-1,7
 565 265 565 265 541.5 205.5 c 128,-1,8
 518 146 518 146 480.5 95.5 c 128,-1,9
 443 45 443 45 386 16 c 128,-1,10
 329 -13 329 -13 259.5 -13 c 128,-1,11
 190 -13 190 -13 143 16.5 c 128,-1,12
 96 46 96 46 76 94 c 0,13,14
 48 162 48 162 48 245 c 0,15,16
 48 289 48 289 58 346 c 128,-1,17
 68 403 68 403 92 463 c 128,-1,18
 116 523 116 523 153.5 573 c 128,-1,19
 191 623 191 623 247 652 c 128,-1,0
 303 681 303 681 372 681 c 128,-1,1
275 72 m 0,20,21
 358 72 358 72 409 145 c 128,-1,22
 460 218 460 218 478 334 c 0,23,24
 485 383 485 383 485 415 c 128,-1,25
 485 447 485 447 483 466 c 0,26,27
 478 525 478 525 446 560.5 c 128,-1,28
 414 596 414 596 358 596 c 0,29,30
 275 596 275 596 224 523.5 c 128,-1,31
 173 451 173 451 154 334 c 1,32,33
 148 287 148 287 148 255 c 128,-1,34
 148 223 148 223 150 202 c 0,35,36
 155 144 155 144 187 108 c 128,-1,37
 219 72 219 72 275 72 c 0,20,21
439 726 m 1,38,-1
 284 830 l 1,39,-1
 344 903 l 1,40,-1
 484 781 l 1,41,-1
 439 726 l 1,38,-1
EndSplineSet
EndChar

StartChar: Oacute
Encoding: 211 211 150
Width: 619
GlyphClass: 2
Flags: W
LayerCount: 2
Fore
SplineSet
372 681 m 128,-1,1
 441 681 441 681 488.5 651.5 c 128,-1,2
 536 622 536 622 556 574 c 0,3,4
 585 506 585 506 585 423 c 0,5,6
 585 379 585 379 575 322 c 128,-1,7
 565 265 565 265 541.5 205.5 c 128,-1,8
 518 146 518 146 480.5 95.5 c 128,-1,9
 443 45 443 45 386 16 c 128,-1,10
 329 -13 329 -13 259.5 -13 c 128,-1,11
 190 -13 190 -13 143 16.5 c 128,-1,12
 96 46 96 46 76 94 c 0,13,14
 48 162 48 162 48 245 c 0,15,16
 48 289 48 289 58 346 c 128,-1,17
 68 403 68 403 92 463 c 128,-1,18
 116 523 116 523 153.5 573 c 128,-1,19
 191 623 191 623 247 652 c 128,-1,0
 303 681 303 681 372 681 c 128,-1,1
275 72 m 0,20,21
 358 72 358 72 409 145 c 128,-1,22
 460 218 460 218 478 334 c 0,23,24
 485 383 485 383 485 415 c 128,-1,25
 485 447 485 447 483 466 c 0,26,27
 478 525 478 525 446 560.5 c 128,-1,28
 414 596 414 596 358 596 c 0,29,30
 275 596 275 596 224 523.5 c 128,-1,31
 173 451 173 451 154 334 c 1,32,33
 148 287 148 287 148 255 c 128,-1,34
 148 223 148 223 150 202 c 0,35,36
 155 144 155 144 187 108 c 128,-1,37
 219 72 219 72 275 72 c 0,20,21
514 832 m 1,38,-1
 326 728 l 1,39,-1
 299 783 l 1,40,-1
 478 905 l 1,41,-1
 514 832 l 1,38,-1
EndSplineSet
EndChar

StartChar: Ocircumflex
Encoding: 212 212 151
Width: 619
GlyphClass: 2
Flags: W
LayerCount: 2
Fore
SplineSet
372 681 m 128,-1,1
 441 681 441 681 488.5 651.5 c 128,-1,2
 536 622 536 622 556 574 c 0,3,4
 585 506 585 506 585 423 c 0,5,6
 585 379 585 379 575 322 c 128,-1,7
 565 265 565 265 541.5 205.5 c 128,-1,8
 518 146 518 146 480.5 95.5 c 128,-1,9
 443 45 443 45 386 16 c 128,-1,10
 329 -13 329 -13 259.5 -13 c 128,-1,11
 190 -13 190 -13 143 16.5 c 128,-1,12
 96 46 96 46 76 94 c 0,13,14
 48 162 48 162 48 245 c 0,15,16
 48 289 48 289 58 346 c 128,-1,17
 68 403 68 403 92 463 c 128,-1,18
 116 523 116 523 153.5 573 c 128,-1,19
 191 623 191 623 247 652 c 128,-1,0
 303 681 303 681 372 681 c 128,-1,1
275 72 m 0,20,21
 358 72 358 72 409 145 c 128,-1,22
 460 218 460 218 478 334 c 0,23,24
 485 383 485 383 485 415 c 128,-1,25
 485 447 485 447 483 466 c 0,26,27
 478 525 478 525 446 560.5 c 128,-1,28
 414 596 414 596 358 596 c 0,29,30
 275 596 275 596 224 523.5 c 128,-1,31
 173 451 173 451 154 334 c 1,32,33
 148 287 148 287 148 255 c 128,-1,34
 148 223 148 223 150 202 c 0,35,36
 155 144 155 144 187 108 c 128,-1,37
 219 72 219 72 275 72 c 0,20,21
395 800 m 1,38,-1
 297 714 l 1,39,-1
 254 750 l 1,40,-1
 371 860 l 1,41,-1
 436 860 l 1,42,-1
 518 750 l 1,43,-1
 462 714 l 1,44,-1
 395 800 l 1,38,-1
EndSplineSet
EndChar

StartChar: Otilde
Encoding: 213 213 152
Width: 619
GlyphClass: 2
Flags: W
LayerCount: 2
Fore
SplineSet
372 681 m 128,-1,1
 441 681 441 681 488.5 651.5 c 128,-1,2
 536 622 536 622 556 574 c 0,3,4
 585 506 585 506 585 423 c 0,5,6
 585 379 585 379 575 322 c 128,-1,7
 565 265 565 265 541.5 205.5 c 128,-1,8
 518 146 518 146 480.5 95.5 c 128,-1,9
 443 45 443 45 386 16 c 128,-1,10
 329 -13 329 -13 259.5 -13 c 128,-1,11
 190 -13 190 -13 143 16.5 c 128,-1,12
 96 46 96 46 76 94 c 0,13,14
 48 162 48 162 48 245 c 0,15,16
 48 289 48 289 58 346 c 128,-1,17
 68 403 68 403 92 463 c 128,-1,18
 116 523 116 523 153.5 573 c 128,-1,19
 191 623 191 623 247 652 c 128,-1,0
 303 681 303 681 372 681 c 128,-1,1
275 72 m 0,20,21
 358 72 358 72 409 145 c 128,-1,22
 460 218 460 218 478 334 c 0,23,24
 485 383 485 383 485 415 c 128,-1,25
 485 447 485 447 483 466 c 0,26,27
 478 525 478 525 446 560.5 c 128,-1,28
 414 596 414 596 358 596 c 0,29,30
 275 596 275 596 224 523.5 c 128,-1,31
 173 451 173 451 154 334 c 1,32,33
 148 287 148 287 148 255 c 128,-1,34
 148 223 148 223 150 202 c 0,35,36
 155 144 155 144 187 108 c 128,-1,37
 219 72 219 72 275 72 c 0,20,21
335 844 m 0,38,39
 357 844 357 844 400 822.5 c 128,-1,40
 443 801 443 801 462.5 801 c 128,-1,41
 482 801 482 801 526 843 c 1,42,-1
 563 807 l 1,43,44
 537 773 537 773 504 751.5 c 128,-1,45
 471 730 471 730 446 730 c 128,-1,46
 421 730 421 730 380.5 751.5 c 128,-1,47
 340 773 340 773 321 773 c 128,-1,48
 302 773 302 773 265 736 c 1,49,-1
 227 773 l 1,50,51
 283 844 283 844 335 844 c 0,38,39
EndSplineSet
EndChar

StartChar: Odieresis
Encoding: 214 214 153
Width: 619
GlyphClass: 2
Flags: W
LayerCount: 2
Fore
SplineSet
372 681 m 128,-1,1
 441 681 441 681 488.5 651.5 c 128,-1,2
 536 622 536 622 556 574 c 0,3,4
 585 506 585 506 585 423 c 0,5,6
 585 379 585 379 575 322 c 128,-1,7
 565 265 565 265 541.5 205.5 c 128,-1,8
 518 146 518 146 480.5 95.5 c 128,-1,9
 443 45 443 45 386 16 c 128,-1,10
 329 -13 329 -13 259.5 -13 c 128,-1,11
 190 -13 190 -13 143 16.5 c 128,-1,12
 96 46 96 46 76 94 c 0,13,14
 48 162 48 162 48 245 c 0,15,16
 48 289 48 289 58 346 c 128,-1,17
 68 403 68 403 92 463 c 128,-1,18
 116 523 116 523 153.5 573 c 128,-1,19
 191 623 191 623 247 652 c 128,-1,0
 303 681 303 681 372 681 c 128,-1,1
275 72 m 0,20,21
 358 72 358 72 409 145 c 128,-1,22
 460 218 460 218 478 334 c 0,23,24
 485 383 485 383 485 415 c 128,-1,25
 485 447 485 447 483 466 c 0,26,27
 478 525 478 525 446 560.5 c 128,-1,28
 414 596 414 596 358 596 c 0,29,30
 275 596 275 596 224 523.5 c 128,-1,31
 173 451 173 451 154 334 c 1,32,33
 148 287 148 287 148 255 c 128,-1,34
 148 223 148 223 150 202 c 0,35,36
 155 144 155 144 187 108 c 128,-1,37
 219 72 219 72 275 72 c 0,20,21
305 839 m 128,-1,39
 328 839 328 839 340.5 825 c 128,-1,40
 353 811 353 811 353 800 c 0,41,42
 353 766 353 766 332 747 c 128,-1,43
 311 728 311 728 288 728 c 128,-1,44
 265 728 265 728 253 743 c 128,-1,45
 241 758 241 758 241 769 c 0,46,47
 241 804 241 804 261.5 821.5 c 128,-1,38
 282 839 282 839 305 839 c 128,-1,39
470.5 839 m 128,-1,49
 493 839 493 839 505.5 825 c 128,-1,50
 518 811 518 811 518 800 c 0,51,52
 518 766 518 766 497 747 c 128,-1,53
 476 728 476 728 453 728 c 128,-1,54
 430 728 430 728 418 743 c 128,-1,55
 406 758 406 758 406 769 c 0,56,57
 406 804 406 804 427 821.5 c 128,-1,48
 448 839 448 839 470.5 839 c 128,-1,49
EndSplineSet
EndChar

StartChar: multiply
Encoding: 215 215 154
Width: 507
GlyphClass: 2
Flags: W
LayerCount: 2
Fore
SplineSet
439 153 m 1,0,-1
 374 97 l 1,1,-1
 246 246 l 1,2,-1
 72 95 l 1,3,-1
 23 151 l 1,4,-1
 197 301 l 1,5,-1
 72 449 l 1,6,-1
 138 506 l 1,7,-1
 262 358 l 1,8,-1
 435 506 l 1,9,-1
 485 452 l 1,10,-1
 312 303 l 1,11,-1
 439 153 l 1,0,-1
EndSplineSet
EndChar

StartChar: Oslash
Encoding: 216 216 155
Width: 619
GlyphClass: 2
Flags: W
LayerCount: 2
Fore
SplineSet
542 206 m 0,0,1
 455 -13 455 -13 259 -13 c 0,2,3
 213 -13 213 -13 171 2 c 1,4,-1
 104 -116 l 1,5,-1
 35 -90 l 1,6,-1
 111 43 l 1,7,8
 48 107 48 107 48 232 c 0,9,10
 48 354 48 354 92 463 c 0,11,12
 147 600 147 600 247 652 c 0,13,14
 303 681 303 681 363 681 c 128,-1,15
 423 681 423 681 465 664 c 1,16,-1
 520 761 l 1,17,-1
 587 736 l 1,18,-1
 523 623 l 1,19,20
 585 558 585 558 585 436.5 c 128,-1,21
 585 315 585 315 542 206 c 0,0,1
154 334 m 0,22,23
 146 286 146 286 146 234 c 128,-1,24
 146 182 146 182 167 140 c 1,25,-1
 418 582 l 1,26,27
 392 596 392 596 358 596 c 0,28,29
 275 596 275 596 224 523.5 c 128,-1,30
 173 451 173 451 154 334 c 0,22,23
275 72 m 0,31,32
 358 72 358 72 409 145 c 128,-1,33
 460 218 460 218 478 334 c 0,34,35
 486 384 486 384 486 434.5 c 128,-1,36
 486 485 486 485 468 526 c 1,37,-1
 218 84 l 1,38,39
 242 72 242 72 275 72 c 0,31,32
EndSplineSet
EndChar

StartChar: Ugrave
Encoding: 217 217 156
Width: 608
GlyphClass: 2
Flags: W
LayerCount: 2
Fore
SplineSet
60 171 m 0,0,1
 60 205 60 205 67 245 c 2,2,-1
 134 668 l 1,3,-1
 230 668 l 1,4,-1
 166 259 l 2,5,6
 158 213 158 213 158 176.5 c 128,-1,7
 158 140 158 140 170 120 c 1,8,9
 189 73 189 73 267.5 73 c 128,-1,10
 346 73 346 73 384 120 c 1,11,12
 415 156 415 156 433 259 c 1,13,-1
 497 668 l 1,14,-1
 593 668 l 1,15,-1
 526 245 l 2,16,17
 507 127 507 127 453 64 c 1,18,19
 385 -11 385 -11 257 -12 c 128,-1,20
 129 -13 129 -13 84 64 c 0,21,22
 60 107 60 107 60 171 c 0,0,1
426 726 m 1,23,-1
 271 830 l 1,24,-1
 331 903 l 1,25,-1
 471 781 l 1,26,-1
 426 726 l 1,23,-1
EndSplineSet
EndChar

StartChar: Uacute
Encoding: 218 218 157
Width: 608
GlyphClass: 2
Flags: W
LayerCount: 2
Fore
SplineSet
60 171 m 0,0,1
 60 205 60 205 67 245 c 2,2,-1
 134 668 l 1,3,-1
 230 668 l 1,4,-1
 166 259 l 2,5,6
 158 213 158 213 158 176.5 c 128,-1,7
 158 140 158 140 170 120 c 1,8,9
 189 73 189 73 267.5 73 c 128,-1,10
 346 73 346 73 384 120 c 1,11,12
 415 156 415 156 433 259 c 1,13,-1
 497 668 l 1,14,-1
 593 668 l 1,15,-1
 526 245 l 2,16,17
 507 127 507 127 453 64 c 1,18,19
 385 -11 385 -11 257 -12 c 128,-1,20
 129 -13 129 -13 84 64 c 0,21,22
 60 107 60 107 60 171 c 0,0,1
523 832 m 1,23,-1
 335 728 l 1,24,-1
 308 783 l 1,25,-1
 487 905 l 1,26,-1
 523 832 l 1,23,-1
EndSplineSet
EndChar

StartChar: Ucircumflex
Encoding: 219 219 158
Width: 608
GlyphClass: 2
Flags: W
LayerCount: 2
Fore
SplineSet
60 171 m 0,0,1
 60 205 60 205 67 245 c 2,2,-1
 134 668 l 1,3,-1
 230 668 l 1,4,-1
 166 259 l 2,5,6
 158 213 158 213 158 176.5 c 128,-1,7
 158 140 158 140 170 120 c 1,8,9
 189 73 189 73 267.5 73 c 128,-1,10
 346 73 346 73 384 120 c 1,11,12
 415 156 415 156 433 259 c 1,13,-1
 497 668 l 1,14,-1
 593 668 l 1,15,-1
 526 245 l 2,16,17
 507 127 507 127 453 64 c 1,18,19
 385 -11 385 -11 257 -12 c 128,-1,20
 129 -13 129 -13 84 64 c 0,21,22
 60 107 60 107 60 171 c 0,0,1
387 800 m 1,23,-1
 289 714 l 1,24,-1
 246 750 l 1,25,-1
 363 860 l 1,26,-1
 428 860 l 1,27,-1
 510 750 l 1,28,-1
 454 714 l 1,29,-1
 387 800 l 1,23,-1
EndSplineSet
EndChar

StartChar: Udieresis
Encoding: 220 220 159
Width: 608
GlyphClass: 2
Flags: W
LayerCount: 2
Fore
SplineSet
60 171 m 0,0,1
 60 205 60 205 67 245 c 2,2,-1
 134 668 l 1,3,-1
 230 668 l 1,4,-1
 166 259 l 2,5,6
 158 213 158 213 158 176.5 c 128,-1,7
 158 140 158 140 170 120 c 1,8,9
 189 73 189 73 267.5 73 c 128,-1,10
 346 73 346 73 384 120 c 1,11,12
 415 156 415 156 433 259 c 1,13,-1
 497 668 l 1,14,-1
 593 668 l 1,15,-1
 526 245 l 2,16,17
 507 127 507 127 453 64 c 1,18,19
 385 -11 385 -11 257 -12 c 128,-1,20
 129 -13 129 -13 84 64 c 0,21,22
 60 107 60 107 60 171 c 0,0,1
309 839 m 128,-1,24
 332 839 332 839 344.5 825 c 128,-1,25
 357 811 357 811 357 800 c 0,26,27
 357 766 357 766 336 747 c 128,-1,28
 315 728 315 728 292 728 c 128,-1,29
 269 728 269 728 257 743 c 128,-1,30
 245 758 245 758 245 769 c 0,31,32
 245 804 245 804 265.5 821.5 c 128,-1,23
 286 839 286 839 309 839 c 128,-1,24
474.5 839 m 128,-1,34
 497 839 497 839 509.5 825 c 128,-1,35
 522 811 522 811 522 800 c 0,36,37
 522 766 522 766 501 747 c 128,-1,38
 480 728 480 728 457 728 c 128,-1,39
 434 728 434 728 422 743 c 128,-1,40
 410 758 410 758 410 769 c 0,41,42
 410 804 410 804 431 821.5 c 128,-1,33
 452 839 452 839 474.5 839 c 128,-1,34
EndSplineSet
EndChar

StartChar: Yacute
Encoding: 221 221 160
Width: 518
GlyphClass: 2
Flags: W
LayerCount: 2
Fore
SplineSet
59 668 m 1,0,-1
 167 668 l 1,1,-1
 267 353 l 1,2,-1
 471 668 l 1,3,-1
 572 668 l 1,4,-1
 303 275 l 1,5,-1
 260 0 l 1,6,-1
 164 0 l 1,7,-1
 207 275 l 1,8,-1
 59 668 l 1,0,-1
483 832 m 1,9,-1
 295 728 l 1,10,-1
 268 783 l 1,11,-1
 447 905 l 1,12,-1
 483 832 l 1,9,-1
EndSplineSet
EndChar

StartChar: Thorn
Encoding: 222 222 161
Width: 515
GlyphClass: 2
Flags: W
LayerCount: 2
Fore
SplineSet
506 437 m 0,0,1
 506 419 506 419 503 399 c 0,2,3
 477 237 477 237 326 205 c 0,4,5
 274 194 274 194 187 194 c 2,6,-1
 134 194 l 1,7,-1
 104 0 l 1,8,-1
 34 0 l 1,9,-1
 144 700 l 1,10,-1
 214 700 l 1,11,-1
 198 594 l 1,12,-1
 278 594 l 2,13,14
 355 594 355 594 397.5 582 c 128,-1,15
 440 570 440 570 473 536 c 128,-1,16
 506 502 506 502 506 437 c 0,0,1
432 425 m 0,17,18
 432 470 432 470 408 497 c 0,19,20
 375 535 375 535 269 535 c 2,21,-1
 188 535 l 1,22,-1
 144 253 l 1,23,-1
 209 253 l 2,24,25
 321 253 321 253 364 281 c 0,26,27
 418 316 418 316 430 394 c 0,28,29
 432 410 432 410 432 425 c 0,17,18
EndSplineSet
EndChar

StartChar: germandbls
Encoding: 223 223 162
Width: 576
GlyphClass: 2
Flags: W
LayerCount: 2
Fore
SplineSet
409 574 m 0,0,1
 409 634 409 634 332 634 c 0,2,3
 270 634 270 634 236 601.5 c 128,-1,4
 202 569 202 569 191 500 c 2,5,-1
 90 -136 l 1,6,-1
 -1 -135 l 1,7,-1
 100 502 l 2,8,9
 117 607 117 607 182 658.5 c 128,-1,10
 247 710 247 710 339.5 710 c 128,-1,11
 432 710 432 710 470 668 c 0,12,13
 500 634 500 634 500 587 c 0,14,15
 500 535 500 535 473.5 501 c 128,-1,16
 447 467 447 467 423 450 c 0,17,18
 358 404 358 404 353 373 c 0,19,20
 352 366 352 366 352 355.5 c 128,-1,21
 352 345 352 345 360 330 c 128,-1,22
 368 315 368 315 378.5 308 c 128,-1,23
 389 301 389 301 412 289 c 1,24,25
 442 276 442 276 458.5 266.5 c 128,-1,26
 475 257 475 257 496 238 c 0,27,28
 527 210 527 210 527 162 c 0,29,30
 527 150 527 150 525 136 c 0,31,32
 514 67 514 67 462.5 27 c 128,-1,33
 411 -13 411 -13 334 -13 c 0,34,35
 294 -13 294 -13 246.5 0.5 c 128,-1,36
 199 14 199 14 180 31 c 1,37,-1
 214 98 l 1,38,39
 284 61 284 61 355 61 c 128,-1,40
 426 61 426 61 437 131 c 1,41,42
 443 162 443 162 417 184 c 0,43,44
 397 201 397 201 365.5 217.5 c 128,-1,45
 334 234 334 234 320.5 242.5 c 128,-1,46
 307 251 307 251 288 269 c 0,47,48
 262 295 262 295 262 337 c 0,49,50
 262 389 262 389 288 422.5 c 128,-1,51
 314 456 314 456 338 472 c 0,52,53
 409 518 409 518 409 574 c 0,0,1
EndSplineSet
EndChar

StartChar: agrave
Encoding: 224 224 163
Width: 485
GlyphClass: 2
Flags: W
LayerCount: 2
Fore
SplineSet
126 -13 m 0,0,1
 61 -13 61 -13 29 25 c 0,2,3
 5 54 5 54 5 98 c 0,4,5
 5 157 5 157 32 192 c 128,-1,6
 59 227 59 227 90 241 c 0,7,8
 145 266 145 266 202 266 c 128,-1,9
 259 266 259 266 308 261 c 1,10,-1
 320 339 l 2,11,12
 323 360 323 360 323 382.5 c 128,-1,13
 323 405 323 405 313 418 c 0,14,15
 297 440 297 440 242.5 440 c 128,-1,16
 188 440 188 440 107 413 c 1,17,-1
 96 476 l 1,18,19
 128 494 128 494 177 505 c 128,-1,20
 226 516 226 516 261 516 c 0,21,22
 358 516 358 516 392 474 c 0,23,24
 414 446 414 446 414 391 c 0,25,26
 414 365 414 365 409 333 c 2,27,-1
 371 90 l 2,28,29
 369 82 369 82 369 76 c 0,30,31
 369 55 369 55 389 55 c 0,32,33
 405 55 405 55 435 64 c 1,34,-1
 441 8 l 1,35,36
 403 -14 403 -14 355 -14 c 0,37,38
 295 -14 295 -14 279 37 c 1,39,40
 254 16 254 16 212 1.5 c 128,-1,41
 170 -13 170 -13 126 -13 c 0,0,1
90 116 m 0,42,43
 90 58 90 58 155 58 c 128,-1,44
 220 58 220 58 281 94 c 1,45,-1
 300 210 l 1,46,47
 276 214 276 214 222 214 c 0,48,49
 105 214 105 214 92 136 c 0,50,51
 90 125 90 125 90 116 c 0,42,43
337 577 m 1,52,-1
 181 681 l 1,53,-1
 241 754 l 1,54,-1
 382 632 l 1,55,-1
 337 577 l 1,52,-1
EndSplineSet
EndChar

StartChar: aacute
Encoding: 225 225 164
Width: 485
GlyphClass: 2
Flags: W
LayerCount: 2
Fore
SplineSet
126 -13 m 0,0,1
 61 -13 61 -13 29 25 c 0,2,3
 5 54 5 54 5 98 c 0,4,5
 5 157 5 157 32 192 c 128,-1,6
 59 227 59 227 90 241 c 0,7,8
 145 266 145 266 202 266 c 128,-1,9
 259 266 259 266 308 261 c 1,10,-1
 320 339 l 2,11,12
 323 360 323 360 323 382.5 c 128,-1,13
 323 405 323 405 313 418 c 0,14,15
 297 440 297 440 242.5 440 c 128,-1,16
 188 440 188 440 107 413 c 1,17,-1
 96 476 l 1,18,19
 128 494 128 494 177 505 c 128,-1,20
 226 516 226 516 261 516 c 0,21,22
 358 516 358 516 392 474 c 0,23,24
 414 446 414 446 414 391 c 0,25,26
 414 365 414 365 409 333 c 2,27,-1
 371 90 l 2,28,29
 369 82 369 82 369 76 c 0,30,31
 369 55 369 55 389 55 c 0,32,33
 405 55 405 55 435 64 c 1,34,-1
 441 8 l 1,35,36
 403 -14 403 -14 355 -14 c 0,37,38
 295 -14 295 -14 279 37 c 1,39,40
 254 16 254 16 212 1.5 c 128,-1,41
 170 -13 170 -13 126 -13 c 0,0,1
90 116 m 0,42,43
 90 58 90 58 155 58 c 128,-1,44
 220 58 220 58 281 94 c 1,45,-1
 300 210 l 1,46,47
 276 214 276 214 222 214 c 0,48,49
 105 214 105 214 92 136 c 0,50,51
 90 125 90 125 90 116 c 0,42,43
391 681 m 1,52,-1
 203 577 l 1,53,-1
 176 632 l 1,54,-1
 355 754 l 1,55,-1
 391 681 l 1,52,-1
EndSplineSet
EndChar

StartChar: acircumflex
Encoding: 226 226 165
Width: 485
GlyphClass: 2
Flags: W
LayerCount: 2
Fore
SplineSet
126 -13 m 0,0,1
 61 -13 61 -13 29 25 c 0,2,3
 5 54 5 54 5 98 c 0,4,5
 5 157 5 157 32 192 c 128,-1,6
 59 227 59 227 90 241 c 0,7,8
 145 266 145 266 202 266 c 128,-1,9
 259 266 259 266 308 261 c 1,10,-1
 320 339 l 2,11,12
 323 360 323 360 323 382.5 c 128,-1,13
 323 405 323 405 313 418 c 0,14,15
 297 440 297 440 242.5 440 c 128,-1,16
 188 440 188 440 107 413 c 1,17,-1
 96 476 l 1,18,19
 128 494 128 494 177 505 c 128,-1,20
 226 516 226 516 261 516 c 0,21,22
 358 516 358 516 392 474 c 0,23,24
 414 446 414 446 414 391 c 0,25,26
 414 365 414 365 409 333 c 2,27,-1
 371 90 l 2,28,29
 369 82 369 82 369 76 c 0,30,31
 369 55 369 55 389 55 c 0,32,33
 405 55 405 55 435 64 c 1,34,-1
 441 8 l 1,35,36
 403 -14 403 -14 355 -14 c 0,37,38
 295 -14 295 -14 279 37 c 1,39,40
 254 16 254 16 212 1.5 c 128,-1,41
 170 -13 170 -13 126 -13 c 0,0,1
90 116 m 0,42,43
 90 58 90 58 155 58 c 128,-1,44
 220 58 220 58 281 94 c 1,45,-1
 300 210 l 1,46,47
 276 214 276 214 222 214 c 0,48,49
 105 214 105 214 92 136 c 0,50,51
 90 125 90 125 90 116 c 0,42,43
295 667 m 1,52,-1
 197 581 l 1,53,-1
 154 617 l 1,54,-1
 271 727 l 1,55,-1
 336 727 l 1,56,-1
 418 617 l 1,57,-1
 362 581 l 1,58,-1
 295 667 l 1,52,-1
EndSplineSet
EndChar

StartChar: atilde
Encoding: 227 227 166
Width: 485
GlyphClass: 2
Flags: W
LayerCount: 2
Fore
SplineSet
165 680.5 m 128,-1,1
 195 701 195 701 219 701 c 128,-1,2
 243 701 243 701 286 679.5 c 128,-1,3
 329 658 329 658 348 658 c 128,-1,4
 367 658 367 658 411 700 c 1,5,-1
 449 664 l 1,6,7
 423 630 423 630 390 608.5 c 128,-1,8
 357 587 357 587 331.5 587 c 128,-1,9
 306 587 306 587 265.5 608.5 c 128,-1,10
 225 630 225 630 206.5 630 c 128,-1,11
 188 630 188 630 150 593 c 1,12,-1
 112 630 l 1,13,0
 135 660 135 660 165 680.5 c 128,-1,1
126 -13 m 0,14,15
 61 -13 61 -13 29 25 c 0,16,17
 5 54 5 54 5 98 c 0,18,19
 5 157 5 157 32 192 c 128,-1,20
 59 227 59 227 90 241 c 0,21,22
 145 266 145 266 202 266 c 128,-1,23
 259 266 259 266 308 261 c 1,24,-1
 320 339 l 2,25,26
 323 360 323 360 323 382.5 c 128,-1,27
 323 405 323 405 313 418 c 0,28,29
 297 440 297 440 242.5 440 c 128,-1,30
 188 440 188 440 107 413 c 1,31,-1
 96 476 l 1,32,33
 128 494 128 494 177 505 c 128,-1,34
 226 516 226 516 261 516 c 0,35,36
 358 516 358 516 392 474 c 0,37,38
 414 446 414 446 414 391 c 0,39,40
 414 365 414 365 409 333 c 2,41,-1
 371 90 l 2,42,43
 369 82 369 82 369 76 c 0,44,45
 369 55 369 55 389 55 c 0,46,47
 405 55 405 55 435 64 c 1,48,-1
 441 8 l 1,49,50
 403 -14 403 -14 355 -14 c 0,51,52
 295 -14 295 -14 279 37 c 1,53,54
 254 16 254 16 212 1.5 c 128,-1,55
 170 -13 170 -13 126 -13 c 0,14,15
90 116 m 0,56,57
 90 58 90 58 155 58 c 128,-1,58
 220 58 220 58 281 94 c 1,59,-1
 300 210 l 1,60,61
 276 214 276 214 222 214 c 0,62,63
 105 214 105 214 92 136 c 0,64,65
 90 125 90 125 90 116 c 0,56,57
EndSplineSet
EndChar

StartChar: adieresis
Encoding: 228 228 167
Width: 485
GlyphClass: 2
Flags: W
LayerCount: 2
Fore
SplineSet
212.5 707 m 128,-1,1
 235 707 235 707 247.5 693 c 128,-1,2
 260 679 260 679 260 668 c 0,3,4
 260 634 260 634 239 615 c 128,-1,5
 218 596 218 596 195 596 c 128,-1,6
 172 596 172 596 160 611 c 128,-1,7
 148 626 148 626 148 637 c 0,8,9
 148 672 148 672 169 689.5 c 128,-1,0
 190 707 190 707 212.5 707 c 128,-1,1
377 707 m 128,-1,11
 400 707 400 707 412.5 693 c 128,-1,12
 425 679 425 679 425 668 c 0,13,14
 425 634 425 634 404 615 c 128,-1,15
 383 596 383 596 360 596 c 128,-1,16
 337 596 337 596 325 611 c 128,-1,17
 313 626 313 626 313 637 c 0,18,19
 313 672 313 672 333.5 689.5 c 128,-1,10
 354 707 354 707 377 707 c 128,-1,11
126 -13 m 0,20,21
 61 -13 61 -13 29 25 c 0,22,23
 5 54 5 54 5 98 c 0,24,25
 5 157 5 157 32 192 c 128,-1,26
 59 227 59 227 90 241 c 0,27,28
 145 266 145 266 202 266 c 128,-1,29
 259 266 259 266 308 261 c 1,30,-1
 320 339 l 2,31,32
 323 360 323 360 323 382.5 c 128,-1,33
 323 405 323 405 313 418 c 0,34,35
 297 440 297 440 242.5 440 c 128,-1,36
 188 440 188 440 107 413 c 1,37,-1
 96 476 l 1,38,39
 128 494 128 494 177 505 c 128,-1,40
 226 516 226 516 261 516 c 0,41,42
 358 516 358 516 392 474 c 0,43,44
 414 446 414 446 414 391 c 0,45,46
 414 365 414 365 409 333 c 2,47,-1
 371 90 l 2,48,49
 369 82 369 82 369 76 c 0,50,51
 369 55 369 55 389 55 c 0,52,53
 405 55 405 55 435 64 c 1,54,-1
 441 8 l 1,55,56
 403 -14 403 -14 355 -14 c 0,57,58
 295 -14 295 -14 279 37 c 1,59,60
 254 16 254 16 212 1.5 c 128,-1,61
 170 -13 170 -13 126 -13 c 0,20,21
90 116 m 0,62,63
 90 58 90 58 155 58 c 128,-1,64
 220 58 220 58 281 94 c 1,65,-1
 300 210 l 1,66,67
 276 214 276 214 222 214 c 0,68,69
 105 214 105 214 92 136 c 0,70,71
 90 125 90 125 90 116 c 0,62,63
EndSplineSet
EndChar

StartChar: aring
Encoding: 229 229 168
Width: 485
GlyphClass: 2
Flags: W
LayerCount: 2
Fore
SplineSet
127 -12 m 0,0,1
 62 -12 62 -12 30 26 c 0,2,3
 5 55 5 55 5 99 c 0,4,5
 5 158 5 158 32 193 c 128,-1,6
 59 228 59 228 90 242 c 0,7,8
 145 267 145 267 202.5 267 c 128,-1,9
 260 267 260 267 308 262 c 1,10,-1
 320 340 l 2,11,12
 323 361 323 361 323 383.5 c 128,-1,13
 323 406 323 406 313 420 c 0,14,15
 297 441 297 441 242.5 441 c 128,-1,16
 188 441 188 441 107 414 c 1,17,-1
 96 477 l 1,18,19
 128 495 128 495 177 506 c 128,-1,20
 226 517 226 517 261 517 c 0,21,22
 358 517 358 517 392 475 c 0,23,24
 414 447 414 447 414 392 c 0,25,26
 414 366 414 366 409 334 c 2,27,-1
 371 91 l 2,28,29
 369 83 369 83 369 77 c 0,30,31
 369 56 369 56 387.5 56 c 128,-1,32
 406 56 406 56 435 65 c 1,33,-1
 441 9 l 1,34,35
 404 -13 404 -13 355 -13 c 0,36,37
 294 -13 294 -13 280 38 c 1,38,39
 218 -12 218 -12 127 -12 c 0,0,1
90 117 m 0,40,41
 90 59 90 59 154.5 59 c 128,-1,42
 219 59 219 59 282 95 c 1,43,-1
 300 211 l 1,44,45
 276 215 276 215 223 215 c 0,46,47
 105 215 105 215 92 137 c 0,48,49
 90 126 90 126 90 117 c 0,40,41
271 587 m 128,-1,51
 221 587 221 587 202.5 613.5 c 128,-1,52
 184 640 184 640 184 669 c 0,53,54
 184 726 184 726 219.5 759 c 128,-1,55
 255 792 255 792 305 792 c 128,-1,56
 355 792 355 792 374 766 c 128,-1,57
 393 740 393 740 393 709 c 0,58,59
 393 700 393 700 392 691 c 0,60,61
 385 649 385 649 353 618 c 128,-1,50
 321 587 321 587 271 587 c 128,-1,51
244 680 m 0,62,63
 244 641 244 641 280 641 c 0,64,65
 324 641 324 641 333 691 c 0,66,67
 334 697 334 697 334 702 c 0,68,69
 334 738 334 738 296 738 c 0,70,71
 274 738 274 738 261 724 c 0,72,73
 244 705 244 705 244 680 c 0,62,63
EndSplineSet
EndChar

StartChar: ae
Encoding: 230 230 169
Width: 743
GlyphClass: 2
Flags: W
LayerCount: 2
Fore
SplineSet
682 470 m 0,0,1
 711 434 711 434 711 378.5 c 128,-1,2
 711 323 711 323 679 252 c 1,3,-1
 385 252 l 1,4,5
 382 228 382 228 382 206 c 0,6,7
 382 152 382 152 402 114 c 0,8,9
 429 62 429 62 499.5 62 c 128,-1,10
 570 62 570 62 642 99 c 1,11,-1
 660 36 l 1,12,13
 577 -13 577 -13 482.5 -13 c 128,-1,14
 388 -13 388 -13 337 54 c 1,15,16
 301 25 301 25 243 6 c 128,-1,17
 185 -13 185 -13 122.5 -13 c 128,-1,18
 60 -13 60 -13 28 25 c 1,19,20
 5 54 5 54 5 98 c 0,21,22
 5 157 5 157 32 192 c 128,-1,23
 59 227 59 227 90 241 c 0,24,25
 145 266 145 266 201.5 266 c 128,-1,26
 258 266 258 266 305 261 c 1,27,-1
 317 339 l 2,28,29
 320 360 320 360 320 382.5 c 128,-1,30
 320 405 320 405 310 418 c 0,31,32
 294 440 294 440 239 440 c 128,-1,33
 184 440 184 440 103 413 c 1,34,-1
 92 476 l 1,35,36
 124 494 124 494 173 505 c 128,-1,37
 222 516 222 516 271 516 c 0,38,39
 381 516 381 516 397 437 c 1,40,41
 455 516 455 516 559 516 c 0,42,43
 644 516 644 516 682 470 c 0,0,1
222 214 m 0,44,45
 105 214 105 214 92 136 c 0,46,47
 90 126 90 126 90 117 c 0,48,49
 90 60 90 60 157 58 c 1,50,51
 193 58 193 58 240 68.5 c 128,-1,52
 287 79 287 79 316 96 c 1,53,54
 299 140 299 140 299 194 c 0,55,56
 299 202 299 202 299 210 c 1,57,58
 275 214 275 214 222 214 c 0,44,45
622 319 m 1,59,60
 626 347 626 347 626 359 c 0,61,62
 626 442 626 442 553 442 c 0,63,64
 485 442 485 442 447 393 c 0,65,66
 420 359 420 359 405 319 c 1,67,-1
 622 319 l 1,59,60
EndSplineSet
EndChar

StartChar: ccedilla
Encoding: 231 231 170
Width: 431
GlyphClass: 2
Flags: W
LayerCount: 2
Fore
SplineSet
94 -207 m 1,0,1
 180 -153 180 -153 180 -95 c 0,2,3
 180 -75 180 -75 171 -49 c 1,4,-1
 250 -49 l 1,5,6
 257 -74 257 -74 257 -89.5 c 128,-1,7
 257 -105 257 -105 256 -113 c 0,8,9
 242 -193 242 -193 127 -255 c 1,10,-1
 94 -207 l 1,0,1
354 9 m 1,11,12
 287 -15 287 -15 233.5 -15 c 128,-1,13
 180 -15 180 -15 142 0 c 0,14,15
 57 34 57 34 37 131 c 0,16,17
 32 157 32 157 32 187 c 128,-1,18
 32 217 32 217 37 251 c 0,19,20
 58 383 58 383 134.5 449.5 c 128,-1,21
 211 516 211 516 307 516 c 0,22,23
 375 516 375 516 427 487 c 1,24,-1
 389 423 l 1,25,26
 340 440 340 440 297 440 c 0,27,28
 238 440 238 440 191.5 395 c 128,-1,29
 145 350 145 350 129 251 c 0,30,31
 124 220 124 220 124 195 c 0,32,33
 124 62 124 62 254 62 c 0,34,35
 299 62 299 62 349 75 c 1,36,-1
 354 9 l 1,11,12
EndSplineSet
EndChar

StartChar: egrave
Encoding: 232 232 171
Width: 473
GlyphClass: 2
Flags: W
LayerCount: 2
Fore
SplineSet
417 468 m 0,0,1
 445 433 445 433 445 380.5 c 128,-1,2
 445 328 445 328 413 253 c 1,3,-1
 119 253 l 1,4,5
 115 227 115 227 115 189 c 128,-1,6
 115 151 115 151 134 115 c 1,7,8
 160 62 160 62 230 62 c 128,-1,9
 300 62 300 62 366 90 c 1,10,-1
 379 28 l 1,11,12
 301 -13 301 -13 215 -13 c 0,13,14
 103 -13 103 -13 61 64 c 0,15,16
 32 116 32 116 32 191 c 0,17,18
 32 347 32 347 125 444 c 0,19,20
 195 516 195 516 287.5 516 c 128,-1,21
 380 516 380 516 417 468 c 0,0,1
356 318 m 1,22,23
 360 351 360 351 360 362 c 0,24,25
 360 442 360 442 288 442 c 0,26,27
 221 442 221 442 182 394 c 0,28,29
 151 356 151 356 139 320 c 1,30,-1
 356 318 l 1,22,23
388 577 m 1,31,-1
 232 681 l 1,32,-1
 292 754 l 1,33,-1
 433 632 l 1,34,-1
 388 577 l 1,31,-1
EndSplineSet
EndChar

StartChar: eacute
Encoding: 233 233 172
Width: 473
GlyphClass: 2
Flags: W
LayerCount: 2
Fore
SplineSet
417 468 m 0,0,1
 445 433 445 433 445 380.5 c 128,-1,2
 445 328 445 328 413 253 c 1,3,-1
 119 253 l 1,4,5
 115 227 115 227 115 189 c 128,-1,6
 115 151 115 151 134 115 c 1,7,8
 160 62 160 62 230 62 c 128,-1,9
 300 62 300 62 366 90 c 1,10,-1
 379 28 l 1,11,12
 301 -13 301 -13 215 -13 c 0,13,14
 103 -13 103 -13 61 64 c 0,15,16
 32 116 32 116 32 191 c 0,17,18
 32 347 32 347 125 444 c 0,19,20
 195 516 195 516 287.5 516 c 128,-1,21
 380 516 380 516 417 468 c 0,0,1
356 318 m 1,22,23
 360 351 360 351 360 362 c 0,24,25
 360 442 360 442 288 442 c 0,26,27
 221 442 221 442 182 394 c 0,28,29
 151 356 151 356 139 320 c 1,30,-1
 356 318 l 1,22,23
416 681 m 1,31,-1
 228 577 l 1,32,-1
 201 632 l 1,33,-1
 380 754 l 1,34,-1
 416 681 l 1,31,-1
EndSplineSet
EndChar

StartChar: ecircumflex
Encoding: 234 234 173
Width: 473
GlyphClass: 2
Flags: W
LayerCount: 2
Fore
SplineSet
317 667 m 1,0,-1
 219 581 l 1,1,-1
 176 617 l 1,2,-1
 293 727 l 1,3,-1
 358 727 l 1,4,-1
 440 617 l 1,5,-1
 384 581 l 1,6,-1
 317 667 l 1,0,-1
413 253 m 1,7,-1
 119 253 l 1,8,9
 115 227 115 227 115 189 c 128,-1,10
 115 151 115 151 134 115 c 1,11,12
 160 62 160 62 230 62 c 128,-1,13
 300 62 300 62 366 90 c 1,14,-1
 379 28 l 1,15,16
 301 -13 301 -13 215 -13 c 0,17,18
 103 -13 103 -13 61 64 c 0,19,20
 32 116 32 116 32 191 c 0,21,22
 32 347 32 347 125 444 c 0,23,24
 195 516 195 516 287.5 516 c 128,-1,25
 380 516 380 516 417 468 c 0,26,27
 445 433 445 433 445 380.5 c 128,-1,28
 445 328 445 328 413 253 c 1,7,-1
360 362 m 0,29,30
 360 442 360 442 288 442 c 0,31,32
 221 442 221 442 175 386 c 0,33,34
 151 356 151 356 139 320 c 1,35,-1
 356 318 l 1,36,37
 360 351 360 351 360 362 c 0,29,30
EndSplineSet
EndChar

StartChar: edieresis
Encoding: 235 235 174
Width: 473
GlyphClass: 2
Flags: W
LayerCount: 2
Fore
SplineSet
245 707 m 128,-1,1
 268 707 268 707 280.5 693 c 128,-1,2
 293 679 293 679 293 668 c 0,3,4
 293 634 293 634 272 615 c 128,-1,5
 251 596 251 596 228 596 c 128,-1,6
 205 596 205 596 193 611 c 128,-1,7
 181 626 181 626 181 637 c 0,8,9
 181 672 181 672 201.5 689.5 c 128,-1,0
 222 707 222 707 245 707 c 128,-1,1
410.5 707 m 128,-1,11
 433 707 433 707 445.5 693 c 128,-1,12
 458 679 458 679 458 668 c 0,13,14
 458 634 458 634 437 615 c 128,-1,15
 416 596 416 596 393 596 c 128,-1,16
 370 596 370 596 358 611 c 128,-1,17
 346 626 346 626 346 637 c 0,18,19
 346 672 346 672 367 689.5 c 128,-1,10
 388 707 388 707 410.5 707 c 128,-1,11
417 468 m 0,20,21
 445 433 445 433 445 380.5 c 128,-1,22
 445 328 445 328 413 253 c 1,23,-1
 119 253 l 1,24,25
 115 227 115 227 115 189 c 128,-1,26
 115 151 115 151 134 115 c 1,27,28
 160 62 160 62 230 62 c 128,-1,29
 300 62 300 62 366 90 c 1,30,-1
 379 28 l 1,31,32
 301 -13 301 -13 215 -13 c 0,33,34
 103 -13 103 -13 61 64 c 0,35,36
 32 116 32 116 32 191 c 0,37,38
 32 347 32 347 125 444 c 0,39,40
 195 516 195 516 287.5 516 c 128,-1,41
 380 516 380 516 417 468 c 0,20,21
356 318 m 1,42,43
 360 351 360 351 360 362 c 0,44,45
 360 442 360 442 288 442 c 0,46,47
 221 442 221 442 182 394 c 0,48,49
 151 356 151 356 139 320 c 1,50,-1
 356 318 l 1,42,43
EndSplineSet
EndChar

StartChar: igrave
Encoding: 236 236 175
Width: 224
GlyphClass: 2
Flags: W
LayerCount: 2
Fore
SplineSet
192 511 m 1,0,-1
 112 0 l 1,1,-1
 21 0 l 1,2,-1
 100 502 l 1,3,-1
 192 511 l 1,0,-1
199 577 m 1,4,-1
 43 681 l 1,5,-1
 103 754 l 1,6,-1
 244 632 l 1,7,-1
 199 577 l 1,4,-1
EndSplineSet
EndChar

StartChar: iacute
Encoding: 237 237 176
Width: 224
GlyphClass: 2
Flags: W
LayerCount: 2
Fore
SplineSet
192 511 m 1,0,-1
 112 0 l 1,1,-1
 21 0 l 1,2,-1
 100 502 l 1,3,-1
 192 511 l 1,0,-1
320 681 m 1,4,-1
 132 577 l 1,5,-1
 105 632 l 1,6,-1
 284 754 l 1,7,-1
 320 681 l 1,4,-1
EndSplineSet
EndChar

StartChar: icircumflex
Encoding: 238 238 177
Width: 224
GlyphClass: 2
Flags: W
LayerCount: 2
Fore
SplineSet
112 0 m 1,0,-1
 21 0 l 1,1,-1
 100 502 l 1,2,-1
 192 511 l 1,3,-1
 112 0 l 1,0,-1
179 667 m 1,4,-1
 81 581 l 1,5,-1
 38 617 l 1,6,-1
 155 727 l 1,7,-1
 220 727 l 1,8,-1
 302 617 l 1,9,-1
 246 581 l 1,10,-1
 179 667 l 1,4,-1
EndSplineSet
EndChar

StartChar: idieresis
Encoding: 239 239 178
Width: 224
GlyphClass: 2
Flags: W
LayerCount: 2
Fore
SplineSet
192 511 m 1,0,-1
 112 0 l 1,1,-1
 21 0 l 1,2,-1
 100 502 l 1,3,-1
 192 511 l 1,0,-1
96.5 707 m 128,-1,5
 119 707 119 707 131.5 693 c 128,-1,6
 144 679 144 679 144 668 c 0,7,8
 144 634 144 634 123 615 c 128,-1,9
 102 596 102 596 79 596 c 128,-1,10
 56 596 56 596 44 611 c 128,-1,11
 32 626 32 626 32 637 c 0,12,13
 32 672 32 672 53 689.5 c 128,-1,4
 74 707 74 707 96.5 707 c 128,-1,5
261 707 m 128,-1,15
 284 707 284 707 296.5 693 c 128,-1,16
 309 679 309 679 309 668 c 0,17,18
 309 634 309 634 288 615 c 128,-1,19
 267 596 267 596 244 596 c 128,-1,20
 221 596 221 596 209 611 c 128,-1,21
 197 626 197 626 197 637 c 0,22,23
 197 672 197 672 217.5 689.5 c 128,-1,14
 238 707 238 707 261 707 c 128,-1,15
EndSplineSet
EndChar

StartChar: eth
Encoding: 240 240 179
Width: 497
GlyphClass: 2
Flags: W
LayerCount: 2
Fore
SplineSet
109 407.5 m 128,-1,1
 166 476 166 476 247.5 476 c 128,-1,2
 329 476 329 476 367 443 c 1,3,4
 354 540 354 540 301 583 c 1,5,-1
 214 517 l 1,6,-1
 174 573 l 1,7,-1
 237 620 l 1,8,9
 186 645 186 645 116 653 c 1,10,-1
 141 720 l 1,11,12
 247 717 247 717 318 681 c 1,13,-1
 399 741 l 1,14,-1
 436 685 l 1,15,-1
 376 640 l 1,16,17
 458 559 458 559 458 404 c 0,18,19
 458 350 458 350 448 286 c 0,20,21
 401 -13 401 -13 199 -13 c 0,22,23
 102 -13 102 -13 60 56 c 0,24,25
 30 105 30 105 30 171 c 0,26,27
 30 196 30 196 34 223 c 0,28,0
 52 339 52 339 109 407.5 c 128,-1,1
123 221 m 0,29,30
 119 197 119 197 119 166.5 c 128,-1,31
 119 136 119 136 134 107 c 0,32,33
 156 63 156 63 210 63 c 128,-1,34
 264 63 264 63 301.5 116 c 128,-1,35
 339 169 339 169 361 306 c 0,36,37
 366 333 366 333 368 355 c 1,38,39
 316 403 316 403 259 403 c 0,40,41
 151 403 151 403 123 221 c 0,29,30
EndSplineSet
EndChar

StartChar: ntilde
Encoding: 241 241 180
Width: 516
GlyphClass: 2
Flags: W
LayerCount: 2
Fore
SplineSet
191 680.5 m 128,-1,1
 221 701 221 701 245 701 c 128,-1,2
 269 701 269 701 312 679.5 c 128,-1,3
 355 658 355 658 374 658 c 128,-1,4
 393 658 393 658 437 700 c 1,5,-1
 475 664 l 1,6,7
 449 630 449 630 416 608.5 c 128,-1,8
 383 587 383 587 357.5 587 c 128,-1,9
 332 587 332 587 291.5 608.5 c 128,-1,10
 251 630 251 630 232.5 630 c 128,-1,11
 214 630 214 630 176 593 c 1,12,-1
 138 630 l 1,13,0
 161 660 161 660 191 680.5 c 128,-1,1
376 379 m 0,14,15
 376 440 376 440 327 440 c 0,16,17
 289 440 289 440 243.5 420.5 c 128,-1,18
 198 401 198 401 170 373 c 1,19,-1
 111 0 l 1,20,-1
 21 0 l 1,21,-1
 101 506 l 1,22,-1
 176 506 l 1,23,-1
 176 445 l 1,24,25
 209 472 209 472 259.5 494 c 128,-1,26
 310 516 310 516 354 516 c 0,27,28
 429 516 429 516 452 471 c 0,29,30
 466 442 466 442 466 409 c 128,-1,31
 466 376 466 376 461 347 c 2,32,-1
 407 0 l 1,33,-1
 317 0 l 1,34,-1
 371 342 l 1,35,36
 376 362 376 362 376 379 c 0,14,15
EndSplineSet
EndChar

StartChar: ograve
Encoding: 242 242 181
Width: 505
GlyphClass: 2
Flags: W
LayerCount: 2
Fore
SplineSet
202 -13 m 128,-1,1
 108 -13 108 -13 62 50 c 0,2,3
 31 93 31 93 31 170 c 0,4,5
 31 206 31 206 38 251 c 0,6,7
 60 388 60 388 128.5 452 c 128,-1,8
 197 516 197 516 291 516 c 128,-1,9
 385 516 385 516 430 453 c 0,10,11
 461 411 461 411 461 334 c 0,12,13
 461 297 461 297 454 252 c 0,14,15
 433 115 433 115 364.5 51 c 128,-1,0
 296 -13 296 -13 202 -13 c 128,-1,1
278 442 m 0,16,17
 160 442 160 442 130 251 c 0,18,19
 124 212 124 212 124 181 c 0,20,21
 124 61 124 61 216 61 c 0,22,23
 264 61 264 61 305 106 c 128,-1,24
 346 151 346 151 362 251 c 0,25,26
 369 298 369 298 369 338 c 0,27,28
 369 442 369 442 278 442 c 0,16,17
370 577 m 1,29,-1
 214 681 l 1,30,-1
 274 754 l 1,31,-1
 415 632 l 1,32,-1
 370 577 l 1,29,-1
EndSplineSet
EndChar

StartChar: oacute
Encoding: 243 243 182
Width: 505
GlyphClass: 2
Flags: W
LayerCount: 2
Fore
SplineSet
202 -13 m 128,-1,1
 108 -13 108 -13 62 50 c 0,2,3
 31 93 31 93 31 170 c 0,4,5
 31 206 31 206 38 251 c 0,6,7
 60 388 60 388 128.5 452 c 128,-1,8
 197 516 197 516 291 516 c 128,-1,9
 385 516 385 516 430 453 c 0,10,11
 461 411 461 411 461 334 c 0,12,13
 461 297 461 297 454 252 c 0,14,15
 433 115 433 115 364.5 51 c 128,-1,0
 296 -13 296 -13 202 -13 c 128,-1,1
278 442 m 0,16,17
 160 442 160 442 130 251 c 0,18,19
 124 212 124 212 124 181 c 0,20,21
 124 61 124 61 216 61 c 0,22,23
 264 61 264 61 305 106 c 128,-1,24
 346 151 346 151 362 251 c 0,25,26
 369 298 369 298 369 338 c 0,27,28
 369 442 369 442 278 442 c 0,16,17
424 681 m 1,29,-1
 236 577 l 1,30,-1
 209 632 l 1,31,-1
 388 754 l 1,32,-1
 424 681 l 1,29,-1
EndSplineSet
EndChar

StartChar: ocircumflex
Encoding: 244 244 183
Width: 505
GlyphClass: 2
Flags: W
LayerCount: 2
Fore
SplineSet
202 -13 m 128,-1,1
 108 -13 108 -13 62 50 c 0,2,3
 31 93 31 93 31 170 c 0,4,5
 31 206 31 206 38 251 c 0,6,7
 60 388 60 388 128.5 452 c 128,-1,8
 197 516 197 516 291 516 c 128,-1,9
 385 516 385 516 430 453 c 0,10,11
 461 411 461 411 461 334 c 0,12,13
 461 297 461 297 454 252 c 0,14,15
 433 115 433 115 364.5 51 c 128,-1,0
 296 -13 296 -13 202 -13 c 128,-1,1
278 442 m 0,16,17
 160 442 160 442 130 251 c 0,18,19
 124 212 124 212 124 181 c 0,20,21
 124 61 124 61 216 61 c 0,22,23
 264 61 264 61 305 106 c 128,-1,24
 346 151 346 151 362 251 c 0,25,26
 369 298 369 298 369 338 c 128,-1,27
 369 378 369 378 356 402 c 0,28,29
 334 442 334 442 278 442 c 0,16,17
314 667 m 1,30,-1
 216 581 l 1,31,-1
 173 617 l 1,32,-1
 290 727 l 1,33,-1
 355 727 l 1,34,-1
 437 617 l 1,35,-1
 381 581 l 1,36,-1
 314 667 l 1,30,-1
EndSplineSet
EndChar

StartChar: otilde
Encoding: 245 245 184
Width: 505
GlyphClass: 2
Flags: W
LayerCount: 2
Fore
SplineSet
201 -13 m 128,-1,1
 107 -13 107 -13 61 50 c 0,2,3
 30 93 30 93 30 170 c 0,4,5
 30 206 30 206 37 251 c 0,6,7
 59 388 59 388 127.5 452 c 128,-1,8
 196 516 196 516 290 516 c 128,-1,9
 384 516 384 516 430 453 c 0,10,11
 460 411 460 411 460 334 c 0,12,13
 460 297 460 297 453 252 c 0,14,15
 432 115 432 115 363.5 51 c 128,-1,0
 295 -13 295 -13 201 -13 c 128,-1,1
277 442 m 0,16,17
 159 442 159 442 129 251 c 0,18,19
 123 212 123 212 123 181 c 0,20,21
 123 61 123 61 215 61 c 0,22,23
 263 61 263 61 304 106 c 128,-1,24
 345 151 345 151 361 251 c 0,25,26
 368 298 368 298 368 338 c 0,27,28
 368 442 368 442 277 442 c 0,16,17
193 680.5 m 128,-1,30
 223 701 223 701 247 701 c 128,-1,31
 271 701 271 701 314 679.5 c 128,-1,32
 357 658 357 658 376 658 c 128,-1,33
 395 658 395 658 439 700 c 1,34,-1
 477 664 l 1,35,36
 451 630 451 630 418 608.5 c 128,-1,37
 385 587 385 587 359.5 587 c 128,-1,38
 334 587 334 587 293.5 608.5 c 128,-1,39
 253 630 253 630 234.5 630 c 128,-1,40
 216 630 216 630 178 593 c 1,41,-1
 140 630 l 1,42,29
 163 660 163 660 193 680.5 c 128,-1,30
EndSplineSet
EndChar

StartChar: odieresis
Encoding: 246 246 185
Width: 505
GlyphClass: 2
Flags: W
LayerCount: 2
Fore
SplineSet
202 -13 m 128,-1,1
 108 -13 108 -13 62 50 c 0,2,3
 31 93 31 93 31 170 c 0,4,5
 31 206 31 206 38 251 c 0,6,7
 60 388 60 388 128.5 452 c 128,-1,8
 197 516 197 516 291 516 c 128,-1,9
 385 516 385 516 430 453 c 0,10,11
 461 411 461 411 461 334 c 0,12,13
 461 297 461 297 454 252 c 0,14,15
 433 115 433 115 364.5 51 c 128,-1,0
 296 -13 296 -13 202 -13 c 128,-1,1
278 442 m 0,16,17
 160 442 160 442 130 251 c 0,18,19
 124 212 124 212 124 181 c 0,20,21
 124 61 124 61 216 61 c 0,22,23
 264 61 264 61 305 106 c 128,-1,24
 346 151 346 151 362 251 c 0,25,26
 369 298 369 298 369 338 c 0,27,28
 369 442 369 442 278 442 c 0,16,17
235 707 m 128,-1,30
 258 707 258 707 270.5 693 c 128,-1,31
 283 679 283 679 283 668 c 0,32,33
 283 634 283 634 262 615 c 128,-1,34
 241 596 241 596 218 596 c 128,-1,35
 195 596 195 596 183 611 c 128,-1,36
 171 626 171 626 171 637 c 0,37,38
 171 672 171 672 191.5 689.5 c 128,-1,29
 212 707 212 707 235 707 c 128,-1,30
400.5 707 m 128,-1,40
 423 707 423 707 435.5 693 c 128,-1,41
 448 679 448 679 448 668 c 0,42,43
 448 634 448 634 427 615 c 128,-1,44
 406 596 406 596 383 596 c 128,-1,45
 360 596 360 596 348 611 c 128,-1,46
 336 626 336 626 336 637 c 0,47,48
 336 672 336 672 357 689.5 c 128,-1,39
 378 707 378 707 400.5 707 c 128,-1,40
EndSplineSet
EndChar

StartChar: divide
Encoding: 247 247 186
Width: 499
GlyphClass: 2
Flags: W
LayerCount: 2
Fore
SplineSet
236 206 m 128,-1,1
 260 206 260 206 272.5 192 c 128,-1,2
 285 178 285 178 285 167 c 0,3,4
 285 132 285 132 263.5 112 c 128,-1,5
 242 92 242 92 218 92 c 128,-1,6
 194 92 194 92 181 107.5 c 128,-1,7
 168 123 168 123 168 135 c 0,8,9
 168 170 168 170 190 188 c 128,-1,0
 212 206 212 206 236 206 c 128,-1,1
444 239 m 1,10,-1
 38 239 l 1,11,-1
 51 318 l 1,12,-1
 457 318 l 1,13,-1
 444 239 l 1,10,-1
278 469 m 128,-1,15
 302 469 302 469 314.5 455 c 128,-1,16
 327 441 327 441 327 430 c 0,17,18
 327 395 327 395 305.5 375 c 128,-1,19
 284 355 284 355 260 355 c 128,-1,20
 236 355 236 355 223 370.5 c 128,-1,21
 210 386 210 386 210 398 c 0,22,23
 210 433 210 433 232 451 c 128,-1,14
 254 469 254 469 278 469 c 128,-1,15
EndSplineSet
EndChar

StartChar: oslash
Encoding: 248 248 187
Width: 510
GlyphClass: 2
Flags: W
LayerCount: 2
Fore
SplineSet
31 174 m 0,0,1
 31 209 31 209 38 251 c 0,2,3
 60 388 60 388 129 452 c 128,-1,4
 198 516 198 516 294 516 c 0,5,6
 341 516 341 516 380 499 c 1,7,-1
 427 573 l 1,8,-1
 483 549 l 1,9,-1
 428 463 l 1,10,11
 467 416 467 416 467 331 c 0,12,13
 467 295 467 295 460 252 c 0,14,15
 439 115 439 115 370 51 c 128,-1,16
 301 -13 301 -13 205 -13 c 0,17,18
 163 -13 163 -13 130 -1 c 1,19,-1
 76 -86 l 1,20,-1
 19 -62 l 1,21,-1
 78 31 l 1,22,23
 31 79 31 79 31 174 c 0,0,1
281 442 m 0,24,25
 231 442 231 442 189 400 c 128,-1,26
 147 358 147 358 130 251 c 0,27,28
 124 211 124 211 124 176 c 128,-1,29
 124 141 124 141 133 116 c 1,30,-1
 336 430 l 1,31,32
 315 442 315 442 281 442 c 0,24,25
219 61 m 0,33,34
 267 61 267 61 309.5 106 c 128,-1,35
 352 151 352 151 368 251 c 0,36,37
 375 295 375 295 375 324.5 c 128,-1,38
 375 354 375 354 371 374 c 1,39,-1
 175 69 l 1,40,41
 191 61 191 61 219 61 c 0,33,34
EndSplineSet
EndChar

StartChar: ugrave
Encoding: 249 249 188
Width: 514
GlyphClass: 2
Flags: W
LayerCount: 2
Fore
SplineSet
326 45 m 1,0,1
 245 -13 245 -13 162.5 -13 c 128,-1,2
 80 -13 80 -13 55 32 c 0,3,4
 39 61 39 61 39 96 c 128,-1,5
 39 131 39 131 43 159 c 2,6,-1
 98 506 l 1,7,-1
 188 506 l 1,8,-1
 133 161 l 2,9,10
 129 139 129 139 129 120 c 128,-1,11
 129 101 129 101 134 88 c 0,12,13
 144 64 144 64 188 64 c 0,14,15
 271 64 271 64 329 111 c 1,16,-1
 391 503 l 1,17,-1
 481 503 l 1,18,-1
 400 -9 l 1,19,-1
 327 -9 l 1,20,-1
 326 45 l 1,0,1
355 577 m 1,21,-1
 199 681 l 1,22,-1
 259 754 l 1,23,-1
 400 632 l 1,24,-1
 355 577 l 1,21,-1
EndSplineSet
EndChar

StartChar: uacute
Encoding: 250 250 189
Width: 514
GlyphClass: 2
Flags: W
LayerCount: 2
Fore
SplineSet
326 45 m 1,0,1
 245 -13 245 -13 162.5 -13 c 128,-1,2
 80 -13 80 -13 55 32 c 0,3,4
 39 61 39 61 39 96 c 128,-1,5
 39 131 39 131 43 159 c 2,6,-1
 98 506 l 1,7,-1
 188 506 l 1,8,-1
 133 161 l 2,9,10
 129 139 129 139 129 120 c 128,-1,11
 129 101 129 101 134 88 c 0,12,13
 144 64 144 64 188 64 c 0,14,15
 271 64 271 64 329 111 c 1,16,-1
 391 503 l 1,17,-1
 481 503 l 1,18,-1
 400 -9 l 1,19,-1
 327 -9 l 1,20,-1
 326 45 l 1,0,1
440 681 m 1,21,-1
 252 577 l 1,22,-1
 225 632 l 1,23,-1
 404 754 l 1,24,-1
 440 681 l 1,21,-1
EndSplineSet
EndChar

StartChar: ucircumflex
Encoding: 251 251 190
Width: 514
GlyphClass: 2
Flags: W
LayerCount: 2
Fore
SplineSet
55 32 m 0,0,1
 39 61 39 61 39 96 c 128,-1,2
 39 131 39 131 43 159 c 2,3,-1
 98 506 l 1,4,-1
 188 506 l 1,5,-1
 133 161 l 2,6,7
 129 139 129 139 129 120 c 128,-1,8
 129 101 129 101 134 88 c 0,9,10
 144 64 144 64 188 64 c 0,11,12
 271 64 271 64 329 111 c 1,13,-1
 391 503 l 1,14,-1
 481 503 l 1,15,-1
 400 -9 l 1,16,-1
 327 -9 l 1,17,-1
 326 45 l 1,18,19
 245 -13 245 -13 162.5 -13 c 128,-1,20
 80 -13 80 -13 55 32 c 0,0,1
317 667 m 1,21,-1
 219 581 l 1,22,-1
 176 617 l 1,23,-1
 293 727 l 1,24,-1
 358 727 l 1,25,-1
 440 617 l 1,26,-1
 384 581 l 1,27,-1
 317 667 l 1,21,-1
EndSplineSet
EndChar

StartChar: udieresis
Encoding: 252 252 191
Width: 514
GlyphClass: 2
Flags: W
LayerCount: 2
Fore
SplineSet
326 45 m 1,0,1
 245 -13 245 -13 162.5 -13 c 128,-1,2
 80 -13 80 -13 55 32 c 0,3,4
 39 61 39 61 39 96 c 128,-1,5
 39 131 39 131 43 159 c 2,6,-1
 98 506 l 1,7,-1
 188 506 l 1,8,-1
 133 161 l 2,9,10
 129 139 129 139 129 120 c 128,-1,11
 129 101 129 101 134 88 c 0,12,13
 144 64 144 64 188 64 c 0,14,15
 271 64 271 64 329 111 c 1,16,-1
 391 503 l 1,17,-1
 481 503 l 1,18,-1
 400 -9 l 1,19,-1
 327 -9 l 1,20,-1
 326 45 l 1,0,1
244.5 707 m 128,-1,22
 267 707 267 707 279.5 693 c 128,-1,23
 292 679 292 679 292 668 c 0,24,25
 292 634 292 634 271 615 c 128,-1,26
 250 596 250 596 227 596 c 128,-1,27
 204 596 204 596 192 611 c 128,-1,28
 180 626 180 626 180 637 c 0,29,30
 180 672 180 672 201 689.5 c 128,-1,21
 222 707 222 707 244.5 707 c 128,-1,22
409 707 m 128,-1,32
 432 707 432 707 444.5 693 c 128,-1,33
 457 679 457 679 457 668 c 0,34,35
 457 634 457 634 436 615 c 128,-1,36
 415 596 415 596 392 596 c 128,-1,37
 369 596 369 596 357 611 c 128,-1,38
 345 626 345 626 345 637 c 0,39,40
 345 672 345 672 365.5 689.5 c 128,-1,31
 386 707 386 707 409 707 c 128,-1,32
EndSplineSet
EndChar

StartChar: yacute
Encoding: 253 253 192
Width: 472
GlyphClass: 2
Flags: W
LayerCount: 2
Fore
SplineSet
-20 -143 m 0,0,1
 35 -143 35 -143 74 -112 c 128,-1,2
 113 -81 113 -81 152 -2 c 1,3,-1
 47 500 l 1,4,-1
 143 506 l 1,5,-1
 209 95 l 1,6,-1
 392 506 l 1,7,-1
 486 506 l 1,8,-1
 241 10 l 1,9,10
 184 -108 184 -108 124 -159.5 c 128,-1,11
 64 -211 64 -211 -18 -211 c 0,12,13
 -50 -211 -50 -211 -84 -204 c 1,14,-1
 -63 -140 l 1,15,16
 -47 -143 -47 -143 -20 -143 c 0,0,1
454 681 m 1,17,-1
 266 577 l 1,18,-1
 239 632 l 1,19,-1
 418 754 l 1,20,-1
 454 681 l 1,17,-1
EndSplineSet
EndChar

StartChar: thorn
Encoding: 254 254 193
Width: 516
GlyphClass: 2
Flags: W
LayerCount: 2
Fore
SplineSet
329 516 m 0,0,1
 405 516 405 516 446 454 c 0,2,3
 475 410 475 410 475 342 c 0,4,5
 475 312 475 312 470 278 c 0,6,7
 424 -13 424 -13 202 -13 c 0,8,9
 150 -13 150 -13 111 1 c 1,10,-1
 77 -211 l 1,11,-1
 -13 -211 l 1,12,-1
 131 700 l 1,13,-1
 221 700 l 1,14,-1
 185 469 l 1,15,16
 206 484 206 484 248 500 c 128,-1,17
 290 516 290 516 329 516 c 0,0,1
302 440 m 0,18,19
 240 440 240 440 174 398 c 1,20,-1
 123 79 l 1,21,22
 158 63 158 63 215 63 c 0,23,24
 341 63 341 63 373 259 c 0,25,26
 379 299 379 299 379 330 c 0,27,28
 379 440 379 440 302 440 c 0,18,19
EndSplineSet
EndChar

StartChar: ydieresis
Encoding: 255 255 194
Width: 472
GlyphClass: 2
Flags: W
LayerCount: 2
Fore
SplineSet
-20 -143 m 0,0,1
 35 -143 35 -143 74 -112 c 128,-1,2
 113 -81 113 -81 152 -2 c 1,3,-1
 47 500 l 1,4,-1
 143 506 l 1,5,-1
 209 95 l 1,6,-1
 392 506 l 1,7,-1
 486 506 l 1,8,-1
 241 10 l 1,9,10
 184 -108 184 -108 124 -159.5 c 128,-1,11
 64 -211 64 -211 -18 -211 c 0,12,13
 -50 -211 -50 -211 -84 -204 c 1,14,-1
 -63 -140 l 1,15,16
 -47 -143 -47 -143 -20 -143 c 0,0,1
218.5 707 m 128,-1,18
 241 707 241 707 253.5 693 c 128,-1,19
 266 679 266 679 266 668 c 0,20,21
 266 634 266 634 245 615 c 128,-1,22
 224 596 224 596 201 596 c 128,-1,23
 178 596 178 596 166 611 c 128,-1,24
 154 626 154 626 154 637 c 0,25,26
 154 672 154 672 175 689.5 c 128,-1,17
 196 707 196 707 218.5 707 c 128,-1,18
383 707 m 128,-1,28
 406 707 406 707 418.5 693 c 128,-1,29
 431 679 431 679 431 668 c 0,30,31
 431 634 431 634 410 615 c 128,-1,32
 389 596 389 596 366 596 c 128,-1,33
 343 596 343 596 331 611 c 128,-1,34
 319 626 319 626 319 637 c 0,35,36
 319 672 319 672 339.5 689.5 c 128,-1,27
 360 707 360 707 383 707 c 128,-1,28
EndSplineSet
EndChar

StartChar: dotlessi
Encoding: 305 305 195
Width: 224
GlyphClass: 2
Flags: W
LayerCount: 2
Fore
SplineSet
192 511 m 1,0,-1
 112 0 l 1,1,-1
 21 0 l 1,2,-1
 100 502 l 1,3,-1
 192 511 l 1,0,-1
EndSplineSet
EndChar

StartChar: Lslash
Encoding: 321 321 196
Width: 475
GlyphClass: 2
Flags: W
LayerCount: 2
Fore
SplineSet
175 81 m 1,0,-1
 425 81 l 1,1,-1
 413 0 l 1,2,-1
 67 0 l 1,3,-1
 116 315 l 1,4,-1
 20 315 l 1,5,-1
 33 394 l 1,6,-1
 129 394 l 1,7,-1
 172 668 l 1,8,-1
 268 668 l 1,9,-1
 225 394 l 1,10,-1
 418 394 l 1,11,-1
 405 315 l 1,12,-1
 212 315 l 1,13,-1
 175 81 l 1,0,-1
EndSplineSet
EndChar

StartChar: lslash
Encoding: 322 322 197
Width: 422
GlyphClass: 2
Flags: W
LayerCount: 2
Fore
SplineSet
176 90 m 0,0,1
 176 63 176 63 205 63 c 128,-1,2
 234 63 234 63 267 73 c 1,3,-1
 272 7 l 1,4,5
 227 -13 227 -13 167 -13 c 0,6,7
 83 -13 83 -13 83 71 c 0,8,9
 83 85 83 85 85 101 c 2,10,-1
 119 315 l 1,11,-1
 32 315 l 1,12,-1
 45 394 l 1,13,-1
 132 394 l 1,14,-1
 180 700 l 1,15,-1
 271 700 l 1,16,-1
 223 394 l 1,17,-1
 430 394 l 1,18,-1
 417 315 l 1,19,-1
 210 315 l 1,20,-1
 177 102 l 2,21,22
 176 96 176 96 176 90 c 0,0,1
EndSplineSet
EndChar

StartChar: OE
Encoding: 338 338 198
Width: 896
GlyphClass: 2
Flags: W
LayerCount: 2
Fore
SplineSet
259 -13 m 0,0,1
 190 -13 190 -13 143 16.5 c 128,-1,2
 96 46 96 46 76 94 c 0,3,4
 48 162 48 162 48 245 c 0,5,6
 48 289 48 289 58 346 c 128,-1,7
 68 403 68 403 92 463 c 128,-1,8
 116 523 116 523 153.5 573 c 128,-1,9
 191 623 191 623 247 652 c 128,-1,10
 303 681 303 681 372 681 c 0,11,12
 476 681 476 681 521 614 c 1,13,-1
 529 668 l 1,14,-1
 900 668 l 1,15,-1
 877 587 l 1,16,-1
 612 587 l 1,17,-1
 580 385 l 1,18,-1
 839 385 l 1,19,-1
 827 306 l 1,20,-1
 568 306 l 1,21,-1
 532 81 l 1,22,-1
 807 81 l 1,23,-1
 804 0 l 1,24,-1
 424 0 l 1,25,-1
 432 56 l 1,26,27
 367 -13 367 -13 259 -13 c 0,0,1
275 72 m 0,28,29
 358 72 358 72 409 145 c 128,-1,30
 460 218 460 218 478 334 c 0,31,32
 485 383 485 383 485 415 c 128,-1,33
 485 447 485 447 483 466 c 0,34,35
 478 525 478 525 446 560.5 c 128,-1,36
 414 596 414 596 358 596 c 0,37,38
 275 596 275 596 224 523.5 c 128,-1,39
 173 451 173 451 154 334 c 1,40,41
 148 287 148 287 148 255 c 128,-1,42
 148 223 148 223 150 202 c 0,43,44
 155 144 155 144 187 108 c 128,-1,45
 219 72 219 72 275 72 c 0,28,29
EndSplineSet
EndChar

StartChar: oe
Encoding: 339 339 199
Width: 809
GlyphClass: 2
Flags: W
LayerCount: 2
Fore
SplineSet
748 470 m 0,0,1
 777 434 777 434 777 378.5 c 128,-1,2
 777 323 777 323 745 252 c 1,3,-1
 451 252 l 1,4,5
 448 228 448 228 448 206 c 0,6,7
 448 152 448 152 468 114 c 0,8,9
 495 62 495 62 565.5 62 c 128,-1,10
 636 62 636 62 708 99 c 1,11,-1
 726 36 l 1,12,13
 643 -13 643 -13 551 -13 c 0,14,15
 427 -13 427 -13 387 84 c 1,16,17
 317 -13 317 -13 205 -13 c 0,18,19
 109 -13 109 -13 62 50 c 0,20,21
 31 93 31 93 31 170 c 0,22,23
 31 207 31 207 38 251 c 0,24,25
 60 388 60 388 129 452 c 128,-1,26
 198 516 198 516 294 516 c 0,27,28
 410 516 410 516 445 423 c 1,29,30
 516 516 516 516 625 516 c 0,31,32
 710 516 710 516 748 470 c 0,0,1
339 427.5 m 128,-1,34
 318 442 318 442 274.5 442 c 128,-1,35
 231 442 231 442 189 400 c 128,-1,36
 147 358 147 358 130 251 c 0,37,38
 124 213 124 213 124 182 c 0,39,40
 124 61 124 61 219 61 c 0,41,42
 267 61 267 61 309 106 c 128,-1,43
 351 151 351 151 367 251 c 1,44,45
 376 295 376 295 376 324 c 128,-1,46
 376 353 376 353 371 370 c 0,47,33
 360 413 360 413 339 427.5 c 128,-1,34
688 319 m 1,48,49
 692 347 692 347 692 359 c 0,50,51
 692 442 692 442 619 442 c 0,52,53
 551 442 551 442 513 393 c 0,54,55
 486 359 486 359 471 319 c 1,56,-1
 688 319 l 1,48,49
EndSplineSet
EndChar

StartChar: Scaron
Encoding: 352 352 200
Width: 489
GlyphClass: 2
Flags: W
LayerCount: 2
Fore
SplineSet
191 -13 m 0,0,1
 140 -13 140 -13 84.5 -2 c 128,-1,2
 29 9 29 9 -3 26 c 1,3,-1
 36 111 l 1,4,5
 128 72 128 72 193 72 c 128,-1,6
 258 72 258 72 296 100 c 1,7,8
 341 135 341 135 341 187 c 0,9,10
 341 223 341 223 313 251 c 0,11,12
 281 282 281 282 192 330 c 1,13,14
 162 345 162 345 150.5 355 c 128,-1,15
 139 365 139 365 127.5 375.5 c 128,-1,16
 116 386 116 386 110.5 395 c 128,-1,17
 105 404 105 404 98.5 417.5 c 128,-1,18
 92 431 92 431 90 444.5 c 128,-1,19
 88 458 88 458 88 476 c 0,20,21
 88 578 88 578 167 635 c 0,22,23
 231 681 231 681 314 681 c 128,-1,24
 397 681 397 681 478 649 c 1,25,-1
 440 569 l 1,26,27
 367 596 367 596 309 596 c 128,-1,28
 251 596 251 596 220 572.5 c 128,-1,29
 189 549 189 549 182 508 c 0,30,31
 181 503 181 503 181 497 c 0,32,33
 181 469 181 469 206.5 444.5 c 128,-1,34
 232 420 232 420 279.5 393 c 128,-1,35
 327 366 327 366 350 350 c 0,36,37
 435 287 435 287 435 207 c 0,38,39
 435 192 435 192 433 177 c 0,40,41
 419 93 419 93 352.5 40 c 128,-1,42
 286 -13 286 -13 191 -13 c 0,0,1
340 781 m 1,43,-1
 446 874 l 1,44,-1
 486 835 l 1,45,-1
 365 721 l 1,46,-1
 299 721 l 1,47,-1
 213 835 l 1,48,-1
 265 874 l 1,49,-1
 340 781 l 1,43,-1
EndSplineSet
EndChar

StartChar: scaron
Encoding: 353 353 201
Width: 410
GlyphClass: 2
Flags: W
LayerCount: 2
Fore
SplineSet
268 632 m 1,0,-1
 373 725 l 1,1,-1
 413 686 l 1,2,-1
 292 572 l 1,3,-1
 226 572 l 1,4,-1
 140 686 l 1,5,-1
 192 725 l 1,6,-1
 268 632 l 1,0,-1
28 92 m 1,7,8
 90 63 90 63 145 63 c 128,-1,9
 200 63 200 63 228 84 c 1,10,11
 263 108 263 108 263 145 c 0,12,13
 263 192 263 192 191 220 c 0,14,15
 158 232 158 232 125 246 c 128,-1,16
 92 260 92 260 75 286.5 c 128,-1,17
 58 313 58 313 58 334 c 0,18,19
 58 425 58 425 125 476 c 0,20,21
 179 516 179 516 261 516 c 128,-1,22
 343 516 343 516 389 487 c 1,23,-1
 357 420 l 1,24,25
 303 440 303 440 253.5 440 c 128,-1,26
 204 440 204 440 178 422 c 0,27,28
 145 400 145 400 145 363 c 0,29,30
 145 317 145 317 218 291 c 0,31,32
 251 279 251 279 284 264.5 c 128,-1,33
 317 250 317 250 334.5 224 c 128,-1,34
 352 198 352 198 352 177 c 0,35,36
 352 90 352 90 284 34 c 0,37,38
 227 -13 227 -13 136 -13 c 0,39,40
 94 -13 94 -13 53.5 -2 c 128,-1,41
 13 9 13 9 -6 24 c 1,42,-1
 28 92 l 1,7,8
EndSplineSet
EndChar

StartChar: Ydieresis
Encoding: 376 376 202
Width: 518
GlyphClass: 2
Flags: W
LayerCount: 2
Fore
SplineSet
59 668 m 1,0,-1
 167 668 l 1,1,-1
 267 353 l 1,2,-1
 471 668 l 1,3,-1
 572 668 l 1,4,-1
 303 275 l 1,5,-1
 260 0 l 1,6,-1
 164 0 l 1,7,-1
 207 275 l 1,8,-1
 59 668 l 1,0,-1
275 839 m 128,-1,10
 298 839 298 839 310.5 825 c 128,-1,11
 323 811 323 811 323 800 c 0,12,13
 323 766 323 766 302 747 c 128,-1,14
 281 728 281 728 258 728 c 128,-1,15
 235 728 235 728 223 743 c 128,-1,16
 211 758 211 758 211 769 c 0,17,18
 211 804 211 804 231.5 821.5 c 128,-1,9
 252 839 252 839 275 839 c 128,-1,10
440.5 839 m 128,-1,20
 463 839 463 839 475.5 825 c 128,-1,21
 488 811 488 811 488 800 c 0,22,23
 488 766 488 766 467 747 c 128,-1,24
 446 728 446 728 423 728 c 128,-1,25
 400 728 400 728 388 743 c 128,-1,26
 376 758 376 758 376 769 c 0,27,28
 376 804 376 804 397 821.5 c 128,-1,19
 418 839 418 839 440.5 839 c 128,-1,20
EndSplineSet
EndChar

StartChar: Zcaron
Encoding: 381 381 203
Width: 520
GlyphClass: 2
Flags: W
LayerCount: 2
Fore
SplineSet
120 81 m 1,0,-1
 453 81 l 1,1,-1
 441 0 l 1,2,-1
 0 0 l 1,3,-1
 1 65 l 1,4,-1
 397 587 l 1,5,-1
 98 587 l 1,6,-1
 100 668 l 1,7,-1
 517 668 l 1,8,-1
 513 599 l 1,9,-1
 120 81 l 1,0,-1
340 784 m 1,10,-1
 445 877 l 1,11,-1
 485 838 l 1,12,-1
 364 724 l 1,13,-1
 298 724 l 1,14,-1
 212 838 l 1,15,-1
 264 877 l 1,16,-1
 340 784 l 1,10,-1
EndSplineSet
EndChar

StartChar: zcaron
Encoding: 382 382 204
Width: 436
GlyphClass: 2
Flags: W
LayerCount: 2
Fore
SplineSet
-7 0 m 1,0,-1
 -7 58 l 1,1,-1
 306 432 l 1,2,-1
 80 432 l 1,3,-1
 82 506 l 1,4,-1
 415 506 l 1,5,-1
 415 444 l 1,6,-1
 101 74 l 1,7,-1
 362 74 l 1,8,-1
 361 0 l 1,9,-1
 -7 0 l 1,0,-1
280 632 m 1,10,-1
 385 725 l 1,11,-1
 425 686 l 1,12,-1
 304 572 l 1,13,-1
 238 572 l 1,14,-1
 152 686 l 1,15,-1
 204 725 l 1,16,-1
 280 632 l 1,10,-1
EndSplineSet
EndChar

StartChar: florin
Encoding: 402 402 205
Width: 517
GlyphClass: 2
Flags: W
LayerCount: 2
Fore
SplineSet
52 -237 m 0,0,1
 0 -237 0 -237 -60 -219 c 1,2,-1
 -29 -148 l 1,3,4
 10 -158 10 -158 58.5 -158 c 128,-1,5
 107 -158 107 -158 127.5 -136.5 c 128,-1,6
 148 -115 148 -115 157 -61 c 2,7,-1
 235 432 l 1,8,-1
 142 432 l 1,9,-1
 163 506 l 1,10,-1
 247 506 l 1,11,-1
 253 543 l 1,12,13
 267 637 267 637 313 679.5 c 128,-1,14
 359 722 359 722 449 722 c 0,15,16
 502 722 502 722 562 704 c 1,17,-1
 531 633 l 1,18,19
 492 643 492 643 442 643 c 128,-1,20
 392 643 392 643 372 621.5 c 128,-1,21
 352 600 352 600 344 546 c 2,22,-1
 338 506 l 1,23,-1
 475 506 l 1,24,-1
 453 432 l 1,25,-1
 326 432 l 1,26,-1
 248 -58 l 2,27,28
 234 -152 234 -152 188 -194.5 c 128,-1,29
 142 -237 142 -237 52 -237 c 0,0,1
EndSplineSet
EndChar

StartChar: circumflex
Encoding: 710 710 206
Width: 384
GlyphClass: 2
Flags: W
LayerCount: 2
Fore
SplineSet
298 667 m 1,0,-1
 200 581 l 1,1,-1
 157 617 l 1,2,-1
 274 727 l 1,3,-1
 339 727 l 1,4,-1
 421 617 l 1,5,-1
 365 581 l 1,6,-1
 298 667 l 1,0,-1
EndSplineSet
EndChar

StartChar: caron
Encoding: 711 711 207
Width: 432
GlyphClass: 2
Flags: W
LayerCount: 2
Fore
SplineSet
323 632 m 1,0,-1
 428 725 l 1,1,-1
 468 686 l 1,2,-1
 347 572 l 1,3,-1
 281 572 l 1,4,-1
 195 686 l 1,5,-1
 247 725 l 1,6,-1
 323 632 l 1,0,-1
EndSplineSet
EndChar

StartChar: breve
Encoding: 728 728 208
Width: 336
GlyphClass: 2
Flags: W
LayerCount: 2
Fore
SplineSet
224 657 m 0,0,1
 224 620 224 620 269 620 c 128,-1,2
 314 620 314 620 323 670 c 1,3,-1
 382 670 l 1,4,5
 375 627 375 627 342 596.5 c 128,-1,6
 309 566 309 566 255.5 566 c 128,-1,7
 202 566 202 566 183 592.5 c 128,-1,8
 164 619 164 619 164 649 c 0,9,10
 164 659 164 659 166 670 c 1,11,-1
 225 670 l 1,12,13
 224 663 224 663 224 657 c 0,0,1
EndSplineSet
EndChar

StartChar: dotaccent
Encoding: 729 729 209
Width: 202
GlyphClass: 2
Flags: W
LayerCount: 2
Fore
SplineSet
208.5 682 m 128,-1,1
 234 682 234 682 247.5 666.5 c 128,-1,2
 261 651 261 651 261 639 c 0,3,4
 261 600 261 600 237.5 579.5 c 128,-1,5
 214 559 214 559 189 559 c 128,-1,6
 164 559 164 559 150.5 575.5 c 128,-1,7
 137 592 137 592 137 604 c 0,8,9
 137 643 137 643 160 662.5 c 128,-1,0
 183 682 183 682 208.5 682 c 128,-1,1
EndSplineSet
EndChar

StartChar: ring
Encoding: 730 730 210
Width: 335
GlyphClass: 2
Flags: W
LayerCount: 2
Fore
SplineSet
254 587 m 128,-1,1
 204 587 204 587 185.5 613.5 c 128,-1,2
 167 640 167 640 167 669 c 0,3,4
 167 726 167 726 202.5 759 c 128,-1,5
 238 792 238 792 288 792 c 128,-1,6
 338 792 338 792 357 766 c 128,-1,7
 376 740 376 740 376 709 c 0,8,9
 376 700 376 700 375 691 c 0,10,11
 368 649 368 649 336 618 c 128,-1,0
 304 587 304 587 254 587 c 128,-1,1
227 680 m 0,12,13
 227 641 227 641 263 641 c 0,14,15
 307 641 307 641 316 691 c 0,16,17
 317 697 317 697 317 702 c 0,18,19
 317 738 317 738 279 738 c 0,20,21
 257 738 257 738 244 724 c 0,22,23
 227 705 227 705 227 680 c 0,12,13
EndSplineSet
EndChar

StartChar: ogonek
Encoding: 731 731 211
Width: 332
GlyphClass: 2
Flags: W
LayerCount: 2
Fore
SplineSet
141 -133.5 m 128,-1,1
 150 -143 150 -143 171.5 -143 c 128,-1,2
 193 -143 193 -143 231 -130 c 1,3,-1
 233 -200 l 1,4,5
 180 -221 180 -221 134.5 -221 c 128,-1,6
 89 -221 89 -221 65 -199.5 c 128,-1,7
 41 -178 41 -178 41 -150 c 0,8,9
 41 -144 41 -144 42 -137 c 0,10,11
 52 -72 52 -72 120 -13 c 1,12,-1
 202 -13 l 1,13,14
 140 -70 140 -70 134 -108 c 0,15,0
 132 -124 132 -124 141 -133.5 c 128,-1,1
EndSplineSet
EndChar

StartChar: tilde
Encoding: 732 732 212
Width: 515
GlyphClass: 2
Flags: W
LayerCount: 2
Fore
SplineSet
246 680.5 m 128,-1,1
 276 701 276 701 300 701 c 128,-1,2
 324 701 324 701 367 679.5 c 128,-1,3
 410 658 410 658 429 658 c 128,-1,4
 448 658 448 658 492 700 c 1,5,-1
 530 664 l 1,6,7
 504 630 504 630 471 608.5 c 128,-1,8
 438 587 438 587 412.5 587 c 128,-1,9
 387 587 387 587 346.5 608.5 c 128,-1,10
 306 630 306 630 287.5 630 c 128,-1,11
 269 630 269 630 231 593 c 1,12,-1
 193 630 l 1,13,0
 216 660 216 660 246 680.5 c 128,-1,1
EndSplineSet
EndChar

StartChar: hungarumlaut
Encoding: 733 733 213
Width: 503
GlyphClass: 2
Flags: W
LayerCount: 2
Fore
SplineSet
363 666 m 1,0,-1
 197 526 l 1,1,-1
 157 571 l 1,2,-1
 309 726 l 1,3,-1
 363 666 l 1,0,-1
541 662 m 1,4,-1
 375 522 l 1,5,-1
 335 567 l 1,6,-1
 488 723 l 1,7,-1
 541 662 l 1,4,-1
EndSplineSet
EndChar

StartChar: endash
Encoding: 8211 8211 214
Width: 557
GlyphClass: 2
Flags: W
LayerCount: 2
Fore
SplineSet
498 318 m 1,0,-1
 485 239 l 1,1,-1
 55 239 l 1,2,-1
 68 318 l 1,3,-1
 498 318 l 1,0,-1
EndSplineSet
EndChar

StartChar: emdash
Encoding: 8212 8212 215
Width: 837
GlyphClass: 2
Flags: W
LayerCount: 2
Fore
SplineSet
778 318 m 1,0,-1
 765 239 l 1,1,-1
 55 239 l 1,2,-1
 68 318 l 1,3,-1
 778 318 l 1,0,-1
EndSplineSet
EndChar

StartChar: quoteleft
Encoding: 8216 8216 216
Width: 222
GlyphClass: 2
Flags: W
LayerCount: 2
Fore
SplineSet
289 719 m 1,0,1
 178 610 178 610 178 526 c 0,2,3
 178 502 178 502 186 475 c 1,4,-1
 91 475 l 1,5,6
 86 491 86 491 86 505.5 c 128,-1,7
 86 520 86 520 88 532 c 0,8,9
 104 637 104 637 206 719 c 1,10,-1
 289 719 l 1,0,1
EndSplineSet
EndChar

StartChar: quoteright
Encoding: 8217 8217 217
Width: 256
GlyphClass: 2
Flags: W
LayerCount: 2
Fore
SplineSet
69 456 m 1,0,1
 180 565 180 565 180 649 c 0,2,3
 180 673 180 673 172 700 c 1,4,-1
 267 700 l 1,5,6
 272 684 272 684 272 669.5 c 128,-1,7
 272 655 272 655 270 643 c 0,8,9
 254 538 254 538 152 456 c 1,10,-1
 69 456 l 1,0,1
EndSplineSet
EndChar

StartChar: quotesinglbase
Encoding: 8218 8218 218
Width: 216
GlyphClass: 2
Flags: W
LayerCount: 2
Fore
SplineSet
-75 -128 m 1,0,1
 35 -20 35 -20 35 68 c 0,2,3
 35 90 35 90 28 116 c 1,4,-1
 123 116 l 1,5,6
 128 100 128 100 128 85.5 c 128,-1,7
 128 71 128 71 126 59 c 0,8,9
 108 -46 108 -46 7 -128 c 1,10,-1
 -75 -128 l 1,0,1
EndSplineSet
EndChar

StartChar: quotedblleft
Encoding: 8220 8220 219
Width: 392
GlyphClass: 2
Flags: W
LayerCount: 2
Fore
SplineSet
459 719 m 1,0,1
 348 610 348 610 348 526 c 0,2,3
 348 502 348 502 356 475 c 1,4,-1
 261 475 l 1,5,6
 256 491 256 491 256 505.5 c 128,-1,7
 256 520 256 520 258 532 c 0,8,9
 274 637 274 637 376 719 c 1,10,-1
 459 719 l 1,0,1
289 719 m 1,11,12
 178 610 178 610 178 526 c 0,13,14
 178 502 178 502 186 475 c 1,15,-1
 91 475 l 1,16,17
 86 491 86 491 86 505.5 c 128,-1,18
 86 520 86 520 88 532 c 0,19,20
 104 637 104 637 206 719 c 1,21,-1
 289 719 l 1,11,12
EndSplineSet
EndChar

StartChar: quotedblright
Encoding: 8221 8221 220
Width: 426
GlyphClass: 2
Flags: W
LayerCount: 2
Fore
SplineSet
69 456 m 1,0,1
 180 565 180 565 180 649 c 0,2,3
 180 673 180 673 172 700 c 1,4,-1
 267 700 l 1,5,6
 272 684 272 684 272 669.5 c 128,-1,7
 272 655 272 655 270 643 c 0,8,9
 254 538 254 538 152 456 c 1,10,-1
 69 456 l 1,0,1
239 456 m 1,11,12
 350 565 350 565 350 649 c 0,13,14
 350 673 350 673 342 700 c 1,15,-1
 437 700 l 1,16,17
 442 684 442 684 442 669.5 c 128,-1,18
 442 655 442 655 440 643 c 0,19,20
 424 538 424 538 322 456 c 1,21,-1
 239 456 l 1,11,12
EndSplineSet
EndChar

StartChar: quotedblbase
Encoding: 8222 8222 221
Width: 386
GlyphClass: 2
Flags: W
LayerCount: 2
Fore
SplineSet
-75 -128 m 1,0,1
 35 -20 35 -20 35 68 c 0,2,3
 35 90 35 90 28 116 c 1,4,-1
 123 116 l 1,5,6
 128 100 128 100 128 85.5 c 128,-1,7
 128 71 128 71 126 59 c 0,8,9
 108 -46 108 -46 7 -128 c 1,10,-1
 -75 -128 l 1,0,1
94 -128 m 1,11,12
 205 -20 205 -20 205 68 c 0,13,14
 205 90 205 90 198 116 c 1,15,-1
 293 116 l 1,16,17
 298 100 298 100 298 85.5 c 128,-1,18
 298 71 298 71 296 59 c 0,19,20
 278 -46 278 -46 177 -128 c 1,21,-1
 94 -128 l 1,11,12
EndSplineSet
EndChar

StartChar: dagger
Encoding: 8224 8224 222
Width: 424
GlyphClass: 2
Flags: W
LayerCount: 2
Fore
SplineSet
427 480 m 1,0,-1
 413 392 l 1,1,-1
 253 407 l 1,2,-1
 214 0 l 1,3,-1
 108 0 l 1,4,-1
 197 407 l 1,5,-1
 43 392 l 1,6,-1
 57 480 l 1,7,-1
 206 465 l 1,8,-1
 211 669 l 1,9,-1
 321 669 l 1,10,-1
 262 465 l 1,11,-1
 427 480 l 1,0,-1
EndSplineSet
EndChar

StartChar: daggerdbl
Encoding: 8225 8225 223
Width: 430
GlyphClass: 2
Flags: W
LayerCount: 2
Fore
SplineSet
268 341 m 1,0,-1
 227 215 l 1,1,-1
 372 228 l 1,2,-1
 359 150 l 1,3,-1
 218 163 l 1,4,-1
 217 0 l 1,5,-1
 123 0 l 1,6,-1
 171 163 l 1,7,-1
 26 150 l 1,8,-1
 39 228 l 1,9,-1
 180 215 l 1,10,-1
 180 341 l 1,11,-1
 218 459 l 1,12,-1
 73 446 l 1,13,-1
 86 525 l 1,14,-1
 226 511 l 1,15,-1
 229 674 l 1,16,-1
 323 674 l 1,17,-1
 273 511 l 1,18,-1
 419 525 l 1,19,-1
 406 446 l 1,20,-1
 265 459 l 1,21,-1
 268 341 l 1,0,-1
EndSplineSet
EndChar

StartChar: bullet
Encoding: 8226 8226 224
Width: 368
GlyphClass: 2
Flags: W
LayerCount: 2
Fore
SplineSet
206.5 440 m 128,-1,1
 256 440 256 440 281.5 410 c 128,-1,2
 307 380 307 380 307 344 c 0,3,4
 307 281 307 281 263 243.5 c 128,-1,5
 219 206 219 206 169.5 206 c 128,-1,6
 120 206 120 206 95 236 c 128,-1,7
 70 266 70 266 70 302 c 0,8,9
 70 364 70 364 113.5 402 c 128,-1,0
 157 440 157 440 206.5 440 c 128,-1,1
EndSplineSet
EndChar

StartChar: ellipsis
Encoding: 8230 8230 225
Width: 666
GlyphClass: 2
Flags: W
LayerCount: 2
Fore
SplineSet
84 117 m 128,-1,1
 109 117 109 117 123 101.5 c 128,-1,2
 137 86 137 86 137 74 c 0,3,4
 137 36 137 36 113.5 15 c 128,-1,5
 90 -6 90 -6 65 -6 c 128,-1,6
 40 -6 40 -6 26.5 10 c 128,-1,7
 13 26 13 26 13 39 c 0,8,9
 13 78 13 78 36 97.5 c 128,-1,0
 59 117 59 117 84 117 c 128,-1,1
306 117 m 128,-1,11
 331 117 331 117 345 101.5 c 128,-1,12
 359 86 359 86 359 74 c 0,13,14
 359 36 359 36 335.5 15 c 128,-1,15
 312 -6 312 -6 287 -6 c 128,-1,16
 262 -6 262 -6 248.5 10 c 128,-1,17
 235 26 235 26 235 39 c 0,18,19
 235 78 235 78 258 97.5 c 128,-1,10
 281 117 281 117 306 117 c 128,-1,11
528 117 m 128,-1,21
 553 117 553 117 567 101.5 c 128,-1,22
 581 86 581 86 581 74 c 0,23,24
 581 36 581 36 557.5 15 c 128,-1,25
 534 -6 534 -6 509 -6 c 128,-1,26
 484 -6 484 -6 470.5 10 c 128,-1,27
 457 26 457 26 457 39 c 0,28,29
 457 78 457 78 480 97.5 c 128,-1,20
 503 117 503 117 528 117 c 128,-1,21
EndSplineSet
EndChar

StartChar: perthousand
Encoding: 8240 8240 226
Width: 1061
GlyphClass: 2
Flags: W
LayerCount: 2
Fore
SplineSet
594 415 m 0,0,1
 701 415 701 415 701 292 c 0,2,3
 701 255 701 255 693 206 c 0,4,5
 674 91 674 91 632.5 43.5 c 128,-1,6
 591 -4 591 -4 526 -4 c 0,7,8
 418 -4 418 -4 418 120 c 0,9,10
 418 156 418 156 426 204 c 0,11,12
 445 320 445 320 486.5 367.5 c 128,-1,13
 528 415 528 415 594 415 c 0,0,1
629 324 m 0,14,15
 618 353 618 353 582.5 353 c 128,-1,16
 547 353 547 353 526.5 321.5 c 128,-1,17
 506 290 506 290 492 206 c 1,18,19
 486 158 486 158 486 129.5 c 128,-1,20
 486 101 486 101 490 88 c 1,21,22
 501 60 501 60 536.5 60 c 128,-1,23
 572 60 572 60 593 90.5 c 128,-1,24
 614 121 614 121 624 186.5 c 128,-1,25
 634 252 634 252 634 280.5 c 128,-1,26
 634 309 634 309 629 324 c 0,14,15
918 415 m 0,27,28
 1025 415 1025 415 1025 292 c 0,29,30
 1025 255 1025 255 1017 206 c 0,31,32
 998 91 998 91 956.5 43.5 c 128,-1,33
 915 -4 915 -4 850 -4 c 0,34,35
 742 -4 742 -4 742 120 c 0,36,37
 742 156 742 156 750 204 c 0,38,39
 769 320 769 320 810.5 367.5 c 128,-1,40
 852 415 852 415 918 415 c 0,27,28
953 324 m 0,41,42
 942 353 942 353 906.5 353 c 128,-1,43
 871 353 871 353 850.5 321.5 c 128,-1,44
 830 290 830 290 816 206 c 1,45,46
 810 158 810 158 810 129.5 c 128,-1,47
 810 101 810 101 814 88 c 1,48,49
 825 60 825 60 860.5 60 c 128,-1,50
 896 60 896 60 917 90.5 c 128,-1,51
 938 121 938 121 948 186.5 c 128,-1,52
 958 252 958 252 958 280.5 c 128,-1,53
 958 309 958 309 953 324 c 0,41,42
165 296 m 0,54,55
 59 296 59 296 59 421 c 0,56,57
 59 457 59 457 66 504 c 0,58,59
 84 620 84 620 126.5 667.5 c 128,-1,60
 169 715 169 715 234.5 715 c 128,-1,61
 300 715 300 715 326 668 c 0,62,63
 341 641 341 641 341 597 c 128,-1,64
 341 553 341 553 334 506 c 0,65,66
 315 391 315 391 273 343.5 c 128,-1,67
 231 296 231 296 165 296 c 0,54,55
269 624 m 0,68,69
 258 653 258 653 222.5 653 c 128,-1,70
 187 653 187 653 166 621.5 c 128,-1,71
 145 590 145 590 135.5 524 c 128,-1,72
 126 458 126 458 126 429.5 c 128,-1,73
 126 401 126 401 130 388 c 1,74,75
 141 360 141 360 176.5 360 c 128,-1,76
 212 360 212 360 233 390.5 c 128,-1,77
 254 421 254 421 264 486.5 c 128,-1,78
 274 552 274 552 274 580.5 c 128,-1,79
 274 609 274 609 269 624 c 0,68,69
624 706 m 1,80,-1
 189 -42 l 1,81,-1
 118 -16 l 1,82,-1
 555 732 l 1,83,-1
 624 706 l 1,80,-1
EndSplineSet
EndChar

StartChar: guilsinglleft
Encoding: 8249 8249 227
Width: 322
GlyphClass: 2
Flags: W
LayerCount: 2
Fore
SplineSet
297 431 m 1,0,-1
 123 277 l 1,1,-1
 248 124 l 1,2,-1
 182 73 l 1,3,-1
 40 253 l 1,4,-1
 47 301 l 1,5,-1
 247 481 l 1,6,-1
 297 431 l 1,0,-1
EndSplineSet
EndChar

StartChar: guilsinglright
Encoding: 8250 8250 228
Width: 317
GlyphClass: 2
Flags: W
LayerCount: 2
Fore
SplineSet
194 308 m 1,0,-1
 71 462 l 1,1,-1
 137 512 l 1,2,-1
 279 332 l 1,3,-1
 271 284 l 1,4,-1
 72 104 l 1,5,-1
 22 155 l 1,6,-1
 194 308 l 1,0,-1
EndSplineSet
EndChar

StartChar: fraction
Encoding: 8260 8260 229
Width: 403
GlyphClass: 2
Flags: W
LayerCount: 2
Fore
SplineSet
460 684 m 1,0,-1
 24 -64 l 1,1,-1
 -47 -38 l 1,2,-1
 391 710 l 1,3,-1
 460 684 l 1,0,-1
EndSplineSet
EndChar

StartChar: Euro
Encoding: 8364 8364 230
Width: 581
GlyphClass: 2
Flags: W
LayerCount: 2
Fore
SplineSet
221 339 m 2,0,-1
 215 296 l 1,1,-1
 411 296 l 1,2,-1
 401 232 l 1,3,-1
 214 232 l 1,4,5
 225 69 225 69 389 69 c 0,6,7
 441 69 441 69 501 81 c 1,8,-1
 502 6 l 1,9,10
 421 -13 421 -13 357 -13 c 0,11,12
 116 -13 116 -13 115 232 c 1,13,-1
 29 232 l 1,14,-1
 39 296 l 1,15,-1
 119 296 l 1,16,17
 122 330 122 330 133 382 c 1,18,-1
 53 382 l 1,19,-1
 63 446 l 1,20,-1
 151 446 l 1,21,22
 229 681 229 681 455 681 c 0,23,24
 523 681 523 681 603 658 c 1,25,-1
 573 583 l 1,26,27
 508 598 508 598 457 598 c 0,28,29
 307 598 307 598 248 446 c 1,30,-1
 435 446 l 1,31,-1
 425 382 l 1,32,-1
 229 382 l 1,33,34
 225 365 225 365 221 339 c 2,0,-1
EndSplineSet
EndChar

StartChar: trademark
Encoding: 8482 8482 231
Width: 747
GlyphClass: 2
Flags: W
LayerCount: 2
Fore
SplineSet
191 616 m 1,0,-1
 95 616 l 1,1,-1
 103 664 l 1,2,-1
 349 664 l 1,3,-1
 341 616 l 1,4,-1
 244 616 l 1,5,-1
 193 293 l 1,6,-1
 140 293 l 1,7,-1
 191 616 l 1,0,-1
522 389 m 1,8,-1
 667 664 l 1,9,-1
 729 664 l 1,10,-1
 688 293 l 1,11,-1
 638 293 l 1,12,-1
 671 557 l 2,13,14
 675 587 675 587 678 603 c 1,15,-1
 534 334 l 1,16,-1
 493 334 l 1,17,-1
 434 603 l 1,18,19
 431 587 431 587 427 557 c 1,20,-1
 376 293 l 1,21,-1
 327 293 l 1,22,-1
 404 664 l 1,23,-1
 466 664 l 1,24,-1
 522 389 l 1,8,-1
EndSplineSet
EndChar

StartChar: minus
Encoding: 8722 8722 232
Width: 504
GlyphClass: 2
Flags: W
LayerCount: 2
Fore
SplineSet
444 310 m 1,0,-1
 434 249 l 1,1,-1
 56 249 l 1,2,-1
 66 310 l 1,3,-1
 444 310 l 1,0,-1
EndSplineSet
EndChar

StartChar: fi
Encoding: 64257 64257 233
Width: 565
GlyphClass: 2
Flags: W
LayerCount: 2
Fore
SplineSet
367 722 m 0,0,1
 438 722 438 722 503 706 c 1,2,-1
 474 632 l 1,3,4
 405 643 405 643 356.5 643 c 128,-1,5
 308 643 308 643 280.5 621.5 c 128,-1,6
 253 600 253 600 244 546 c 2,7,-1
 238 506 l 1,8,-1
 442 506 l 1,9,-1
 534 513 l 1,10,-1
 453 0 l 1,11,-1
 362 0 l 1,12,-1
 430 435 l 1,13,-1
 226 435 l 1,14,-1
 128 -186 l 1,15,-1
 38 -177 l 1,16,-1
 135 435 l 1,17,-1
 43 440 l 1,18,-1
 62 499 l 1,19,-1
 147 506 l 1,20,-1
 153 543 l 1,21,22
 180 722 180 722 367 722 c 0,0,1
EndSplineSet
EndChar

StartChar: fl
Encoding: 64258 64258 234
Width: 612
GlyphClass: 2
Flags: W
LayerCount: 2
Fore
SplineSet
367 722 m 0,0,1
 468 722 468 722 573 682 c 1,2,-1
 481 102 l 2,3,4
 480 96 480 96 480 90 c 0,5,6
 480 63 480 63 509 63 c 128,-1,7
 538 63 538 63 571 73 c 1,8,-1
 576 7 l 1,9,10
 531 -13 531 -13 471 -13 c 0,11,12
 387 -13 387 -13 387 71 c 0,13,14
 387 85 387 85 389 101 c 2,15,-1
 473 627 l 1,16,17
 410 643 410 643 359 643 c 128,-1,18
 308 643 308 643 280.5 621.5 c 128,-1,19
 253 600 253 600 244 546 c 2,20,-1
 238 506 l 1,21,-1
 375 506 l 1,22,-1
 353 435 l 1,23,-1
 226 435 l 1,24,-1
 128 -186 l 1,25,-1
 38 -177 l 1,26,-1
 135 435 l 1,27,-1
 43 440 l 1,28,-1
 62 499 l 1,29,-1
 147 506 l 1,30,-1
 153 543 l 1,31,32
 180 722 180 722 367 722 c 0,0,1
EndSplineSet
EndChar

StartChar: plus.001
Encoding: 65540 -1 236
Width: 484
GlyphClass: 2
Flags: W
LayerCount: 2
Fore
SplineSet
294 85 m 1,0,-1
 215 85 l 1,1,-1
 239 239 l 1,2,-1
 87 239 l 1,3,-1
 100 318 l 1,4,-1
 252 318 l 1,5,-1
 276 470 l 1,6,-1
 355 470 l 1,7,-1
 331 318 l 1,8,-1
 484 318 l 1,9,-1
 471 239 l 1,10,-1
 318 239 l 1,11,-1
 294 85 l 1,0,-1
EndSplineSet
EndChar

StartChar: percent
Encoding: 65541 -1 237
Width: 812
GlyphClass: 2
Flags: W
LayerCount: 2
Fore
SplineSet
255 0 m 1,0,-1
 163 0 l 1,1,-1
 636 701 l 1,2,-1
 727 701 l 1,3,-1
 255 0 l 1,0,-1
241 307 m 0,4,5
 134 307 134 307 134 425 c 0,6,7
 134 456 134 456 140 497 c 0,8,9
 158 607 158 607 201 649 c 128,-1,10
 244 691 244 691 305 691 c 128,-1,11
 366 691 366 691 395 650 c 0,12,13
 413 624 413 624 413 582 c 128,-1,14
 413 540 413 540 406 498 c 0,15,16
 389 389 389 389 346 348 c 128,-1,17
 303 307 303 307 241 307 c 0,4,5
338 559 m 0,18,19
 338 626 338 626 293 626 c 0,20,21
 234 626 234 626 215 499 c 0,22,23
 210 460 210 460 210 434 c 0,24,25
 210 372 210 372 252 372 c 0,26,27
 313 372 313 372 333 499 c 0,28,29
 338 534 338 534 338 559 c 0,18,19
580 -13 m 0,30,31
 474 -13 474 -13 474 104 c 0,32,33
 474 136 474 136 480 177 c 0,34,35
 497 287 497 287 540 329 c 128,-1,36
 583 371 583 371 644 371 c 128,-1,37
 705 371 705 371 734 330 c 0,38,39
 752 303 752 303 752 261 c 128,-1,40
 752 219 752 219 746 178 c 0,41,42
 729 69 729 69 685.5 28 c 128,-1,43
 642 -13 642 -13 580 -13 c 0,30,31
548 118 m 0,44,45
 548 52 548 52 592 52 c 0,46,47
 621 52 621 52 641 80 c 128,-1,48
 661 108 661 108 669 159.5 c 128,-1,49
 677 211 677 211 677 235 c 0,50,51
 677 306 677 306 632 306 c 0,52,53
 574 306 574 306 554 179 c 0,54,55
 548 143 548 143 548 118 c 0,44,45
EndSplineSet
EndChar

